<?xml version="1.0" encoding="UTF-8" standalone="no"?>
<!-- Created with Inkscape (http://www.inkscape.org/) -->

<svg
   width="179.46863mm"
   height="179.4686mm"
   viewBox="0 0 179.46863 179.4686"
   version="1.1"
   id="svg1"
   xml:space="preserve"
   xmlns="http://www.w3.org/2000/svg"
   xmlns:svg="http://www.w3.org/2000/svg"><defs
     id="defs1" /><g
     id="layer3"
     transform="translate(-1317.0917,250.61437)"><path
       id="rect42"
       style="display:inline;fill:#edb381;stroke-width:0.499999;stroke-linecap:square;paint-order:stroke fill markers"
       d="m 1318.8405,-250.61436 h 175.971 c 0.9688,0 1.7488,0.77997 1.7488,1.74883 v 175.970947 c 0,0.968852 -0.78,1.748831 -1.7488,1.748831 h -175.971 c -0.9688,0 -1.7488,-0.779979 -1.7488,-1.748831 V -248.86553 c 0,-0.96886 0.78,-1.74883 1.7488,-1.74883 z" /><path
       style="display:inline;fill:#181c30;fill-opacity:1;stroke:none;stroke-width:0.499999;stroke-linecap:square;paint-order:stroke fill markers"
       d="m 478.97722,-36.391904 h 29.30725 a 1.1137538,1.1137538 45 0 1 1.11375,1.113754 v 32.174035 a 1.1137538,1.1137538 45 0 0 1.11375,1.1137538 h 17.26272 a 2.5098397,2.5098397 156.07051 0 0 1.86103,-0.8258437 l 14.24285,-15.7402041 a 2.8907899,2.8907899 111.07051 0 0 0.74728,-1.939598 v -11.137288 a 2.0172117,2.0172117 118.9042 0 1 0.94254,-1.707109 l 15.44122,-9.720693 a 1.7094231,1.7094231 0.89417226 0 1 1.8661,0.02912 l 15.16652,10.222219 a 2.0937818,2.0937818 61.989968 0 1 0.92356,1.736234 v 10.004153 a 2.8580896,2.8580896 68.709898 0 0 0.75359,1.933845 l 14.81316,16.1203663 a 2.5360115,2.5360115 23.709898 0 0 1.86734,0.8200913 h 17.66254 a 1.1171489,1.1171489 135.0872 0 0 1.11714,-1.1137486 l 0.0956,-31.395986 a 1.1171489,1.1171489 135.0872 0 1 1.11714,-1.113749 h 28.35166 a 1.1137538,1.1137538 45 0 1 1.11375,1.113754 V 123.58903 c 0,0.61511 -0.43911,0.87728 -0.98841,0.60052 -5.72647,-2.88518 -36.00318,-16.9733 -82.13779,-17.48086 -0.61497,-0.007 -1.61218,-0.013 -2.22729,-0.0134 -43.98439,-0.0254 -75.59797,14.62032 -81.48542,17.55219 -0.55052,0.27416 -0.99185,0.009 -0.99247,-0.6065 L 477.8646,-35.278151 a 1.1126212,1.1126212 134.97085 0 1 1.11262,-1.113753 z"
       id="path42"
       transform="translate(844.96485,-201.39577)" /><path
       style="font-style:italic;font-size:11.5821px;line-height:0;font-family:Merriweather;-inkscape-font-specification:'Merriweather, @opsz=144,wght=500';font-variation-settings:'opsz' 144, 'wght' 500;letter-spacing:1.32292px;direction:rtl;fill:#ffffff;stroke-width:0.117254;stroke-linecap:square;paint-order:stroke fill markers"
       d="m 1385.646,-79.222062 q -0.9208,0 -1.5346,-0.312717 -0.6139,-0.312717 -0.9729,-0.833911 -0.3533,-0.521195 -0.5096,-1.164001 -0.1506,-0.648598 -0.1506,-1.308778 0,-1.094508 0.3127,-2.038449 0.3185,-0.943941 0.8976,-1.650449 0.5849,-0.7123 1.3899,-1.111882 0.8049,-0.399582 1.7778,-0.399582 0.6255,0 1.0598,0.08107 0.4343,0.07528 0.747,0.16215 0.3185,0.08107 0.5791,0.09845 l -0.3706,2.2643 h -0.7702 l -0.075,-1.945793 q -0.1158,-0.08107 -0.2895,-0.156358 -0.168,-0.08107 -0.4054,-0.127403 -0.2374,-0.05212 -0.5617,-0.05212 -0.695,0 -1.2219,0.428538 -0.527,0.422747 -0.8861,1.135046 -0.3532,0.712299 -0.5328,1.592539 -0.1737,0.874448 -0.1737,1.777852 0,0.567523 0.087,1.146628 0.093,0.573314 0.3127,1.04818 0.2259,0.469075 0.6081,0.758627 0.388,0.289553 0.9671,0.289553 0.249,0 0.5385,-0.08687 0.2954,-0.08687 0.5444,-0.231642 0.249,-0.150567 0.3532,-0.341672 0.052,-0.127403 0.1217,-0.324299 0.07,-0.202686 0.1389,-0.428537 0.069,-0.231642 0.1332,-0.445911 0.069,-0.214269 0.1101,-0.370627 h 0.6775 l -0.3301,2.055822 q -0.1737,0.03475 -0.4053,0.115821 -0.2317,0.07528 -0.5386,0.16215 -0.3069,0.08687 -0.7123,0.150567 -0.3996,0.0637 -0.915,0.0637 z m 6.1494,-0.943941 q -0.012,0.191104 0.052,0.266388 0.069,0.06949 0.1737,0.06949 0.11,0 0.2432,-0.07528 0.139,-0.07528 0.3011,-0.260597 l 0.1217,0.220059 q -0.1738,0.225851 -0.3938,0.393792 -0.2201,0.16794 -0.4865,0.254806 -0.2664,0.09266 -0.5733,0.09266 -0.2085,0 -0.3648,-0.06949 -0.1506,-0.06949 -0.2317,-0.225851 -0.081,-0.162149 -0.081,-0.422746 0,-0.05791 0.012,-0.150568 0.012,-0.09845 0.029,-0.225851 0.017,-0.127403 0.035,-0.260597 l 1.1235,-7.632604 -0.7876,-0.179522 0.029,-0.167941 1.911,-0.254806 0.1506,0.127403 z m 3.952,0.967105 q -0.359,0 -0.6022,-0.150567 -0.2375,-0.150568 -0.3591,-0.411165 -0.1216,-0.260597 -0.1216,-0.602269 0,-0.144776 0.029,-0.428538 0.035,-0.289552 0.081,-0.619642 0.046,-0.335881 0.087,-0.619643 0.046,-0.289552 0.07,-0.422746 l 0.3359,-2.125316 -0.6834,-0.214268 0.023,-0.167941 1.7547,-0.318508 0.2027,0.156359 -0.3765,2.59439 q -0.029,0.191105 -0.075,0.480657 -0.041,0.283762 -0.081,0.584896 -0.035,0.295344 -0.064,0.538568 -0.023,0.237433 -0.023,0.335881 0,0.191105 0.041,0.33009 0.041,0.133194 0.1332,0.202686 0.098,0.0637 0.2606,0.0637 0.3069,0 0.6428,-0.301135 0.3358,-0.301134 0.6486,-0.810747 0.3127,-0.515403 0.5385,-1.140836 l 0.4459,-2.907107 h 1.2335 l -0.7296,4.91081 q -0.023,0.191105 0.023,0.306926 0.046,0.110029 0.168,0.110029 0.1158,0 0.2606,-0.08107 0.1505,-0.08687 0.2895,-0.254806 l 0.1158,0.220059 q -0.1274,0.191105 -0.3416,0.359046 -0.2085,0.16794 -0.4749,0.272179 -0.2664,0.104239 -0.5675,0.104239 -0.417,0 -0.5733,-0.208478 -0.1564,-0.208478 -0.1564,-0.469075 0,-0.05791 0.023,-0.243224 0.023,-0.185314 0.058,-0.434329 0.041,-0.254806 0.081,-0.509612 0.041,-0.254806 0.07,-0.44012 h -0.017 q -0.1911,0.469075 -0.4344,0.886031 -0.2432,0.416955 -0.5385,0.741254 -0.2954,0.318508 -0.6428,0.503821 -0.3475,0.179523 -0.7529,0.179523 z m 7.9932,-4.725497 q 0.1795,-0.416955 0.4806,-0.729672 0.3011,-0.318508 0.6776,-0.49803 0.3764,-0.179523 0.7586,-0.179523 0.5443,0 0.9266,0.243224 0.388,0.243224 0.5964,0.723881 0.2085,0.480657 0.2085,1.181374 0,0.584897 -0.1563,1.15821 -0.1506,0.573314 -0.4517,1.082927 -0.2954,0.503821 -0.7355,0.897613 -0.4343,0.388 -1.0019,0.613851 -0.5675,0.22006 -1.2508,0.22006 -0.3417,0 -0.666,-0.07528 -0.3243,-0.06949 -0.5849,-0.179522 l -0.7123,0.220059 1.3088,-8.947172 -0.7413,-0.179522 0.029,-0.167941 1.8705,-0.254806 0.1506,0.127403 z m -0.5965,4.042153 q 0.058,0.162149 0.2258,0.283761 0.1738,0.115821 0.4517,0.115821 0.4401,0 0.7934,-0.237433 0.359,-0.243224 0.6196,-0.642806 0.2664,-0.405374 0.446,-0.909195 0.1795,-0.509612 0.2663,-1.04818 0.087,-0.544359 0.087,-1.053971 0,-0.706508 -0.1911,-1.077135 -0.1853,-0.376419 -0.5965,-0.376419 -0.3011,0 -0.637,0.231642 -0.3301,0.231642 -0.5965,0.613852 -0.2664,0.376418 -0.3764,0.82812 z m 5.2678,0.55015 0.029,-0.214269 0.8108,-0.185314 1.0713,-7.806335 -0.747,-0.191105 0.029,-0.208478 h 2.9766 l -0.029,0.208478 -0.8223,0.191105 -0.4923,3.58466 h 3.4631 l 0.4922,-3.58466 -0.7586,-0.191105 0.029,-0.208478 h 2.9477 l -0.023,0.208478 -0.7818,0.191105 -1.0713,7.806335 0.7586,0.185314 -0.029,0.214269 h -2.9997 l 0.029,-0.214269 0.8282,-0.185314 0.5269,-3.839466 h -3.463 l -0.527,3.839466 0.8223,0.185314 -0.035,0.214269 z m 11.1202,0.133194 q -0.359,0 -0.6023,-0.150567 -0.2374,-0.150568 -0.359,-0.411165 -0.1216,-0.260597 -0.1216,-0.602269 0,-0.144776 0.029,-0.428538 0.035,-0.289552 0.081,-0.619642 0.046,-0.335881 0.087,-0.619643 0.046,-0.289552 0.07,-0.422746 l 0.3358,-2.125316 -0.6833,-0.214268 0.023,-0.167941 1.7547,-0.318508 0.2026,0.156359 -0.3764,2.59439 q -0.029,0.191105 -0.075,0.480657 -0.041,0.283762 -0.081,0.584896 -0.035,0.295344 -0.064,0.538568 -0.023,0.237433 -0.023,0.335881 0,0.191105 0.041,0.33009 0.041,0.133194 0.1332,0.202686 0.098,0.0637 0.2606,0.0637 0.307,0 0.6428,-0.301135 0.3359,-0.301134 0.6486,-0.810747 0.3128,-0.515403 0.5386,-1.140836 l 0.4459,-2.907107 h 1.2335 l -0.7297,4.91081 q -0.023,0.191105 0.023,0.306926 0.046,0.110029 0.1679,0.110029 0.1159,0 0.2606,-0.08107 0.1506,-0.08687 0.2896,-0.254806 l 0.1158,0.220059 q -0.1274,0.191105 -0.3417,0.359046 -0.2084,0.16794 -0.4748,0.272179 -0.2664,0.104239 -0.5676,0.104239 -0.4169,0 -0.5733,-0.208478 -0.1563,-0.208478 -0.1563,-0.469075 0,-0.05791 0.023,-0.243224 0.023,-0.185314 0.058,-0.434329 0.041,-0.254806 0.081,-0.509612 0.041,-0.254806 0.069,-0.44012 h -0.017 q -0.1911,0.469075 -0.4343,0.886031 -0.2432,0.416955 -0.5386,0.741254 -0.2953,0.318508 -0.6428,0.503821 -0.3474,0.179523 -0.7528,0.179523 z m 7.9931,-4.725497 q 0.1796,-0.416955 0.4807,-0.729672 0.3011,-0.318508 0.6775,-0.49803 0.3765,-0.179523 0.7587,-0.179523 0.5443,0 0.9265,0.243224 0.388,0.243224 0.5965,0.723881 0.2085,0.480657 0.2085,1.181374 0,0.584897 -0.1564,1.15821 -0.1505,0.573314 -0.4517,1.082927 -0.2953,0.503821 -0.7354,0.897613 -0.4344,0.388 -1.0019,0.613851 -0.5675,0.22006 -1.2508,0.22006 -0.3417,0 -0.666,-0.07528 -0.3243,-0.06949 -0.5849,-0.179522 l -0.7123,0.220059 1.3088,-8.947172 -0.7413,-0.179522 0.029,-0.167941 1.8705,-0.254806 0.1505,0.127403 z m -0.5964,4.042153 q 0.058,0.162149 0.2258,0.283761 0.1737,0.115821 0.4517,0.115821 0.4401,0 0.7934,-0.237433 0.359,-0.243224 0.6196,-0.642806 0.2664,-0.405374 0.4459,-0.909195 0.1796,-0.509612 0.2664,-1.04818 0.087,-0.544359 0.087,-1.053971 0,-0.706508 -0.1911,-1.077135 -0.1853,-0.376419 -0.5965,-0.376419 -0.3011,0 -0.637,0.231642 -0.3301,0.231642 -0.5965,0.613852 -0.2664,0.376418 -0.3764,0.82812 z"
       id="text42"
       aria-label="ClubHub" /><path
       id="circle42"
       style="fill:#edb381;stroke-width:0.474686;stroke-linecap:square;paint-order:stroke fill markers"
       d="m 1402.3928,-151.98235 a 34.457718,34.457718 0 0 1 -34.4577,34.45772 34.457718,34.457718 0 0 1 -34.4578,-34.45772 34.457718,34.457718 0 0 1 34.4578,-34.45771 34.457718,34.457718 0 0 1 34.4577,34.45771 z" /><path
       id="rect43"
       style="fill:#edb381;stroke-width:0.475815;stroke-linecap:square;paint-order:stroke fill markers"
       d="m 1423.4614,-186.44006 h 45.5604 c 6.2188,0 11.2253,5.00649 11.2253,11.22532 v 45.56039 c 0,6.21883 -5.0065,11.22532 -11.2253,11.22532 h -45.5604 c -6.2188,0 -11.2253,-5.00649 -11.2253,-11.22532 v -45.56039 c 0,-6.21883 5.0065,-11.22532 11.2253,-11.22532 z" /></g></svg>
