<?xml version="1.0" encoding="UTF-8" standalone="no"?>
<!-- Created with Inkscape (http://www.inkscape.org/) -->

<svg
   width="179.46863mm"
   height="179.46861mm"
   viewBox="0 0 179.46863 179.46861"
   version="1.1"
   id="svg1"
   xml:space="preserve"
   xmlns="http://www.w3.org/2000/svg"
   xmlns:svg="http://www.w3.org/2000/svg"><defs
     id="defs1" /><g
     id="layer3"
     transform="translate(-836.93818,49.306955)"><path
       id="rect32"
       style="display:inline;fill:#edb381;stroke-width:0.499999;stroke-linecap:square;paint-order:stroke fill markers"
       d="m 838.687,-49.30695 h 175.971 c 0.9688,0 1.7488,0.779979 1.7488,1.748832 V 128.41283 c 0,0.96885 -0.78,1.74883 -1.7488,1.74883 H 838.687 c -0.96885,0 -1.74883,-0.77998 -1.74883,-1.74883 V -47.558118 c 0,-0.968853 0.77998,-1.748832 1.74883,-1.748832 z" /><path
       style="display:inline;fill:#181c30;fill-opacity:1;stroke:none;stroke-width:0.499999;stroke-linecap:square;paint-order:stroke fill markers"
       d="m 478.97722,-36.391904 h 29.30725 a 1.1137538,1.1137538 45 0 1 1.11375,1.113754 v 32.174035 a 1.1137538,1.1137538 45 0 0 1.11375,1.1137538 h 17.26272 a 2.5098397,2.5098397 156.07051 0 0 1.86103,-0.8258437 l 14.24285,-15.7402041 a 2.8907899,2.8907899 111.07051 0 0 0.74728,-1.939598 v -11.137288 a 2.0172117,2.0172117 118.9042 0 1 0.94254,-1.707109 l 15.44122,-9.720693 a 1.7094231,1.7094231 0.89417226 0 1 1.8661,0.02912 l 15.16652,10.222219 a 2.0937818,2.0937818 61.989968 0 1 0.92356,1.736234 v 10.004153 a 2.8580896,2.8580896 68.709898 0 0 0.75359,1.933845 l 14.81316,16.1203663 a 2.5360115,2.5360115 23.709898 0 0 1.86734,0.8200913 h 17.66254 a 1.1171489,1.1171489 135.0872 0 0 1.11714,-1.1137486 l 0.0956,-31.395986 a 1.1171489,1.1171489 135.0872 0 1 1.11714,-1.113749 h 28.35166 a 1.1137538,1.1137538 45 0 1 1.11375,1.113754 V 123.58903 c 0,0.61511 -0.43911,0.87728 -0.98841,0.60052 -5.72647,-2.88518 -36.00318,-16.9733 -82.13779,-17.48086 -0.61497,-0.007 -1.61218,-0.013 -2.22729,-0.0134 -43.98439,-0.0254 -75.59797,14.62032 -81.48542,17.55219 -0.55052,0.27416 -0.99185,0.009 -0.99247,-0.6065 L 477.8646,-35.278151 a 1.1126212,1.1126212 134.97085 0 1 1.11262,-1.113753 z"
       id="path32"
       transform="translate(364.81132,-0.08835807)" /><path
       style="font-style:italic;font-size:70.2196px;line-height:0;font-family:Merriweather;-inkscape-font-specification:'Merriweather, @opsz=144,wght=600';font-variation-settings:'opsz' 144, 'wght' 600;letter-spacing:8.65798px;direction:rtl;fill:#edb381;stroke-width:0.710876;stroke-linecap:square;paint-order:stroke fill markers"
       d="m 867.92548,84.684816 q -5.61757,0 -9.33921,-1.860819 -3.68653,-1.895929 -5.86333,-5.055811 -2.17681,-3.159882 -3.08967,-7.05707 -0.91285,-3.897187 -0.91285,-7.899704 0,-6.460203 1.82571,-12.14799 1.86082,-5.722898 5.33669,-10.111622 3.47587,-4.388725 8.42635,-6.881521 4.98559,-2.492796 11.20003,-2.492796 3.9674,0 6.63575,0.491538 2.70345,0.456427 4.63449,0.947964 1.96615,0.491537 3.68653,0.561757 l -2.28214,14.289688 h -5.65267 l -0.52665,-12.463979 q -0.66709,-0.561756 -1.65016,-0.947964 -0.98308,-0.421318 -2.31725,-0.667086 -1.33417,-0.245769 -3.01944,-0.245769 -3.9323,0 -6.91663,2.563015 -2.98433,2.563016 -5.0207,6.95174 -2.03637,4.353615 -3.05455,9.795634 -1.01819,5.406909 -1.01819,11.094697 0,3.194991 0.49154,6.565532 0.49154,3.370541 1.68527,6.249544 1.22884,2.843894 3.37054,4.599384 2.1417,1.755489 5.3718,1.755489 1.47461,0 3.15988,-0.491537 1.68527,-0.491537 3.08966,-1.369282 1.40439,-0.877745 2.00126,-2.036368 0.31599,-0.702196 0.77242,-1.966149 0.49153,-1.299062 0.98307,-2.773674 0.49154,-1.509721 0.91286,-2.914113 0.45642,-1.404392 0.70219,-2.387466 h 4.81004 l -2.21191,12.955515 q -1.08841,0.140439 -2.4928,0.596867 -1.40439,0.456427 -3.30032,1.018184 -1.89593,0.561757 -4.45894,0.947964 -2.56302,0.386208 -5.96867,0.386208 z m 39.64387,-6.144215 q -0.0702,1.158624 0.31599,1.579941 0.38621,0.421318 0.98307,0.421318 0.63198,0 1.43951,-0.386208 0.84263,-0.421317 1.7906,-1.474611 l 0.77241,1.439501 q -1.15862,1.439502 -2.63323,2.492796 -1.47462,1.053294 -3.26522,1.615051 -1.75549,0.561757 -3.79185,0.561757 -1.29907,0 -2.28214,-0.456428 -0.98307,-0.456427 -1.50972,-1.439502 -0.52665,-0.983074 -0.52665,-2.598125 0,-0.351098 0.0702,-0.912854 0.0702,-0.561757 0.14044,-1.299063 0.10533,-0.772415 0.24577,-1.544831 l 6.77619,-46.028946 -4.73982,-1.193733 0.17555,-1.053294 12.53419,-1.65016 1.08841,0.877745 z m 24.3623,6.284654 q -2.31725,0 -3.82697,-0.947964 -1.50972,-0.983075 -2.28214,-2.598125 -0.7373,-1.615051 -0.7373,-3.651419 0,-0.912855 0.17555,-2.563016 0.17555,-1.65016 0.42132,-3.510979 0.24576,-1.89593 0.49153,-3.54609 0.28088,-1.68527 0.42132,-2.668345 l 2.03637,-12.885296 -4.00252,-1.439501 0.17555,-1.053294 11.51601,-2.071479 1.29907,1.053294 -2.21192,15.448312 q -0.17555,1.263952 -0.42132,3.019442 -0.24577,1.720381 -0.49153,3.47587 -0.21066,1.720381 -0.3511,3.089663 -0.14044,1.369282 -0.14044,1.931039 0,1.088403 0.21066,1.860819 0.21066,0.737306 0.7373,1.158623 0.52665,0.386208 1.47461,0.386208 1.75549,0 3.61631,-1.75549 1.86082,-1.7906 3.54609,-4.669603 1.68527,-2.879004 2.87901,-6.214434 l 2.80878,-17.976217 h 8.56679 l -4.38872,29.52734 q -0.14044,1.123514 0.17555,1.75549 0.35109,0.596867 1.01818,0.596867 0.7022,0 1.57994,-0.456428 0.87775,-0.491537 1.68527,-1.439501 l 0.77242,1.474611 q -0.91286,1.228843 -2.35236,2.282137 -1.40439,1.053294 -3.15988,1.68527 -1.72038,0.631977 -3.65142,0.631977 -2.63324,0 -3.72164,-1.228843 -1.05329,-1.263953 -1.05329,-2.984333 0,-0.386208 0.10533,-1.439502 0.14043,-1.053294 0.35109,-2.457686 0.21066,-1.404392 0.42132,-2.843893 0.24577,-1.474612 0.42132,-2.633235 h -0.10533 q -1.05329,2.703454 -2.45769,5.16114 -1.40439,2.457686 -3.15988,4.388725 -1.75549,1.895929 -3.86208,3.019443 -2.07147,1.088403 -4.52916,1.088403 z m 50.67912,-28.965583 q 0.98307,-2.387467 2.77367,-4.213176 1.82571,-1.860819 4.07274,-2.914113 2.28213,-1.088404 4.63449,-1.088404 3.15988,0 5.51224,1.439502 2.38749,1.439501 3.68649,4.353615 1.3342,2.914113 1.3342,7.302838 0,3.546089 -0.948,7.021959 -0.9128,3.47587 -2.7385,6.530423 -1.82573,3.054552 -4.52918,5.442019 -2.66835,2.352356 -6.17933,3.686528 -3.51098,1.334173 -7.79437,1.334173 -2.00126,0 -3.96741,-0.456428 -1.96615,-0.421317 -3.54609,-1.018184 l -5.09092,1.369282 7.93481,-54.139309 -4.52916,-1.193733 0.17555,-1.053294 12.32354,-1.65016 1.0884,0.877745 z m -3.68653,24.963066 q 0.28087,0.842636 1.19373,1.509722 0.94796,0.667086 2.52791,0.667086 2.59812,0 4.63449,-1.439502 2.03637,-1.474611 3.51098,-3.932297 1.50972,-2.457686 2.49279,-5.547348 1.01819,-3.089663 1.47462,-6.354874 0.49153,-3.300321 0.49153,-6.389983 0,-4.072737 -0.98307,-6.179325 -0.98308,-2.141697 -3.30032,-2.141697 -1.72038,0 -3.5812,1.404391 -1.86082,1.369283 -3.33543,3.54609 -1.47461,2.176808 -2.07148,4.564274 z"
       id="text32"
       aria-label="Club" /></g></svg>
