<?xml version="1.0" encoding="UTF-8" standalone="no"?>
<!-- Created with Inkscape (http://www.inkscape.org/) -->

<svg
   width="179.46863mm"
   height="179.46861mm"
   viewBox="0 0 179.46863 179.46861"
   version="1.1"
   id="svg1"
   xml:space="preserve"
   xmlns="http://www.w3.org/2000/svg"
   xmlns:svg="http://www.w3.org/2000/svg"><defs
     id="defs1" /><g
     id="layer3"
     transform="translate(-569.17981,49.306955)"><rect
       style="display:inline;fill:#edb381;fill-opacity:1;stroke:none;stroke-width:0.499999;stroke-linecap:square;paint-order:stroke fill markers"
       id="rect14"
       width="179.46861"
       height="179.46861"
       x="569.17981"
       y="-49.30695"
       ry="1.7488315" /><path
       style="display:inline;fill:#181c30;fill-opacity:1;stroke:none;stroke-width:0.499999;stroke-linecap:square;paint-order:stroke fill markers"
       d="m 478.97722,-36.391904 h 29.30725 a 1.1137538,1.1137538 45 0 1 1.11375,1.113754 v 32.174035 a 1.1137538,1.1137538 45 0 0 1.11375,1.1137538 l 17.26272,0 a 2.5098397,2.5098397 156.07051 0 0 1.86103,-0.8258437 l 14.24285,-15.7402041 a 2.8907899,2.8907899 111.07051 0 0 0.74728,-1.939598 v -11.137288 a 2.0172117,2.0172117 118.9042 0 1 0.94254,-1.707109 l 15.44122,-9.720693 a 1.7094231,1.7094231 0.89417226 0 1 1.8661,0.02912 l 15.16652,10.222219 a 2.0937818,2.0937818 61.989968 0 1 0.92356,1.736234 v 10.004153 a 2.8580896,2.8580896 68.709898 0 0 0.75359,1.933845 l 14.81316,16.1203663 a 2.5360115,2.5360115 23.709898 0 0 1.86734,0.8200913 h 17.66254 a 1.1171489,1.1171489 135.0872 0 0 1.11714,-1.1137486 l 0.0956,-31.395986 a 1.1171489,1.1171489 135.0872 0 1 1.11714,-1.113749 h 28.35166 a 1.1137538,1.1137538 45 0 1 1.11375,1.113754 V 123.58903 c 0,0.61511 -0.43911,0.87728 -0.98841,0.60052 -5.72647,-2.88518 -36.00318,-16.9733 -82.13779,-17.48086 -0.61497,-0.007 -1.61218,-0.013 -2.22729,-0.0134 -43.98439,-0.0254 -75.59797,14.62032 -81.48542,17.55219 -0.55052,0.27416 -0.99185,0.009 -0.99247,-0.6065 L 477.8646,-35.278151 a 1.1126212,1.1126212 134.97085 0 1 1.11262,-1.113753 z"
       id="path10"
       transform="translate(97.052984,-0.08835807)" /><text
       xml:space="preserve"
       style="font-style:normal;font-variant:normal;font-weight:normal;font-stretch:normal;font-size:70.2196px;line-height:0;font-family:Merriweather;-inkscape-font-specification:'Merriweather, @opsz=144,wght=600';font-variant-ligatures:normal;font-variant-caps:normal;font-variant-numeric:normal;font-variant-east-asian:normal;font-variation-settings:'opsz' 144, 'wght' 600;text-align:start;letter-spacing:8.65798px;writing-mode:lr-tb;direction:rtl;text-anchor:start;fill:#edb381;stroke-width:0.710876;stroke-linecap:square;paint-order:stroke fill markers"
       x="738.02484"
       y="83.98262"
       id="text3"><tspan
         style="font-style:italic;font-variant:normal;font-weight:normal;font-stretch:normal;font-size:70.2196px;font-family:Merriweather;-inkscape-font-specification:'Merriweather, @opsz=144,wght=600';font-variant-ligatures:normal;font-variant-caps:normal;font-variant-numeric:normal;font-variant-east-asian:normal;font-variation-settings:'opsz' 144, 'wght' 600;letter-spacing:8.65798px;direction:rtl;stroke-width:0.710876"
         x="746.6828"
         y="83.98262"
         id="tspan4">Club</tspan></text></g></svg>
