<?xml version="1.0" encoding="UTF-8" standalone="no"?>
<!-- Created with Inkscape (http://www.inkscape.org/) -->

<svg
   width="179.46863mm"
   height="179.46861mm"
   viewBox="0 0 179.46863 179.46861"
   version="1.1"
   id="svg1"
   xml:space="preserve"
   xmlns="http://www.w3.org/2000/svg"
   xmlns:svg="http://www.w3.org/2000/svg"><defs
     id="defs1" /><g
     id="layer3"
     transform="translate(-1317.4215,49.306955)"><path
       id="rect36"
       style="display:inline;fill:#edb381;stroke-width:0.499999;stroke-linecap:square;paint-order:stroke fill markers"
       d="m 1319.1703,-49.30695 h 175.971 c 0.9688,0 1.7488,0.779979 1.7488,1.748832 V 128.41283 c 0,0.96885 -0.78,1.74883 -1.7488,1.74883 h -175.971 c -0.9688,0 -1.7488,-0.77998 -1.7488,-1.74883 V -47.558118 c 0,-0.968853 0.78,-1.748832 1.7488,-1.748832 z" /><path
       style="display:inline;fill:#181c30;fill-opacity:1;stroke:none;stroke-width:0.499999;stroke-linecap:square;paint-order:stroke fill markers"
       d="m 478.97722,-36.391904 h 29.30725 a 1.1137538,1.1137538 45 0 1 1.11375,1.113754 v 32.174035 a 1.1137538,1.1137538 45 0 0 1.11375,1.1137538 h 17.26272 a 2.5098397,2.5098397 156.07051 0 0 1.86103,-0.8258437 l 14.24285,-15.7402041 a 2.8907899,2.8907899 111.07051 0 0 0.74728,-1.939598 v -11.137288 a 2.0172117,2.0172117 118.9042 0 1 0.94254,-1.707109 l 15.44122,-9.720693 a 1.7094231,1.7094231 0.89417226 0 1 1.8661,0.02912 l 15.16652,10.222219 a 2.0937818,2.0937818 61.989968 0 1 0.92356,1.736234 v 10.004153 a 2.8580896,2.8580896 68.709898 0 0 0.75359,1.933845 l 14.81316,16.1203663 a 2.5360115,2.5360115 23.709898 0 0 1.86734,0.8200913 h 17.66254 a 1.1171489,1.1171489 135.0872 0 0 1.11714,-1.1137486 l 0.0956,-31.395986 a 1.1171489,1.1171489 135.0872 0 1 1.11714,-1.113749 h 28.35166 a 1.1137538,1.1137538 45 0 1 1.11375,1.113754 V 123.58903 c 0,0.61511 -0.43911,0.87728 -0.98841,0.60052 -5.72647,-2.88518 -36.00318,-16.9733 -82.13779,-17.48086 -0.61497,-0.007 -1.61218,-0.013 -2.22729,-0.0134 -43.98439,-0.0254 -75.59797,14.62032 -81.48542,17.55219 -0.55052,0.27416 -0.99185,0.009 -0.99247,-0.6065 L 477.8646,-35.278151 a 1.1126212,1.1126212 134.97085 0 1 1.11262,-1.113753 z"
       id="path36"
       transform="translate(845.29465,-0.08835807)" /><path
       style="font-style:italic;font-size:11.5821px;line-height:0;font-family:Merriweather;-inkscape-font-specification:'Merriweather, @opsz=144,wght=500';font-variation-settings:'opsz' 144, 'wght' 500;letter-spacing:1.32292px;direction:rtl;fill:#ffffff;stroke-width:0.117254;stroke-linecap:square;paint-order:stroke fill markers"
       d="m 1385.9758,122.08535 q -0.9207,0 -1.5346,-0.31272 -0.6138,-0.31271 -0.9729,-0.83391 -0.3532,-0.52119 -0.5096,-1.164 -0.1506,-0.6486 -0.1506,-1.30878 0,-1.09451 0.3127,-2.03845 0.3186,-0.94394 0.8977,-1.65045 0.5849,-0.7123 1.3898,-1.11188 0.805,-0.39958 1.7779,-0.39958 0.6254,0 1.0597,0.0811 0.4344,0.0753 0.7471,0.16215 0.3185,0.0811 0.5791,0.0984 l -0.3706,2.2643 h -0.7703 l -0.075,-1.94579 q -0.1159,-0.0811 -0.2896,-0.15636 -0.1679,-0.0811 -0.4054,-0.1274 -0.2374,-0.0521 -0.5617,-0.0521 -0.6949,0 -1.2219,0.42854 -0.527,0.42274 -0.886,1.13504 -0.3533,0.7123 -0.5328,1.59254 -0.1737,0.87445 -0.1737,1.77785 0,0.56753 0.087,1.14663 0.093,0.57331 0.3127,1.04818 0.2259,0.46908 0.6081,0.75863 0.388,0.28955 0.9671,0.28955 0.249,0 0.5386,-0.0869 0.2953,-0.0869 0.5443,-0.23165 0.249,-0.15056 0.3533,-0.34167 0.052,-0.1274 0.1216,-0.3243 0.07,-0.20268 0.139,-0.42854 0.07,-0.23164 0.1332,-0.44591 0.07,-0.21426 0.11,-0.37062 h 0.6776 l -0.3301,2.05582 q -0.1738,0.0348 -0.4054,0.11582 -0.2317,0.0753 -0.5386,0.16215 -0.3069,0.0869 -0.7123,0.15057 -0.3996,0.0637 -0.915,0.0637 z m 6.1495,-0.94394 q -0.012,0.1911 0.052,0.26639 0.07,0.0695 0.1737,0.0695 0.1101,0 0.2432,-0.0753 0.139,-0.0753 0.3012,-0.26059 l 0.1216,0.22006 q -0.1737,0.22585 -0.3938,0.39379 -0.2201,0.16794 -0.4864,0.25481 -0.2664,0.0927 -0.5734,0.0927 -0.2084,0 -0.3648,-0.0695 -0.1506,-0.0695 -0.2316,-0.22585 -0.081,-0.16215 -0.081,-0.42275 0,-0.0579 0.012,-0.15057 0.012,-0.0984 0.029,-0.22585 0.017,-0.1274 0.035,-0.26059 l 1.1234,-7.63261 -0.7876,-0.17952 0.029,-0.16794 1.9111,-0.25481 0.1505,0.12741 z m 3.952,0.9671 q -0.3591,0 -0.6023,-0.15056 -0.2374,-0.15057 -0.3591,-0.41117 -0.1216,-0.2606 -0.1216,-0.60227 0,-0.14477 0.029,-0.42854 0.035,-0.28955 0.081,-0.61964 0.046,-0.33588 0.087,-0.61964 0.046,-0.28955 0.07,-0.42275 l 0.3359,-2.12531 -0.6833,-0.21427 0.023,-0.16794 1.7547,-0.31851 0.2027,0.15636 -0.3764,2.59439 q -0.029,0.1911 -0.075,0.48066 -0.041,0.28376 -0.081,0.58489 -0.035,0.29535 -0.064,0.53857 -0.023,0.23743 -0.023,0.33588 0,0.19111 0.04,0.33009 0.041,0.1332 0.1332,0.20269 0.098,0.0637 0.2606,0.0637 0.3069,0 0.6428,-0.30114 0.3359,-0.30113 0.6486,-0.81074 0.3127,-0.51541 0.5386,-1.14084 l 0.4459,-2.90711 h 1.2335 l -0.7297,4.91081 q -0.023,0.19111 0.023,0.30693 0.046,0.11003 0.1679,0.11003 0.1158,0 0.2606,-0.0811 0.1506,-0.0869 0.2895,-0.2548 l 0.1159,0.22006 q -0.1274,0.1911 -0.3417,0.35904 -0.2085,0.16794 -0.4749,0.27218 -0.2664,0.10424 -0.5675,0.10424 -0.417,0 -0.5733,-0.20848 -0.1564,-0.20847 -0.1564,-0.46907 0,-0.0579 0.023,-0.24322 0.023,-0.18532 0.058,-0.43433 0.041,-0.25481 0.081,-0.50962 0.04,-0.2548 0.069,-0.44012 h -0.017 q -0.1911,0.46908 -0.4343,0.88603 -0.2433,0.41696 -0.5386,0.74126 -0.2953,0.31851 -0.6428,0.50382 -0.3475,0.17952 -0.7528,0.17952 z m 7.9931,-4.72549 q 0.1795,-0.41696 0.4806,-0.72968 0.3012,-0.3185 0.6776,-0.49803 0.3764,-0.17952 0.7586,-0.17952 0.5444,0 0.9266,0.24323 0.388,0.24322 0.5965,0.72388 0.2084,0.48065 0.2084,1.18137 0,0.5849 -0.1563,1.15821 -0.1506,0.57331 -0.4517,1.08293 -0.2954,0.50382 -0.7355,0.89761 -0.4343,0.388 -1.0018,0.61385 -0.5676,0.22006 -1.2509,0.22006 -0.3417,0 -0.666,-0.0753 -0.3243,-0.0695 -0.5849,-0.17953 l -0.7123,0.22006 1.3088,-8.94717 -0.7412,-0.17952 0.029,-0.16794 1.8705,-0.25481 0.1506,0.12741 z m -0.5965,4.04215 q 0.058,0.16215 0.2259,0.28376 0.1737,0.11582 0.4517,0.11582 0.4401,0 0.7933,-0.23743 0.3591,-0.24323 0.6197,-0.64281 0.2664,-0.40537 0.4459,-0.90919 0.1795,-0.50962 0.2664,-1.04818 0.087,-0.54436 0.087,-1.05397 0,-0.70651 -0.1911,-1.07714 -0.1853,-0.37642 -0.5964,-0.37642 -0.3012,0 -0.6371,0.23164 -0.33,0.23165 -0.5964,0.61386 -0.2664,0.37641 -0.3765,0.82812 z m 5.2678,0.55015 0.029,-0.21427 0.8107,-0.18531 1.0714,-7.80634 -0.7471,-0.1911 0.029,-0.20848 h 2.9766 l -0.029,0.20848 -0.8223,0.1911 -0.4923,3.58466 h 3.4631 l 0.4922,-3.58466 -0.7586,-0.1911 0.029,-0.20848 h 2.9476 l -0.023,0.20848 -0.7818,0.1911 -1.0713,7.80634 0.7586,0.18531 -0.029,0.21427 h -2.9998 l 0.029,-0.21427 0.8281,-0.18531 0.527,-3.83947 h -3.4631 l -0.527,3.83947 0.8224,0.18531 -0.035,0.21427 z m 11.1202,0.13319 q -0.359,0 -0.6022,-0.15056 -0.2375,-0.15057 -0.3591,-0.41117 -0.1216,-0.2606 -0.1216,-0.60227 0,-0.14477 0.029,-0.42854 0.035,-0.28955 0.081,-0.61964 0.046,-0.33588 0.087,-0.61964 0.046,-0.28955 0.07,-0.42275 l 0.3359,-2.12531 -0.6834,-0.21427 0.023,-0.16794 1.7547,-0.31851 0.2027,0.15636 -0.3764,2.59439 q -0.029,0.1911 -0.075,0.48066 -0.041,0.28376 -0.081,0.58489 -0.035,0.29535 -0.064,0.53857 -0.023,0.23743 -0.023,0.33588 0,0.19111 0.041,0.33009 0.04,0.1332 0.1332,0.20269 0.098,0.0637 0.2606,0.0637 0.3069,0 0.6428,-0.30114 0.3359,-0.30113 0.6486,-0.81074 0.3127,-0.51541 0.5385,-1.14084 l 0.4459,-2.90711 h 1.2335 l -0.7296,4.91081 q -0.023,0.19111 0.023,0.30693 0.046,0.11003 0.168,0.11003 0.1158,0 0.2606,-0.0811 0.1505,-0.0869 0.2895,-0.2548 l 0.1158,0.22006 q -0.1274,0.1911 -0.3416,0.35904 -0.2085,0.16794 -0.4749,0.27218 -0.2664,0.10424 -0.5675,0.10424 -0.417,0 -0.5733,-0.20848 -0.1564,-0.20847 -0.1564,-0.46907 0,-0.0579 0.023,-0.24322 0.023,-0.18532 0.058,-0.43433 0.041,-0.25481 0.081,-0.50962 0.041,-0.2548 0.07,-0.44012 h -0.017 q -0.1911,0.46908 -0.4344,0.88603 -0.2432,0.41696 -0.5385,0.74126 -0.2954,0.31851 -0.6428,0.50382 -0.3475,0.17952 -0.7529,0.17952 z m 7.9932,-4.72549 q 0.1795,-0.41696 0.4806,-0.72968 0.3012,-0.3185 0.6776,-0.49803 0.3764,-0.17952 0.7586,-0.17952 0.5444,0 0.9266,0.24323 0.388,0.24322 0.5964,0.72388 0.2085,0.48065 0.2085,1.18137 0,0.5849 -0.1563,1.15821 -0.1506,0.57331 -0.4517,1.08293 -0.2954,0.50382 -0.7355,0.89761 -0.4343,0.388 -1.0018,0.61385 -0.5676,0.22006 -1.2509,0.22006 -0.3417,0 -0.666,-0.0753 -0.3243,-0.0695 -0.5849,-0.17953 l -0.7123,0.22006 1.3088,-8.94717 -0.7413,-0.17952 0.029,-0.16794 1.8705,-0.25481 0.1506,0.12741 z m -0.5965,4.04215 q 0.058,0.16215 0.2258,0.28376 0.1738,0.11582 0.4517,0.11582 0.4402,0 0.7934,-0.23743 0.3591,-0.24323 0.6197,-0.64281 0.2663,-0.40537 0.4459,-0.90919 0.1795,-0.50962 0.2664,-1.04818 0.087,-0.54436 0.087,-1.05397 0,-0.70651 -0.1911,-1.07714 -0.1853,-0.37642 -0.5965,-0.37642 -0.3011,0 -0.637,0.23164 -0.3301,0.23165 -0.5965,0.61386 -0.2663,0.37641 -0.3764,0.82812 z"
       id="text36"
       aria-label="ClubHub" /><path
       style="font-style:italic;font-size:90.4402px;line-height:0;font-family:Merriweather;-inkscape-font-specification:'Merriweather, @opsz=144,wght=600';font-variation-settings:'opsz' 144, 'wght' 600;letter-spacing:11.1511px;direction:rtl;fill:#edb381;stroke-width:0.915581;stroke-linecap:square;paint-order:stroke fill markers"
       d="m 1368.4845,83.782782 q -7.2352,0 -12.0286,-2.396665 -4.7481,-2.441886 -7.5517,-6.511695 -2.8037,-4.069809 -3.9794,-9.08924 -1.1757,-5.019431 -1.1757,-10.174523 0,-8.320498 2.3514,-15.646154 2.3967,-7.370877 6.8735,-13.023389 4.4768,-5.652513 10.8528,-8.86314 6.4213,-3.210627 14.4252,-3.210627 5.1099,0 8.5466,0.633081 3.482,0.587862 5.9691,1.220943 2.5323,0.633081 4.7481,0.723522 l -2.9393,18.40458 h -7.2804 l -0.6783,-16.053135 q -0.8592,-0.723522 -2.1254,-1.220943 -1.2662,-0.542641 -2.9845,-0.859182 -1.7184,-0.316541 -3.8889,-0.316541 -5.0647,0 -8.9084,3.301068 -3.8437,3.301067 -6.4665,8.95358 -2.6227,5.607292 -3.9341,12.616408 -1.3114,6.963895 -1.3114,14.289551 0,4.11503 0.6331,8.456159 0.6331,4.34113 2.1705,8.049178 1.5827,3.662828 4.3412,5.923833 2.7584,2.261005 6.9186,2.261005 1.8993,0 4.0698,-0.633081 2.1706,-0.633082 3.9794,-1.763584 1.8088,-1.130503 2.5776,-2.622766 0.4069,-0.904402 0.9948,-2.532326 0.6331,-1.673143 1.2662,-3.572387 0.6331,-1.944465 1.1757,-3.753269 0.5879,-1.808804 0.9044,-3.074967 h 6.1951 l -2.8488,16.686217 q -1.4018,0.180881 -3.2106,0.768742 -1.8088,0.587861 -4.2507,1.311383 -2.4419,0.723522 -5.743,1.220943 -3.3011,0.497421 -7.6874,0.497421 z m 36.2089,-0.904402 0.2261,-1.673144 6.1499,-1.492263 8.3657,-60.866255 -5.6525,-1.537484 0.2261,-1.627923 h 24.8711 l -0.2262,1.627923 -6.5116,1.537484 -4.7482,34.231616 31.6541,-34.412497 -7.0091,-1.401823 0.2261,-1.582703 h 18.6759 l -0.2713,1.582703 -6.15,1.401823 -22.2935,23.152692 q 0.9044,1.763584 1.9445,3.888928 1.0401,2.125345 2.2158,4.52201 1.2209,2.396666 2.4871,4.974211 1.2662,2.532326 2.5323,5.155092 1.6732,3.346287 3.2106,6.602134 1.5375,3.210628 2.9394,5.923834 1.447,2.667986 2.6679,4.52201 1.2662,1.808804 2.261,2.441885 l 4.296,1.311383 -0.2714,1.718364 h -15.9627 q -0.9496,-0.04522 -1.854,-0.994842 -0.9044,-0.994843 -1.854,-2.667986 -0.9044,-1.673144 -1.8993,-3.753269 -0.9948,-2.125344 -2.1253,-4.386349 -0.9948,-1.989685 -2.2158,-4.748111 -1.2209,-2.803646 -2.4419,-5.788173 -1.2209,-2.984526 -2.3514,-5.652512 -1.1305,-2.667986 -1.9445,-4.52201 l -7.0543,7.416096 -3.0298,21.931749 6.3309,1.492263 -0.3166,1.673144 z"
       id="text37"
       aria-label="CK" /></g></svg>
