<?xml version="1.0" encoding="UTF-8" standalone="no"?>
<!-- Created with Inkscape (http://www.inkscape.org/) -->

<svg
   width="474.60068mm"
   height="152.75204mm"
   viewBox="0 0 474.60068 152.75204"
   version="1.1"
   id="svg1"
   xml:space="preserve"
   xmlns="http://www.w3.org/2000/svg"
   xmlns:svg="http://www.w3.org/2000/svg"><defs
     id="defs1" /><g
     id="layer3"
     transform="translate(-557.52051,-1400.3946)"><g
       id="rect111"><path
         style="fill:#edb381;stroke-linecap:square;stroke-linejoin:bevel;paint-order:stroke fill markers"
         d="m 568.59766,1400.3945 -10.81836,10.8184 v 131.1152 l 10.81836,10.8184 H 710.0332 l 10.81836,-10.8184 v -131.1152 l -10.81836,-10.8184 z m 10.81836,21.6368 h 119.79882 v 109.4785 H 579.41602 Z"
         id="path133" /><path
         style="fill:#edb381;stroke-linecap:square;stroke-linejoin:bevel;paint-order:stroke fill markers"
         d="m 568.59729,1411.2128 h 141.4355 v 131.115 h -141.4355 z"
         id="path134" /></g><path
       id="path118"
       style="display:inline;fill:#181c30;fill-opacity:1;stroke:none;stroke-width:0.499999;stroke-linecap:square;paint-order:stroke fill markers"
       d="m 561.94726,-43.323583 c -0.32474,-0.0051 -0.65109,0.0821 -0.93756,0.262456 l -15.4416,9.720566 c -0.58648,0.36944 -0.94221,1.014116 -0.94205,1.707257 v 11.136923 c 7e-5,0.716963 -0.26629,1.408371 -0.74736,1.939976 l -14.24275,15.7402461 c -0.47588,0.525715 -1.15193,0.8255952 -1.86104,0.825508 h -17.26294 c -0.6151,-4.63e-5 -1.11371,-0.4987187 -1.11367,-1.1138217 V -35.278598 c 4e-5,-0.615107 -0.49857,-1.11378 -1.11368,-1.113821 h -29.30716 c -0.61511,-2.26e-4 -1.11369,0.498709 -1.11303,1.113821 l 0.0173,22.543415 -0.97983,0.0039 A 17.136522,17.136522 0 0 0 459.83043,4.4059047 l 0.004,93.6709143 A 17.071088,17.071088 0 0 0 476.907,115.14744 l 166.19707,-0.0149 h 2.62377 l 385.45736,-6.5e-4 c 9.8753,-1e-5 17.2623,-7.98242 16.7416,-17.843772 -1.5933,-30.176608 -1.5406,-60.827863 0.039,-91.9196994 0.5012,-9.862424 -6.9349,-17.8510166 -16.8102,-17.8541146 l -385.42786,-0.120885 v -22.592544 c -0.18534,-0.374784 -0.56497,-0.614192 -0.98304,-0.619939 h -28.3523 c -0.61583,-2.07e-4 -1.11569,0.497993 -1.11752,1.113822 l -0.0954,31.3964534 c -0.002,0.615327 -0.50155,1.113031 -1.11688,1.1131752 h -17.66255 c -0.70976,1.302e-4 -1.38709,-0.2971766 -1.86744,-0.81969 L 579.71933,-19.135618 c -0.48478,-0.527465 -0.7538,-1.217755 -0.75377,-1.934158 v -10.003708 c 6e-5,-0.696333 -0.34607,-1.347134 -0.92347,-1.736347 l -15.16623,-10.222206 c -0.2807,-0.189195 -0.60385,-0.286484 -0.9286,-0.291546 z"
       transform="matrix(0.80692525,0,0,0.79939632,186.47171,1444.881)" /><path
       id="path120"
       style="display:none;fill:#edb381;fill-opacity:1;stroke:none;stroke-width:0.151499;stroke-linecap:square;paint-order:stroke fill markers"
       d="m 1022.4611,1524.3447 v 0.01 l 10e-4,5e-4 c -0.099,0.012 -0.197,0.032 -0.2822,0.089 l -4.5899,3.1021 c -0.1743,0.1179 -0.2754,0.3163 -0.2676,0.5251 l 0.1235,3.3564 c 0.01,0.2161 -0.065,0.4276 -0.2057,0.5932 l -4.1538,4.8974 h 5.4731 c 4.2455,0 7.8811,-1.8447 10.3255,-4.7295 l -0.7509,-0.7513 c -0.1533,-0.1537 -0.2427,-0.3588 -0.2506,-0.5747 l -0.1111,-3.0148 c -0.01,-0.2098 -0.1203,-0.4025 -0.3003,-0.5131 l -4.7268,-2.911 c -0.087,-0.054 -0.1869,-0.079 -0.2858,-0.078 z m -41.33081,1.5441 c -0.17499,-0.1075 -0.3976,-0.1024 -0.56792,0.011 l -4.5899,3.1026 c -0.17431,0.1179 -0.27543,0.3156 -0.26768,0.5245 l 0.1235,3.3569 c 0.008,0.2161 -0.0652,0.4273 -0.20567,0.5928 l -2.91713,3.4401 h 17.8232 l -4.00958,-4.0148 c -0.15332,-0.1534 -0.24269,-0.3586 -0.25063,-0.5746 l -0.1111,-3.0148 c -0.008,-0.2099 -0.12026,-0.4016 -0.30024,-0.5126 z m 25.08531,1.1539 -8.91575,0.3287 c -0.18723,0 -0.33311,0.1624 -0.32608,0.3478 l 0.34262,9.1979 h 9.60201 l -0.3519,-9.5509 c -0.01,-0.1854 -0.1638,-0.3304 -0.3509,-0.3235 z m -67.06569,0.3029 c -0.0989,0.012 -0.19696,0.033 -0.28215,0.089 l -4.5899,3.1022 c -0.17431,0.1178 -0.27543,0.3165 -0.26769,0.5255 l 0.12351,3.3559 c 0.008,0.216 -0.0653,0.4277 -0.20567,0.5932 l -1.61644,1.9059 h 14.98926 l -2.47685,-2.4805 c -0.15333,-0.1535 -0.24269,-0.3588 -0.25063,-0.5746 l -0.1111,-3.0148 c -0.008,-0.2099 -0.12026,-0.4023 -0.30024,-0.5132 l -4.72736,-2.9109 c -0.0871,-0.054 -0.1862,-0.078 -0.28474,-0.077 z m 25.44651,1.1549 -8.91574,0.3287 c -0.18721,0 -0.3331,0.1625 -0.32607,0.3478 l 0.28887,7.7401 h 9.60251 l -0.29817,-8.0931 c -0.006,-0.1853 -0.16427,-0.3304 -0.3514,-0.3235 z m -66.61712,0.4455 c -0.17499,-0.1074 -0.39762,-0.1028 -0.56793,0.011 l -4.58938,3.1027 c -0.17431,0.1178 -0.27542,0.3161 -0.26768,0.525 l 0.1235,3.3564 c 0.008,0.2161 -0.0658,0.4278 -0.20619,0.5933 l -0.32504,0.3829 h 12.17858 l -0.95653,-0.9576 c -0.15332,-0.1537 -0.24269,-0.3589 -0.25063,-0.5746 l -0.1111,-3.0154 c -0.008,-0.2099 -0.12027,-0.4017 -0.30024,-0.5126 z m 24.92302,1.0836 -8.91573,0.3282 c -0.18719,0 -0.33363,0.163 -0.3266,0.3483 l 0.23203,6.211 h 9.61957 l -0.24081,-6.5366 c -0.004,-0.01 -0.0129,-0.011 -0.0176,-0.017 v -0.01 c -0.006,-0.1853 -0.16378,-0.3299 -0.35089,-0.323 z m -66.90444,0.3721 -5.2e-4,0.01 c -0.0987,0.012 -0.19661,0.033 -0.28163,0.089 l -4.5899,3.1016 c -0.17432,0.1179 -0.27543,0.3168 -0.26769,0.5256 l 0.10284,2.7905 h 10.46138 l -0.11111,-3.0138 c -0.008,-0.2098 -0.12025,-0.4025 -0.30024,-0.5131 l -4.72736,-2.911 c -0.0874,-0.054 -0.18687,-0.079 -0.28577,-0.078 z m 25.44754,1.1555 -8.91522,0.3287 c -0.18715,0 -0.33363,0.1622 -0.32659,0.3477 l 0.17518,4.6835 h 9.60303 l -0.18551,-5.0364 c -0.006,-0.1854 -0.16377,-0.3303 -0.35089,-0.3235 z m -41.69513,1.5425 -8.91625,0.3282 c -0.18723,0 -0.33259,0.1629 -0.32556,0.3483 l 0.11731,3.1414 h 9.60406 l -0.12867,-3.4944 c -0.006,-0.1854 -0.16377,-0.3304 -0.35089,-0.3235 z" /><path
       style="font-style:italic;font-size:73.0542px;line-height:0;font-family:Merriweather;-inkscape-font-specification:'Merriweather, @opsz=144,wght=600';font-variation-settings:'opsz' 144, 'wght' 600;letter-spacing:9.00749px;direction:rtl;fill:#edb381;stroke-width:0.739573;stroke-linecap:square;paint-order:stroke fill markers"
       d="m 608.7863,1516.7485 q -5.84433,0 -9.71621,-1.9359 -3.83534,-1.9725 -6.10002,-5.26 -2.26468,-3.2874 -3.21439,-7.3419 -0.9497,-4.0545 -0.9497,-8.2186 0,-6.721 1.89941,-12.6384 1.93593,-5.9539 5.55212,-10.5198 3.61618,-4.5659 8.7665,-7.1593 5.18685,-2.5934 11.65215,-2.5934 4.12756,0 6.90362,0.5114 2.81258,0.4748 4.82157,0.9862 2.04552,0.5114 3.83535,0.5844 l -2.37426,14.8666 h -5.88087 l -0.5479,-12.9672 q -0.69402,-0.5844 -1.71678,-0.9862 -1.02275,-0.4383 -2.41078,-0.694 -1.38803,-0.2557 -3.14133,-0.2557 -4.09104,0 -7.19584,2.6665 -3.10481,2.6665 -5.22338,7.2323 -2.11857,4.5294 -3.17786,10.1911 -1.05928,5.6252 -1.05928,11.5426 0,3.3239 0.51138,6.8305 0.51138,3.5066 1.7533,6.5019 1.27845,2.9587 3.5066,4.785 2.22815,1.8264 5.58865,1.8264 1.53413,0 3.28744,-0.5114 1.7533,-0.5114 3.21438,-1.4246 1.46108,-0.9131 2.08204,-2.1185 0.32875,-0.7306 0.8036,-2.0456 0.51138,-1.3515 1.02276,-2.8856 0.51138,-1.5707 0.9497,-3.0317 0.47486,-1.4611 0.73055,-2.4839 h 5.00421 l -2.30121,13.4785 q -1.13234,0.1461 -2.59342,0.621 -1.46109,0.4748 -3.43355,1.0593 -1.97246,0.5844 -4.63894,0.9862 -2.66648,0.4018 -6.20961,0.4018 z m 29.24821,-0.7306 0.18263,-1.3515 4.96769,-1.2054 6.75751,-49.1654 -4.56588,-1.242 0.18263,-1.3149 H 665.649 l -0.18264,1.3149 -5.2599,1.242 -3.83535,27.651 25.56897,-27.7971 -5.6617,-1.1324 0.18264,-1.2784 h 15.08569 l -0.21916,1.2784 -4.96769,1.1324 -18.00786,18.7018 q 0.73054,1.4246 1.57067,3.1414 0.84012,1.7167 1.78982,3.6527 0.98624,1.9359 2.00899,4.018 1.02276,2.0455 2.04552,4.164 1.3515,2.7031 2.59343,5.333 1.24192,2.5934 2.37426,4.7851 1.16886,2.1551 2.1551,3.6527 1.02276,1.461 1.82635,1.9724 l 3.47008,1.0593 -0.21917,1.388 h -12.89406 q -0.76707,-0.037 -1.49761,-0.8036 -0.73055,-0.8035 -1.49762,-2.1551 -0.73054,-1.3515 -1.53413,-3.0317 -0.8036,-1.7168 -1.71678,-3.5431 -0.80359,-1.6072 -1.78982,-3.8354 -0.98624,-2.2647 -1.97247,-4.6754 -0.98623,-2.4108 -1.89941,-4.5659 -0.91317,-2.1551 -1.57066,-3.6527 l -5.69823,5.9904 -2.44732,17.7156 5.1138,1.2054 -0.25569,1.3515 z"
       id="text120"
       aria-label="CK" /><path
       style="font-style:italic;font-size:73.0542px;line-height:0;font-family:Merriweather;-inkscape-font-specification:'Merriweather, @opsz=144,wght=500';font-variation-settings:'opsz' 144, 'wght' 500;letter-spacing:9.00749px;direction:rtl;fill:#ffffff;stroke-width:0.739573;stroke-linecap:square;paint-order:stroke fill markers"
       d="m 722.42304,1516.712 q -5.80781,0 -9.67968,-1.9725 -3.87187,-1.9725 -6.13655,-5.2599 -2.22816,-3.2874 -3.21439,-7.342 -0.9497,-4.091 -0.9497,-8.2551 0,-6.9036 1.97246,-12.8575 2.00899,-5.9539 5.6617,-10.4102 3.68924,-4.4929 8.7665,-7.0132 5.07727,-2.5204 11.21382,-2.5204 3.94493,0 6.68446,0.5114 2.73953,0.4748 4.712,1.0227 2.00899,0.5114 3.65271,0.621 l -2.33774,14.2821 h -4.8581 l -0.47485,-12.2731 q -0.73054,-0.5114 -1.82636,-0.9863 -1.05928,-0.5113 -2.55689,-0.8036 -1.49762,-0.3287 -3.54313,-0.3287 -4.38326,0 -7.70722,2.703 -3.32397,2.6665 -5.58865,7.1593 -2.22815,4.4929 -3.36049,10.045 -1.09581,5.5156 -1.09581,11.2138 0,3.5796 0.5479,7.2324 0.58444,3.6161 1.97247,6.6114 1.42455,2.9587 3.83534,4.785 2.44732,1.8264 6.10003,1.8264 1.57066,0 3.39702,-0.5479 1.86288,-0.5479 3.43354,-1.4611 1.57067,-0.9497 2.22816,-2.1551 0.32874,-0.8036 0.76707,-2.0455 0.43832,-1.2785 0.87665,-2.703 0.43832,-1.4611 0.84012,-2.8126 0.43833,-1.3515 0.69402,-2.3378 h 4.27367 l -2.08205,12.9672 q -1.09581,0.2191 -2.5569,0.7305 -1.46108,0.4749 -3.39702,1.0228 -1.93593,0.5479 -4.49283,0.9497 -2.52037,0.4018 -5.77128,0.4018 z m 39.45076,-5.954 q -0.0731,1.2054 0.32874,1.6803 0.43833,0.4383 1.09581,0.4383 0.69402,0 1.53414,-0.4748 0.87665,-0.4749 1.89941,-1.6438 l 0.76707,1.3881 q -1.09581,1.4245 -2.48384,2.4838 -1.38803,1.0593 -3.06828,1.6072 -1.68025,0.5844 -3.61618,0.5844 -1.31498,0 -2.30121,-0.4383 -0.9497,-0.4383 -1.46108,-1.4245 -0.51138,-1.0228 -0.51138,-2.6665 0,-0.3653 0.073,-0.9497 0.0731,-0.621 0.18264,-1.4246 0.10958,-0.8036 0.21916,-1.6437 l 7.08626,-48.1427 -4.96769,-1.1324 0.18264,-1.0592 12.05394,-1.6072 0.9497,0.8036 z m 25.59038,6.1001 q -2.26468,0 -3.79882,-0.9497 -1.49761,-0.9497 -2.26468,-2.5935 -0.76707,-1.6437 -0.76707,-3.7988 0,-0.9132 0.18264,-2.703 0.21916,-1.8263 0.51138,-3.9084 0.29221,-2.1186 0.5479,-3.9084 0.29222,-1.8263 0.43833,-2.6665 l 2.11857,-13.4054 -4.3102,-1.3515 0.14611,-1.0593 11.06771,-2.009 1.27845,0.9862 -2.37426,16.3642 q -0.18264,1.2054 -0.47485,3.0317 -0.25569,1.7899 -0.51138,3.6893 -0.21917,1.8629 -0.4018,3.397 -0.14611,1.4976 -0.14611,2.1186 0,1.2054 0.25569,2.082 0.25569,0.8401 0.84012,1.2785 0.62096,0.4018 1.64372,0.4018 1.93594,0 4.05451,-1.8995 2.11857,-1.8994 4.09104,-5.1137 1.97246,-3.251 3.39702,-7.1959 l 2.81258,-18.3366 h 7.78028 l -4.60242,30.975 q -0.14611,1.2054 0.14611,1.9359 0.29222,0.694 1.05928,0.694 0.73055,0 1.64372,-0.5113 0.94971,-0.5479 1.82636,-1.6072 l 0.73054,1.388 q -0.80359,1.2054 -2.1551,2.2647 -1.31497,1.0593 -2.99522,1.7168 -1.68025,0.6574 -3.57966,0.6574 -2.62995,0 -3.61618,-1.3149 -0.98623,-1.315 -0.98623,-2.9587 0,-0.3653 0.14611,-1.5342 0.14611,-1.1688 0.36527,-2.7395 0.25569,-1.6072 0.51138,-3.2144 0.25569,-1.6072 0.43832,-2.776 h -0.10958 q -1.20539,2.9586 -2.73953,5.5886 -1.53414,2.63 -3.39702,4.6755 -1.86288,2.009 -4.05451,3.1778 -2.19162,1.1324 -4.74852,1.1324 z m 51.07987,-29.8061 q 1.13234,-2.63 3.03175,-4.6025 1.89941,-2.009 4.27367,-3.1413 2.37426,-1.1323 4.78505,-1.1323 3.43355,0 5.84434,1.5341 2.44731,1.5341 3.76229,4.5659 1.31497,3.0317 1.31497,7.4515 0,3.6893 -0.98623,7.3054 -0.9497,3.6162 -2.84911,6.8306 -1.86288,3.1779 -4.63894,5.6617 -2.73954,2.4473 -6.31919,3.8719 -3.57966,1.388 -7.88985,1.388 -2.1551,0 -4.20062,-0.4748 -2.04552,-0.4384 -3.68924,-1.1324 l -4.49283,1.3881 8.25512,-56.4344 -4.67547,-1.1324 0.18264,-1.0592 11.79825,-1.6072 0.94971,0.8036 z m -3.76229,25.4959 q 0.36527,1.0227 1.42456,1.7898 1.09581,0.7305 2.84911,0.7305 2.77606,0 5.00421,-1.4976 2.26468,-1.5341 3.9084,-4.0545 1.68025,-2.5569 2.81259,-5.7347 1.13234,-3.2144 1.68025,-6.6114 0.5479,-3.4336 0.5479,-6.648 0,-4.4563 -1.20539,-6.794 -1.16887,-2.3743 -3.76229,-2.3743 -1.89941,0 -4.01798,1.4611 -2.08205,1.4611 -3.7623,3.8719 -1.68024,2.3742 -2.37426,5.2234 z m 33.8899,3.47 0.18263,-1.3515 5.1138,-1.1688 6.75751,-49.2386 -4.712,-1.2054 0.18264,-1.3149 h 18.77493 l -0.18264,1.3149 -5.18684,1.2054 -3.10481,22.6103 h 21.84321 l 3.1048,-22.6103 -4.78505,-1.2054 0.18264,-1.3149 h 18.59229 l -0.14611,1.3149 -4.93116,1.2054 -6.75751,49.2386 4.78505,1.1688 -0.18264,1.3515 h -18.92103 l 0.18263,-1.3515 5.22338,-1.1688 3.32396,-24.2175 h -21.8432 l -3.32397,24.2175 5.18685,1.1688 -0.21916,1.3515 z m 70.80407,0.8402 q -2.26468,0 -3.79882,-0.9497 -1.49761,-0.9497 -2.26468,-2.5935 -0.76707,-1.6437 -0.76707,-3.7988 0,-0.9132 0.18264,-2.703 0.21916,-1.8263 0.51138,-3.9084 0.29221,-2.1186 0.5479,-3.9084 0.29222,-1.8263 0.43833,-2.6665 l 2.11857,-13.4054 -4.3102,-1.3515 0.14611,-1.0593 11.06771,-2.009 1.27845,0.9862 -2.37426,16.3642 q -0.18264,1.2054 -0.47485,3.0317 -0.25569,1.7899 -0.51138,3.6893 -0.21916,1.8629 -0.4018,3.397 -0.14611,1.4976 -0.14611,2.1186 0,1.2054 0.25569,2.082 0.25569,0.8401 0.84012,1.2785 0.62096,0.4018 1.64372,0.4018 1.93594,0 4.05451,-1.8995 2.11857,-1.8994 4.09104,-5.1137 1.97246,-3.251 3.39702,-7.1959 l 2.81258,-18.3366 h 7.78028 l -4.60242,30.975 q -0.14611,1.2054 0.14611,1.9359 0.29222,0.694 1.05929,0.694 0.73054,0 1.64372,-0.5113 0.9497,-0.5479 1.82635,-1.6072 l 0.73054,1.388 q -0.80359,1.2054 -2.1551,2.2647 -1.31497,1.0593 -2.99522,1.7168 -1.68025,0.6574 -3.57965,0.6574 -2.62996,0 -3.61619,-1.3149 -0.98623,-1.315 -0.98623,-2.9587 0,-0.3653 0.14611,-1.5342 0.14611,-1.1688 0.36527,-2.7395 0.25569,-1.6072 0.51138,-3.2144 0.25569,-1.6072 0.43832,-2.776 h -0.10958 q -1.20539,2.9586 -2.73953,5.5886 -1.53414,2.63 -3.39702,4.6755 -1.86288,2.009 -4.05451,3.1778 -2.19162,1.1324 -4.74852,1.1324 z m 51.07989,-29.8061 q 1.13234,-2.63 3.03175,-4.6025 1.89941,-2.009 4.27367,-3.1413 2.37426,-1.1323 4.78506,-1.1323 3.4335,0 5.8443,1.5341 2.4473,1.5341 3.7623,4.5659 1.315,3.0317 1.315,7.4515 0,3.6893 -0.9862,7.3054 -0.9497,3.6162 -2.8492,6.8306 -1.8628,3.1779 -4.6389,5.6617 -2.7395,2.4473 -6.31919,3.8719 -3.57965,1.388 -7.88985,1.388 -2.1551,0 -4.20062,-0.4748 -2.04551,-0.4384 -3.68923,-1.1324 l -4.49284,1.3881 8.25513,-56.4344 -4.67547,-1.1324 0.18264,-1.0592 11.79825,-1.6072 0.9497,0.8036 z m -3.76229,25.4959 q 0.36527,1.0227 1.42455,1.7898 1.09582,0.7305 2.84912,0.7305 2.77606,0 5.00421,-1.4976 2.26468,-1.5341 3.9084,-4.0545 1.68029,-2.5569 2.81259,-5.7347 1.1323,-3.2144 1.6802,-6.6114 0.5479,-3.4336 0.5479,-6.648 0,-4.4563 -1.2053,-6.794 -1.1689,-2.3743 -3.7623,-2.3743 -1.89945,0 -4.01802,1.4611 -2.08204,1.4611 -3.76229,3.8719 -1.68025,2.3742 -2.37426,5.2234 z"
       id="text121"
       aria-label="ClubHub" /></g></svg>
