<?xml version="1.0" encoding="UTF-8" standalone="no"?>
<!-- Created with Inkscape (http://www.inkscape.org/) -->

<svg
   width="512.67023mm"
   height="126.68132mm"
   viewBox="0 0 512.67023 126.68132"
   version="1.1"
   id="svg1"
   xml:space="preserve"
   xmlns="http://www.w3.org/2000/svg"
   xmlns:svg="http://www.w3.org/2000/svg"><defs
     id="defs1" /><g
     id="layer3"
     transform="translate(-2211.1613,-360.99715)"><path
       id="path35"
       style="display:inline;fill:#edb381;fill-opacity:1;stroke:none;stroke-width:0.499999;stroke-linecap:square;paint-order:stroke fill markers"
       d="m 645.07142,115.1328 390.70438,-7.4e-4 a 17.876762,17.876762 134.99344 0 0 17.8767,-17.880821 l -0.021,-91.8507075 a 17.890404,17.890404 45.002377 0 0 -17.8849,-17.8863375 l -390.54434,-0.121156 z"
       transform="matrix(0.83439916,0,0,0.79939632,1844.4309,395.62997)" /><path
       id="path38"
       style="display:inline;fill:#edb381;fill-opacity:1;stroke:none;stroke-width:0.499999;stroke-linecap:square;paint-order:stroke fill markers"
       d="m 561.0097,-43.060901 -15.4416,9.720566 c -0.58648,0.36944 -0.94221,1.014116 -0.94205,1.707257 v 11.136923 c 7e-5,0.716963 -0.26629,1.408371 -0.74736,1.939976 l -14.24275,15.740246 c -0.47588,0.525715 -1.15193,0.8255951 -1.86104,0.8255079 h -17.26294 c -0.6151,-4.63e-5 -1.11371,-0.4987186 -1.11367,-1.1138216 l -0.79466,-32.1741253 c 4e-5,-0.615107 -0.49857,-1.11378 -1.11368,-1.113821 h -26.68726 c -0.61511,-2.26e-4 -1.11369,0.498709 -1.11303,1.113821 l -1.74396,22.543237 -17.43872,0.0338 A 18.146203,18.146203 134.94403 0 0 442.39594,5.445116 l 0.001,91.592493 a 18.110191,18.110191 44.997269 0 0 18.11163,18.109911 l 185.21811,-0.0148 -1.76126,-150.331619 c -0.18534,-0.374784 -0.56497,-0.614192 -0.98304,-0.619939 h -25.17296 c -0.61583,-2.07e-4 -1.11569,0.497992 -1.11752,1.113821 l -1.51276,31.3964542 c -0.002,0.615327 -0.50155,1.113031 -1.11688,1.1131752 h -17.66255 c -0.70976,1.302e-4 -1.38709,-0.2971765 -1.86744,-0.8196899 L 579.71933,-19.135392 c -0.48478,-0.527465 -0.7538,-1.217755 -0.75377,-1.934158 v -10.003709 c 6e-5,-0.696333 -0.34607,-1.347133 -0.92347,-1.736346 l -15.16623,-10.222207 c -0.56141,-0.378389 -1.29323,-0.389797 -1.86616,-0.02909 z"
       transform="matrix(0.90134154,0,0,0.79939632,1812.4117,395.62997)" /><path
       style="font-style:italic;font-size:73.0542px;line-height:0;font-family:Merriweather;-inkscape-font-specification:'Merriweather, @opsz=144,wght=600';font-variation-settings:'opsz' 144, 'wght' 600;letter-spacing:9.00749px;direction:rtl;fill:#181c30;stroke-width:0.739573;stroke-linecap:square;paint-order:stroke fill markers"
       d="m 2288.8299,467.49748 q -5.8443,0 -9.7162,-1.93594 -3.8353,-1.97246 -6.1,-5.2599 -2.2647,-3.28744 -3.2144,-7.34195 -0.9497,-4.0545 -0.9497,-8.21859 0,-6.72099 1.8994,-12.63838 1.936,-5.95392 5.5521,-10.5198 3.6162,-4.56589 8.7666,-7.15932 5.1868,-2.59342 11.6521,-2.59342 4.1276,0 6.9036,0.51138 2.8126,0.47485 4.8216,0.98623 2.0455,0.51138 3.8353,0.58443 l -2.3742,14.86653 h -5.8809 l -0.5479,-12.96712 q -0.694,-0.58443 -1.7168,-0.98623 -1.0227,-0.43832 -2.4108,-0.69401 -1.388,-0.25569 -3.1413,-0.25569 -4.091,0 -7.1958,2.66648 -3.1048,2.66647 -5.2234,7.23236 -2.1186,4.52936 -3.1779,10.19106 -1.0592,5.62518 -1.0592,11.54257 0,3.32396 0.5113,6.83056 0.5114,3.5066 1.7533,6.50183 1.2785,2.95869 3.5066,4.78505 2.2282,1.82635 5.5887,1.82635 1.5341,0 3.2874,-0.51138 1.7533,-0.51138 3.2144,-1.42455 1.4611,-0.91318 2.0821,-2.11858 0.3287,-0.73054 0.8036,-2.04551 0.5113,-1.35151 1.0227,-2.88564 0.5114,-1.57067 0.9497,-3.03175 0.4749,-1.46109 0.7306,-2.48385 h 5.0042 l -2.3012,13.4785 q -1.1324,0.14611 -2.5935,0.62096 -1.461,0.47486 -3.4335,1.05929 -1.9725,0.58443 -4.639,0.98623 -2.6664,0.4018 -6.2096,0.4018 z m 29.2482,-0.73054 0.1827,-1.35151 4.9677,-1.20539 6.7575,-49.16548 -4.5659,-1.24192 0.1826,-1.31497 h 20.0899 l -0.1826,1.31497 -5.2599,1.24192 -3.8353,27.65102 25.5689,-27.79712 -5.6617,-1.13234 0.1827,-1.27845 h 15.0856 l -0.2191,1.27845 -4.9677,1.13234 -18.0079,18.70187 q 0.7306,1.42456 1.5707,3.14133 0.8401,1.71678 1.7898,3.65271 0.9863,1.93594 2.009,4.01798 1.0228,2.04552 2.0455,4.16409 1.3515,2.70301 2.5935,5.33296 1.2419,2.59342 2.3742,4.78505 1.1689,2.1551 2.1551,3.65271 1.0228,1.46108 1.8264,1.97246 l 3.4701,1.05929 -0.2192,1.38803 h -12.8941 q -0.767,-0.0365 -1.4976,-0.8036 -0.7305,-0.8036 -1.4976,-2.1551 -0.7305,-1.3515 -1.5341,-3.03175 -0.8036,-1.71677 -1.7168,-3.54313 -0.8036,-1.60719 -1.7898,-3.83534 -0.9863,-2.26468 -1.9725,-4.67547 -0.9862,-2.41079 -1.8994,-4.56589 -0.9132,-2.1551 -1.5707,-3.65271 l -5.6982,5.99045 -2.4473,17.71564 5.1138,1.20539 -0.2557,1.35151 z"
       id="text40"
       aria-label="CK" /><path
       style="color:#000000;font-style:italic;font-variant:normal;font-weight:normal;font-stretch:normal;font-size:73.0542px;line-height:0;font-family:Merriweather;-inkscape-font-specification:'Merriweather, @opsz=144,wght=500';font-variant-ligatures:normal;font-variant-position:normal;font-variant-caps:normal;font-variant-numeric:normal;font-variant-alternates:normal;font-variant-east-asian:normal;font-feature-settings:normal;font-variation-settings:'opsz' 144, 'wght' 500;text-indent:0;text-align:start;text-decoration-line:none;text-decoration-style:solid;text-decoration-color:#000000;letter-spacing:9.00749px;word-spacing:normal;text-transform:none;writing-mode:lr-tb;direction:rtl;text-orientation:mixed;dominant-baseline:auto;baseline-shift:baseline;text-anchor:start;white-space:normal;shape-padding:0;shape-margin:0;inline-size:0;clip-rule:nonzero;display:inline;overflow:visible;visibility:visible;isolation:auto;mix-blend-mode:normal;color-interpolation:sRGB;color-interpolation-filters:linearRGB;solid-color:#000000;solid-opacity:1;vector-effect:none;fill:#ffffff;fill-opacity:1;fill-rule:nonzero;stroke:none;stroke-linecap:square;stroke-linejoin:miter;stroke-miterlimit:4;stroke-dasharray:none;stroke-dashoffset:0;stroke-opacity:1;-inkscape-stroke:none;paint-order:stroke fill markers;color-rendering:auto;image-rendering:auto;shape-rendering:auto;text-rendering:auto;enable-background:accumulate;stop-color:#000000;stop-opacity:1"
       d="m 2409.3303,467.46095 c -3.8719,0 -7.0984,-0.65749 -9.6797,-1.97246 -2.5813,-1.31497 -4.6268,-3.06827 -6.1366,-5.2599 -1.4854,-2.19163 -2.5569,-4.63894 -3.2144,-7.34195 -0.6331,-2.72736 -0.9497,-5.47907 -0.9497,-8.25513 0,-4.60241 0.6575,-8.88826 1.9725,-12.85753 1.3393,-3.96928 3.2266,-7.43936 5.6617,-10.41023 2.4595,-2.99522 5.3816,-5.33295 8.7665,-7.0132 3.3849,-1.68025 7.1228,-2.52037 11.2138,-2.52037 2.63,0 4.8582,0.17046 6.6845,0.51138 1.8263,0.31657 3.397,0.65749 4.712,1.02276 1.3393,0.34092 2.5569,0.54791 3.6527,0.62096 l -2.3377,14.28209 h -4.8581 l -0.4749,-12.2731 c -0.487,-0.34092 -1.0958,-0.66966 -1.8264,-0.98623 -0.7061,-0.34092 -1.5584,-0.60879 -2.5568,-0.8036 -0.9985,-0.21916 -2.1795,-0.32874 -3.5432,-0.32874 -2.9221,0 -5.4912,0.901 -7.7072,2.703 -2.216,1.77765 -4.0789,4.16409 -5.5886,7.15931 -1.4855,2.99523 -2.6056,6.34355 -3.3605,10.04496 -0.7305,3.67706 -1.0958,7.415 -1.0958,11.21382 0,2.38643 0.1826,4.79722 0.5479,7.23236 0.3896,2.41079 1.0471,4.61459 1.9724,6.61141 0.9497,1.97246 2.2282,3.56748 3.8354,4.78505 1.6315,1.21757 3.6649,1.82635 6.1,1.82635 1.0471,0 2.1795,-0.18263 3.397,-0.5479 1.2419,-0.36527 2.3865,-0.8523 3.4336,-1.46109 1.0471,-0.63313 1.7898,-1.3515 2.2281,-2.1551 0.2192,-0.53573 0.4749,-1.21757 0.7671,-2.04552 0.2922,-0.85229 0.5844,-1.75329 0.8766,-2.703 0.2923,-0.97405 0.5723,-1.91158 0.8402,-2.81259 0.2922,-0.901 0.5235,-1.68024 0.694,-2.33773 h 4.2736 l -2.082,12.96712 c -0.7305,0.14611 -1.5828,0.38962 -2.5569,0.73054 -0.9741,0.31657 -2.1064,0.65749 -3.397,1.02276 -1.2907,0.36527 -2.7883,0.68184 -4.4929,0.9497 -1.6802,0.26787 -3.6039,0.4018 -5.7712,0.4018 z m 39.4507,-5.95392 c -0.049,0.8036 0.061,1.36368 0.3288,1.68025 0.2922,0.29222 0.6575,0.43833 1.0958,0.43833 0.4627,0 0.974,-0.15829 1.5341,-0.47486 0.5845,-0.31657 1.2176,-0.86447 1.8994,-1.64372 l 0.7671,1.38803 c -0.7305,0.94971 -1.5585,1.77766 -2.4838,2.48385 -0.9254,0.70619 -1.9482,1.24192 -3.0683,1.60719 -1.1202,0.38962 -2.3256,0.58443 -3.6162,0.58443 -0.8767,0 -1.6437,-0.14611 -2.3012,-0.43832 -0.6331,-0.29222 -1.1202,-0.76707 -1.4611,-1.42456 -0.3409,-0.68184 -0.5114,-1.57067 -0.5114,-2.66648 0,-0.24351 0.024,-0.56008 0.073,-0.9497 0.049,-0.41397 0.1095,-0.88883 0.1826,-1.42456 0.073,-0.53573 0.1461,-1.08363 0.2192,-1.64372 l 7.0862,-48.14272 -4.9677,-1.13234 0.1827,-1.05928 12.0539,-1.60719 0.9497,0.80359 z m 25.5904,6.10003 c -1.5098,0 -2.7761,-0.31657 -3.7988,-0.9497 -0.9984,-0.63314 -1.7533,-1.49762 -2.2647,-2.59343 -0.5114,-1.09581 -0.7671,-2.36209 -0.7671,-3.79882 0,-0.60878 0.061,-1.50978 0.1827,-2.703 0.1461,-1.21757 0.3165,-2.52037 0.5114,-3.9084 0.1948,-1.41238 0.3774,-2.71518 0.5479,-3.9084 0.1948,-1.21757 0.3409,-2.1064 0.4383,-2.66648 l 2.1186,-13.40544 -4.3102,-1.35151 0.1461,-1.05928 11.0677,-2.00899 1.2784,0.98623 -2.3742,16.36414 c -0.1218,0.80359 -0.2801,1.81418 -0.4749,3.03175 -0.1705,1.19322 -0.3409,2.42296 -0.5114,3.68923 -0.1461,1.24193 -0.28,2.37427 -0.4018,3.39702 -0.097,0.99841 -0.1461,1.70461 -0.1461,2.11858 0,0.80359 0.085,1.49761 0.2557,2.08204 0.1705,0.56008 0.4505,0.98623 0.8401,1.27845 0.414,0.26787 0.9619,0.4018 1.6438,0.4018 1.2906,0 2.6421,-0.63314 4.0545,-1.89941 1.4123,-1.26627 2.776,-2.97087 4.091,-5.1138 1.315,-2.16727 2.4473,-4.56588 3.397,-7.19583 l 2.8126,-18.33661 h 7.7803 l -4.6024,30.97498 c -0.097,0.8036 -0.049,1.44891 0.1461,1.93594 0.1948,0.46267 0.5479,0.69401 1.0593,0.69401 0.487,0 1.0349,-0.17046 1.6437,-0.51138 0.6331,-0.36527 1.2419,-0.901 1.8263,-1.60719 l 0.7306,1.38803 c -0.5357,0.8036 -1.2541,1.55849 -2.1551,2.26468 -0.8767,0.70619 -1.8751,1.27845 -2.9952,1.71678 -1.1202,0.43832 -2.3134,0.65748 -3.5797,0.65748 -1.7533,0 -2.9587,-0.43832 -3.6162,-1.31497 -0.6575,-0.87665 -0.9862,-1.86289 -0.9862,-2.9587 0,-0.24351 0.049,-0.75489 0.1461,-1.53414 0.097,-0.77924 0.2192,-1.69242 0.3653,-2.73953 0.1705,-1.07146 0.3409,-2.14292 0.5113,-3.21438 0.1705,-1.07147 0.3166,-1.99682 0.4384,-2.77606 h -0.1096 c -0.8036,1.97246 -1.7168,3.83534 -2.7395,5.58864 -1.0228,1.75331 -2.1552,3.3118 -3.3971,4.67547 -1.2419,1.33933 -2.5934,2.39861 -4.0545,3.17786 -1.4611,0.75489 -3.0439,1.13234 -4.7485,1.13234 z m 51.0799,-29.80611 c 0.7549,-1.7533 1.7654,-3.28744 3.0317,-4.60242 1.2663,-1.33933 2.6908,-2.38644 4.2737,-3.14133 1.5829,-0.75489 3.1779,-1.13234 4.785,-1.13234 2.2891,0 4.2372,0.51138 5.8444,1.53414 1.6315,1.02276 2.8856,2.54472 3.7623,4.56589 0.8767,2.02117 1.315,4.50501 1.315,7.45153 0,2.45949 -0.3288,4.89463 -0.9863,7.30542 -0.6331,2.41079 -1.5828,4.68764 -2.8491,6.83056 -1.2419,2.11857 -2.7882,4.00581 -4.6389,5.6617 -1.8264,1.63155 -3.9328,2.92217 -6.3192,3.87188 -2.3865,0.92535 -5.0164,1.38803 -7.8899,1.38803 -1.4367,0 -2.8369,-0.15829 -4.2006,-0.47486 -1.3637,-0.29221 -2.5934,-0.66966 -3.6892,-1.13234 l -4.4929,1.38803 8.2552,-56.43437 -4.6755,-1.13234 0.1826,-1.05928 11.7983,-1.60719 0.9497,0.80359 z m -3.7623,25.49591 c 0.2435,0.68184 0.7184,1.27845 1.4245,1.78983 0.7306,0.48703 1.6803,0.73054 2.8492,0.73054 1.8507,0 3.5187,-0.4992 5.0042,-1.49761 1.5098,-1.02276 2.8126,-2.37426 3.9084,-4.05451 1.1201,-1.70459 2.0577,-3.61618 2.8126,-5.73475 0.7549,-2.14293 1.3149,-4.34673 1.6802,-6.61141 0.3653,-2.28903 0.5479,-4.505 0.5479,-6.64793 0,-2.97087 -0.4018,-5.23555 -1.2054,-6.79404 -0.7793,-1.58284 -2.0334,-2.37426 -3.7623,-2.37426 -1.2663,0 -2.6056,0.48703 -4.018,1.46108 -1.388,0.97406 -2.6421,2.26469 -3.7622,3.87188 -1.1202,1.58284 -1.9116,3.32396 -2.3743,5.22337 z m 33.8899,3.47008 0.1826,-1.35151 5.1138,-1.16886 6.7575,-49.23853 -4.712,-1.2054 0.1827,-1.31497 h 18.7749 l -0.1826,1.31497 -5.1869,1.2054 -3.1048,22.47798 h 21.8432 l 3.1048,-22.47798 -4.785,-1.2054 0.1826,-1.31497 h 18.5923 l -0.1461,1.31497 -4.9312,1.2054 -6.7575,49.23853 4.7851,1.16886 -0.1827,1.35151 h -18.921 l 0.1826,-1.35151 5.2234,-1.16886 3.1917,-23.6883 h -21.8432 l -3.1917,23.6883 5.1868,1.16886 -0.2191,1.35151 z m 70.8041,0.84012 c -1.5098,0 -2.7761,-0.31657 -3.7989,-0.9497 -0.9984,-0.63314 -1.7533,-1.49762 -2.2646,-2.59343 -0.5114,-1.09581 -0.7671,-2.36209 -0.7671,-3.79882 0,-0.60878 0.061,-1.50978 0.1826,-2.703 0.1461,-1.21757 0.3166,-2.52037 0.5114,-3.9084 0.1948,-1.41238 0.3774,-2.71518 0.5479,-3.9084 0.1948,-1.21757 0.3409,-2.1064 0.4383,-2.66648 l 2.1186,-13.40544 -4.3102,-1.35151 0.1461,-1.05928 11.0677,-2.00899 1.2785,0.98623 -2.3743,16.36414 c -0.1217,0.80359 -0.28,1.81418 -0.4748,3.03175 -0.1705,1.19322 -0.3409,2.42296 -0.5114,3.68923 -0.1461,1.24193 -0.2801,2.37427 -0.4018,3.39702 -0.097,0.99841 -0.1461,1.70461 -0.1461,2.11858 0,0.80359 0.085,1.49761 0.2557,2.08204 0.1705,0.56008 0.4505,0.98623 0.8401,1.27845 0.414,0.26787 0.9619,0.4018 1.6437,0.4018 1.2906,0 2.6421,-0.63314 4.0545,-1.89941 1.4124,-1.26627 2.7761,-2.97087 4.0911,-5.1138 1.3149,-2.16727 2.4473,-4.56588 3.397,-7.19583 l 2.8126,-18.33661 h 7.7802 l -4.6024,30.97498 c -0.097,0.8036 -0.049,1.44891 0.1461,1.93594 0.1948,0.46267 0.5479,0.69401 1.0593,0.69401 0.4871,0 1.035,-0.17046 1.6437,-0.51138 0.6331,-0.36527 1.2419,-0.901 1.8264,-1.60719 l 0.7305,1.38803 c -0.5357,0.8036 -1.2541,1.55849 -2.1551,2.26468 -0.8766,0.70619 -1.875,1.27845 -2.9952,1.71678 -1.1201,0.43832 -2.3133,0.65748 -3.5796,0.65748 -1.7533,0 -2.9587,-0.43832 -3.6162,-1.31497 -0.6575,-0.87665 -0.9863,-1.86289 -0.9863,-2.9587 0,-0.24351 0.049,-0.75489 0.1461,-1.53414 0.097,-0.77924 0.2192,-1.69242 0.3653,-2.73953 l 0.5114,-3.21438 c 0.1705,-1.07147 0.3166,-1.99682 0.4383,-2.77606 h -0.1096 c -0.8036,1.97246 -1.7168,3.83534 -2.7395,5.58864 -1.0227,1.75331 -2.1551,3.3118 -3.397,4.67547 -1.2419,1.33933 -2.5934,2.39861 -4.0545,3.17786 -1.4611,0.75489 -3.0439,1.13234 -4.7485,1.13234 z m 51.0798,-29.80611 c 0.7549,-1.7533 1.7655,-3.28744 3.0318,-4.60242 1.2663,-1.33933 2.6908,-2.38644 4.2737,-3.14133 1.5828,-0.75489 3.1778,-1.13234 4.785,-1.13234 2.2891,0 4.2372,0.51138 5.8443,1.53414 1.6316,1.02276 2.8857,2.54472 3.7623,4.56589 0.8767,2.02117 1.315,4.50501 1.315,7.45153 0,2.45949 -0.3287,4.89463 -0.9862,7.30542 -0.6331,2.41079 -1.5828,4.68764 -2.8491,6.83056 -1.2419,2.11857 -2.7883,4.00581 -4.639,5.6617 -1.8263,1.63155 -3.9327,2.92217 -6.3192,3.87188 -2.3864,0.92535 -5.0163,1.38803 -7.8898,1.38803 -1.4367,0 -2.8369,-0.15829 -4.2006,-0.47486 -1.3637,-0.29221 -2.5934,-0.66966 -3.6893,-1.13234 l -4.4928,1.38803 8.2551,-56.43437 -4.6754,-1.13234 0.1826,-1.05928 11.7982,-1.60719 0.9498,0.80359 z m -3.7622,25.49591 c 0.2435,0.68184 0.7183,1.27845 1.4245,1.78983 0.7305,0.48703 1.6802,0.73054 2.8491,0.73054 1.8507,0 3.5188,-0.4992 5.0042,-1.49761 1.5098,-1.02276 2.8126,-2.37426 3.9084,-4.05451 1.1202,-1.70459 2.0577,-3.61618 2.8126,-5.73475 0.7549,-2.14293 1.315,-4.34673 1.6803,-6.61141 0.3653,-2.28903 0.5479,-4.505 0.5479,-6.64793 0,-2.97087 -0.4018,-5.23555 -1.2054,-6.79404 -0.7793,-1.58284 -2.0334,-2.37426 -3.7623,-2.37426 -1.2663,0 -2.6056,0.48703 -4.018,1.46108 -1.388,0.97406 -2.6421,2.26469 -3.7623,3.87188 -1.1201,1.58284 -1.9115,3.32396 -2.3742,5.22337 z"
       id="text41"
       aria-label="ClubHub" /><path
       id="path41"
       style="fill:#181c30;fill-opacity:1;stroke-width:0.139617;stroke-linecap:square;paint-order:stroke fill markers"
       d="m 2240.8405,422.94374 a 10.134861,10.134861 0 0 1 -10.1348,10.13487 10.134861,10.134861 0 0 1 -10.1349,-10.13487 10.134861,10.134861 0 0 1 10.1349,-10.13485 10.134861,10.134861 0 0 1 10.1348,10.13485 z" /><path
       id="path43"
       style="fill:#181c30;fill-opacity:1;stroke-width:0.133699;stroke-linecap:square;paint-order:stroke fill markers"
       d="m 2238.8568,444.73641 h 12.8019 c 1.7474,0 3.1542,1.40676 3.1542,3.15418 v 12.80196 c 0,1.74742 -1.4068,3.15418 -3.1542,3.15418 h -12.8019 c -1.7474,0 -3.1542,-1.40676 -3.1542,-3.15418 v -12.80196 c 0,-1.74742 1.4068,-3.15418 3.1542,-3.15418 z" /><g
       id="g48"
       transform="translate(603.17387)"
       style="display:none"><path
         id="path48"
         style="color:#000000;font-style:normal;font-variant:normal;font-weight:normal;font-stretch:normal;font-size:medium;line-height:normal;font-family:sans-serif;font-variant-ligatures:normal;font-variant-position:normal;font-variant-caps:normal;font-variant-numeric:normal;font-variant-alternates:normal;font-variant-east-asian:normal;font-feature-settings:normal;font-variation-settings:normal;text-indent:0;text-align:start;text-decoration-line:none;text-decoration-style:solid;text-decoration-color:#000000;letter-spacing:normal;word-spacing:normal;text-transform:none;writing-mode:lr-tb;direction:ltr;text-orientation:mixed;dominant-baseline:auto;baseline-shift:baseline;text-anchor:start;white-space:normal;shape-padding:0;shape-margin:0;inline-size:0;clip-rule:nonzero;display:inline;overflow:visible;visibility:visible;isolation:auto;mix-blend-mode:normal;color-interpolation:sRGB;color-interpolation-filters:linearRGB;solid-color:#000000;solid-opacity:1;vector-effect:none;fill:#181c30;fill-opacity:1;fill-rule:nonzero;stroke:none;stroke-linecap:square;stroke-linejoin:miter;stroke-miterlimit:4;stroke-dasharray:none;stroke-dashoffset:0;stroke-opacity:1;-inkscape-stroke:none;paint-order:stroke fill markers;color-rendering:auto;image-rendering:auto;shape-rendering:auto;text-rendering:auto;enable-background:accumulate;stop-color:#000000;stop-opacity:1"
         d="m 2120.2205,433.50997 c -3.9154,16.31087 -12.6243,29.82041 -26.4139,39.24774 -13.7896,9.42734 -32.669,14.77211 -56.9278,14.70711 v 0.20102 0.20154 h 69.1193 c 8.0757,1.5e-4 14.6287,-6.49086 14.627,-14.49421 l -0.01,-39.81669 z" /></g><path
       id="path60"
       style="fill:#181c30;fill-opacity:1;stroke:none;stroke-width:0.402;stroke-linecap:square;stroke-linejoin:round;stroke-dasharray:none;stroke-opacity:1;paint-order:stroke fill markers"
       d="m 2708.815,411.61697 c 0,12.82513 13.214,12.20648 15.0073,23.9572 l -0.01,-35.33583 c 0.01,-3.00687 -0.8517,-5.4386 -2.2429,-7.56433 -3.583,7.36825 -12.7544,7.91178 -12.7544,18.94296 z m 15.0089,29.55169 c -1.7615,12.06223 -14.6211,13.96484 -14.7443,28.25977 -0.084,9.6891 5.16,12.63133 9.0366,15.47916 3.7501,-2.82752 5.6911,-6.67236 5.7154,-11.24376 z" /></g></svg>
