<?xml version="1.0" encoding="UTF-8" standalone="no"?>
<!-- Created with Inkscape (http://www.inkscape.org/) -->

<svg
   width="493.38861mm"
   height="152.75192mm"
   viewBox="0 0 493.38861 152.75192"
   version="1.1"
   id="svg1"
   xml:space="preserve"
   xmlns="http://www.w3.org/2000/svg"
   xmlns:svg="http://www.w3.org/2000/svg"><defs
     id="defs1" /><g
     id="layer3"
     transform="translate(-1078.8186,-165.37492)"><g
       id="rect1"><path
         id="path31"
         style="fill:#edb381;stroke-linecap:square;stroke-linejoin:bevel;paint-order:stroke fill markers"
         d="m 1102.7911,166.69736 -8.1737,8.17358 a 4.5150808,4.5150808 112.50005 0 0 -1.3224,3.19265 v 127.37457 a 4.5150838,4.5150838 67.49996 0 0 1.3224,3.19265 l 8.1737,8.17359 a 4.5151015,4.5151015 22.49996 0 0 3.1926,1.32244 h 137.6949 a 4.5156917,4.5156917 157.50269 0 0 3.1928,-1.32232 l 8.1753,-8.17383 a 4.5144937,4.5144937 112.50269 0 0 1.3226,-3.19253 V 178.06359 a 4.5144907,4.5144907 67.497299 0 0 -1.3226,-3.19253 l -8.1753,-8.17382 a 4.5156947,4.5156947 22.497299 0 0 -3.1928,-1.32232 h -137.6949 a 4.5151044,4.5151044 157.50005 0 0 -3.1926,1.32244 z" /></g><path
       id="path12"
       style="display:inline;fill:#181c30;fill-opacity:1;stroke:none;stroke-width:0.499999;stroke-linecap:square;paint-order:stroke fill markers"
       d="m 645.07142,115.1328 390.70438,-7.4e-4 a 17.876762,17.876762 134.99344 0 0 17.8767,-17.880821 l -0.021,-91.8507075 a 17.890404,17.890404 45.002377 0 0 -17.8849,-17.8863375 l -390.54434,-0.121156 z"
       transform="matrix(0.80692525,0,0,0.79939632,721.98838,209.86163)" /><path
       id="path13"
       style="display:inline;fill:#181c30;fill-opacity:1;stroke:none;stroke-width:0.499999;stroke-linecap:square;paint-order:stroke fill markers"
       d="m 561.0097,-43.060901 -15.4416,9.720566 c -0.58648,0.36944 -0.94221,1.014116 -0.94205,1.707257 v 11.136923 c 7e-5,0.716963 -0.26629,1.408371 -0.74736,1.939976 l -14.24275,15.740246 c -0.47588,0.525715 -1.15193,0.8255951 -1.86104,0.8255079 h -17.26294 c -0.6151,-4.63e-5 -1.11371,-0.4987186 -1.11367,-1.1138216 V -35.278372 c 4e-5,-0.615107 -0.49857,-1.11378 -1.11368,-1.113821 h -29.30716 c -0.61511,-2.26e-4 -1.11369,0.498709 -1.11303,1.113821 l 0.0173,22.543237 -18.60068,0.03593 A 17.104244,17.104244 134.94355 0 0 442.20983,4.405673 l 0.004,93.671379 a 17.071217,17.071217 44.996599 0 0 17.07258,17.070548 l 186.44155,-0.0148 V -35.198859 c -0.18534,-0.374784 -0.56497,-0.614192 -0.98304,-0.619939 H 616.3925 c -0.61583,-2.07e-4 -1.11569,0.497992 -1.11752,1.113821 l -0.0954,31.3964542 c -0.002,0.615327 -0.50155,1.113031 -1.11688,1.1131752 h -17.66255 c -0.70976,1.302e-4 -1.38709,-0.2971765 -1.86744,-0.8196899 L 579.71933,-19.135392 c -0.48478,-0.527465 -0.7538,-1.217755 -0.75377,-1.934158 v -10.003709 c 6e-5,-0.696333 -0.34607,-1.347133 -0.92347,-1.736346 l -15.16623,-10.222207 c -0.56141,-0.378389 -1.29323,-0.389797 -1.86616,-0.02909 z"
       transform="matrix(0.80692525,0,0,0.79939632,721.98838,209.86163)" /><text
       xml:space="preserve"
       style="font-style:normal;font-variant:normal;font-weight:normal;font-stretch:normal;font-size:73.0542px;line-height:0;font-family:Merriweather;-inkscape-font-specification:'Merriweather, @opsz=144,wght=600';font-variant-ligatures:normal;font-variant-caps:normal;font-variant-numeric:normal;font-variant-east-asian:normal;font-variation-settings:'opsz' 144, 'wght' 600;text-align:start;letter-spacing:9.00749px;writing-mode:lr-tb;direction:rtl;text-anchor:start;fill:#edb381;stroke-width:0.739573;stroke-linecap:square;paint-order:stroke fill markers"
       x="1226.0406"
       y="280.9986"
       id="text13"><tspan
         style="font-style:italic;font-variant:normal;font-weight:normal;font-stretch:normal;font-size:73.0542px;font-family:Merriweather;-inkscape-font-specification:'Merriweather, @opsz=144,wght=600';font-variant-ligatures:normal;font-variant-caps:normal;font-variant-numeric:normal;font-variant-east-asian:normal;font-variation-settings:'opsz' 144, 'wght' 600;letter-spacing:9.00749px;direction:rtl;stroke-width:0.739573"
         x="1235.0481"
         y="280.9986"
         id="tspan13">CK</tspan></text><text
       xml:space="preserve"
       style="font-style:normal;font-variant:normal;font-weight:normal;font-stretch:normal;font-size:73.0542px;line-height:0;font-family:Merriweather;-inkscape-font-specification:'Merriweather, @opsz=144,wght=500';font-variant-ligatures:normal;font-variant-caps:normal;font-variant-numeric:normal;font-variant-east-asian:normal;font-variation-settings:'opsz' 144, 'wght' 500;text-align:start;letter-spacing:9.00749px;writing-mode:lr-tb;direction:rtl;text-anchor:start;fill:#ffffff;fill-opacity:1;stroke-width:0.739573;stroke-linecap:square;paint-order:stroke fill markers"
       x="1550.3263"
       y="280.9986"
       id="text16"><tspan
         style="font-style:italic;font-variant:normal;font-weight:normal;font-stretch:normal;font-size:73.0542px;font-family:Merriweather;-inkscape-font-specification:'Merriweather, @opsz=144,wght=500';font-variant-ligatures:normal;font-variant-caps:normal;font-variant-numeric:normal;font-variant-east-asian:normal;font-variation-settings:'opsz' 144, 'wght' 500;letter-spacing:9.00749px;direction:rtl;fill:#ffffff;fill-opacity:1;stroke-width:0.739573"
         x="1559.3337"
         y="280.9986"
         id="tspan16">ClubHub</tspan></text></g></svg>
