<?xml version="1.0" encoding="UTF-8" standalone="no"?>
<!-- Created with Inkscape (http://www.inkscape.org/) -->

<svg
   width="512.0199mm"
   height="126.68142mm"
   viewBox="0 0 512.0199 126.68142"
   version="1.1"
   id="svg1"
   xml:space="preserve"
   xmlns="http://www.w3.org/2000/svg"
   xmlns:svg="http://www.w3.org/2000/svg"><defs
     id="defs1" /><g
     id="layer3"
     transform="translate(-1607.9854,-1004.9623)"><path
       id="path78"
       style="display:inline;fill:#181c30;fill-opacity:1;stroke:none;stroke-width:0.499999;stroke-linecap:square;paint-order:stroke fill markers"
       d="M 663.08295,-12.60119 A 17.893591,17.893591 0 0 0 645.18426,5.2736114 l -0.11284,109.8591486 390.70458,-6.5e-4 a 17.876762,17.876762 0 0 0 1.2861,-0.0924 c 10.0549,-1.42626 15.748,-21.119255 16.0733,-30.452002 0.3385,-9.713204 -6.5453,-16.500495 -6.8839,-33.001572 -0.3385,-16.500827 5.1912,-26.33158 5.417,-36.747064 0.2257,-10.41561 -9.2115,-27.472162 -19.1144,-27.325801 z"
       transform="matrix(0.82890438,0,0,0.79939632,1247.0466,1039.595)" /><path
       id="path27"
       style="display:inline;fill:#181c30;fill-opacity:1;stroke:none;stroke-width:0.499999;stroke-linecap:square;paint-order:stroke fill markers"
       d="m 561.0097,-43.060901 -15.4416,9.720566 c -0.58648,0.36944 -0.94221,1.014116 -0.94205,1.707257 v 11.136923 c 7e-5,0.716963 -0.26629,1.408371 -0.74736,1.939976 l -14.24275,15.740246 c -0.47588,0.525715 -1.15193,0.8255951 -1.86104,0.8255079 h -17.26294 c -0.6151,-4.63e-5 -1.11371,-0.4987186 -1.11367,-1.1138216 V -35.278372 c 4e-5,-0.615107 -0.49857,-1.11378 -1.11368,-1.113821 h -29.30716 c -0.61511,-2.26e-4 -1.11369,0.498709 -1.11303,1.113821 l 0.0173,22.543237 -18.60068,0.03593 A 17.104244,17.104244 134.94355 0 0 442.20983,4.405673 l 0.004,93.671379 a 17.071217,17.071217 44.996599 0 0 17.07258,17.070548 l 186.44155,-0.0148 V -35.198859 c -0.18534,-0.374784 -0.56497,-0.614192 -0.98304,-0.619939 H 616.3925 c -0.61583,-2.07e-4 -1.11569,0.497992 -1.11752,1.113821 l -0.0954,31.3964542 c -0.002,0.615327 -0.50155,1.113031 -1.11688,1.1131752 h -17.66255 c -0.70976,1.302e-4 -1.38709,-0.2971765 -1.86744,-0.8196899 L 579.71933,-19.135392 c -0.48478,-0.527465 -0.7538,-1.217755 -0.75377,-1.934158 v -10.003709 c 6e-5,-0.696333 -0.34607,-1.347133 -0.92347,-1.736346 l -15.16623,-10.222207 c -0.56141,-0.378389 -1.29323,-0.389797 -1.86616,-0.02909 z"
       transform="matrix(0.90052886,0,0,0.79939632,1209.7626,1039.595)" /><text
       xml:space="preserve"
       style="font-style:normal;font-variant:normal;font-weight:normal;font-stretch:normal;font-size:73.0542px;line-height:0;font-family:Merriweather;-inkscape-font-specification:'Merriweather, @opsz=144,wght=600';font-variant-ligatures:normal;font-variant-caps:normal;font-variant-numeric:normal;font-variant-east-asian:normal;font-variation-settings:'opsz' 144, 'wght' 600;text-align:start;letter-spacing:9.00749px;writing-mode:lr-tb;direction:rtl;text-anchor:start;fill:#edb381;stroke-width:0.739573;stroke-linecap:square;paint-order:stroke fill markers"
       x="1767.3938"
       y="1110.7319"
       id="text27"><tspan
         style="font-style:italic;font-variant:normal;font-weight:normal;font-stretch:normal;font-size:73.0542px;font-family:Merriweather;-inkscape-font-specification:'Merriweather, @opsz=144,wght=600';font-variant-ligatures:normal;font-variant-caps:normal;font-variant-numeric:normal;font-variant-east-asian:normal;font-variation-settings:'opsz' 144, 'wght' 600;letter-spacing:9.00749px;direction:rtl;stroke-width:0.739573"
         x="1776.4012"
         y="1110.7319"
         id="tspan27">CK</tspan></text><text
       xml:space="preserve"
       style="font-style:normal;font-variant:normal;font-weight:normal;font-stretch:normal;font-size:73.0542px;line-height:0;font-family:Merriweather;-inkscape-font-specification:'Merriweather, @opsz=144,wght=500';font-variant-ligatures:normal;font-variant-caps:normal;font-variant-numeric:normal;font-variant-east-asian:normal;font-variation-settings:'opsz' 144, 'wght' 500;text-align:start;letter-spacing:9.00749px;writing-mode:lr-tb;direction:rtl;text-anchor:start;fill:#ffffff;fill-opacity:1;stroke-width:0.739573;stroke-linecap:square;paint-order:stroke fill markers"
       x="2098.543"
       y="1110.7319"
       id="text28"><tspan
         style="font-style:italic;font-variant:normal;font-weight:normal;font-stretch:normal;font-size:73.0542px;font-family:Merriweather;-inkscape-font-specification:'Merriweather, @opsz=144,wght=500';font-variant-ligatures:normal;font-variant-caps:normal;font-variant-numeric:normal;font-variant-east-asian:normal;font-variation-settings:'opsz' 144, 'wght' 500;letter-spacing:9.00749px;direction:rtl;fill:#ffffff;fill-opacity:1;stroke-width:0.739573"
         x="2107.5505"
         y="1110.7319"
         id="tspan28">ClubHub</tspan></text><path
       id="path30"
       style="fill:#edb381;stroke-width:0.139617;stroke-linecap:square;paint-order:stroke fill markers"
       d="m 1637.6666,1068.3626 a 10.134861,10.134861 0 0 1 -10.1348,10.1349 10.134861,10.134861 0 0 1 -10.1349,-10.1349 10.134861,10.134861 0 0 1 10.1349,-10.1348 10.134861,10.134861 0 0 1 10.1348,10.1348 z" /><path
       id="path39"
       style="fill:#edb381;stroke-width:0.133699;stroke-linecap:square;paint-order:stroke fill markers"
       d="m 1635.6829,1090.1553 h 12.8019 c 1.7474,0 3.1542,1.4068 3.1542,3.1542 v 12.8019 c 0,1.7475 -1.4068,3.1542 -3.1542,3.1542 h -12.8019 c -1.7474,0 -3.1542,-1.4067 -3.1542,-3.1542 v -12.8019 c 0,-1.7474 1.4068,-3.1542 3.1542,-3.1542 z" /></g></svg>
