<?xml version="1.0" encoding="UTF-8" standalone="no"?>
<!-- Created with Inkscape (http://www.inkscape.org/) -->

<svg
   width="512.01746mm"
   height="126.68142mm"
   viewBox="0 0 512.01746 126.68142"
   version="1.1"
   id="svg1"
   xml:space="preserve"
   xmlns="http://www.w3.org/2000/svg"
   xmlns:svg="http://www.w3.org/2000/svg"><defs
     id="defs1" /><g
     id="layer3"
     transform="translate(-1607.9875,-1190.7305)"><path
       id="path79"
       style="display:inline;fill:#edb381;fill-opacity:1;stroke:none;stroke-width:0.499999;stroke-linecap:square;paint-order:stroke fill markers"
       d="m 645.2024,-12.60675 -0.13068,127.73976 390.70428,-6.4e-4 a 17.876762,17.876762 0 0 0 1.7131,-0.12283 c 9.7903,-1.79453 15.3301,-21.168138 15.6497,-30.402867 0.3363,-9.715207 -6.5022,-16.503833 -6.8386,-33.008037 -0.3363,-16.504079 5.1571,-26.336689 5.3813,-36.754175 0.2243,-10.4176115 -9.1507,-27.477333 -18.9885,-27.330973 z"
       transform="matrix(0.83439916,0,0,0.79939632,1241.257,1225.3633)" /><path
       id="path29"
       style="display:inline;fill:#edb381;fill-opacity:1;stroke:none;stroke-width:0.499999;stroke-linecap:square;paint-order:stroke fill markers"
       d="m 561.0097,-43.060901 -15.4416,9.720566 c -0.58648,0.36944 -0.94221,1.014116 -0.94205,1.707257 v 11.136923 c 7e-5,0.716963 -0.26629,1.408371 -0.74736,1.939976 l -14.24275,15.740246 c -0.47588,0.525715 -1.15193,0.8255951 -1.86104,0.8255079 h -17.26294 c -0.6151,-4.63e-5 -1.11371,-0.4987186 -1.11367,-1.1138216 V -35.278372 c 4e-5,-0.615107 -0.49857,-1.11378 -1.11368,-1.113821 h -29.24318 c -0.61511,-2.26e-4 -1.11369,0.498709 -1.11303,1.113821 l 0.0173,22.543237 -17.43872,0.0338 A 18.146203,18.146203 134.94403 0 0 442.39594,5.445116 l 0.001,91.592493 a 18.110191,18.110191 44.997269 0 0 18.11163,18.109911 l 185.21811,-0.0148 V -35.198859 c -0.18534,-0.374784 -0.56497,-0.614192 -0.98304,-0.619939 H 616.3925 c -0.61583,-2.07e-4 -1.11569,0.497992 -1.11752,1.113821 l -0.0954,31.3964542 c -0.002,0.615327 -0.50155,1.113031 -1.11688,1.1131752 h -17.66255 c -0.70976,1.302e-4 -1.38709,-0.2971765 -1.86744,-0.8196899 L 579.71933,-19.135392 c -0.48478,-0.527465 -0.7538,-1.217755 -0.75377,-1.934158 v -10.003709 c 6e-5,-0.696333 -0.34607,-1.347133 -0.92347,-1.736346 l -15.16623,-10.222207 c -0.56141,-0.378389 -1.29323,-0.389797 -1.86616,-0.02909 z"
       transform="matrix(0.90134154,0,0,0.79939632,1209.2378,1225.3633)" /><text
       xml:space="preserve"
       style="font-style:normal;font-variant:normal;font-weight:normal;font-stretch:normal;font-size:73.0542px;line-height:0;font-family:Merriweather;-inkscape-font-specification:'Merriweather, @opsz=144,wght=600';font-variant-ligatures:normal;font-variant-caps:normal;font-variant-numeric:normal;font-variant-east-asian:normal;font-variation-settings:'opsz' 144, 'wght' 600;text-align:start;letter-spacing:9.00749px;writing-mode:lr-tb;direction:rtl;text-anchor:start;fill:#181c30;fill-opacity:1;stroke-width:0.739573;stroke-linecap:square;paint-order:stroke fill markers"
       x="1767.3938"
       y="1296.5002"
       id="text29"><tspan
         style="font-style:italic;font-variant:normal;font-weight:normal;font-stretch:normal;font-size:73.0542px;font-family:Merriweather;-inkscape-font-specification:'Merriweather, @opsz=144,wght=600';font-variant-ligatures:normal;font-variant-caps:normal;font-variant-numeric:normal;font-variant-east-asian:normal;font-variation-settings:'opsz' 144, 'wght' 600;letter-spacing:9.00749px;direction:rtl;fill:#181c30;fill-opacity:1;stroke-width:0.739573"
         x="1776.4012"
         y="1296.5002"
         id="tspan29">CK</tspan></text><text
       xml:space="preserve"
       style="font-style:normal;font-variant:normal;font-weight:normal;font-stretch:normal;font-size:73.0542px;line-height:0;font-family:Merriweather;-inkscape-font-specification:'Merriweather, @opsz=144,wght=500';font-variant-ligatures:normal;font-variant-caps:normal;font-variant-numeric:normal;font-variant-east-asian:normal;font-variation-settings:'opsz' 144, 'wght' 500;text-align:start;letter-spacing:9.00749px;writing-mode:lr-tb;direction:rtl;text-anchor:start;fill:#ffffff;fill-opacity:1;stroke-width:0.739573;stroke-linecap:square;paint-order:stroke fill markers"
       x="2098.543"
       y="1296.5002"
       id="text30"><tspan
         style="font-style:italic;font-variant:normal;font-weight:normal;font-stretch:normal;font-size:73.0542px;font-family:Merriweather;-inkscape-font-specification:'Merriweather, @opsz=144,wght=500';font-variant-ligatures:normal;font-variant-caps:normal;font-variant-numeric:normal;font-variant-east-asian:normal;font-variation-settings:'opsz' 144, 'wght' 500;letter-spacing:9.00749px;direction:rtl;fill:#ffffff;fill-opacity:1;stroke-width:0.739573"
         x="2107.5505"
         y="1296.5002"
         id="tspan30">ClubHub</tspan></text><path
       id="path49"
       style="fill:#181c30;fill-opacity:1;stroke-width:0.139617;stroke-linecap:square;paint-order:stroke fill markers"
       d="m 1637.6666,1252.6771 a 10.134861,10.134861 0 0 1 -10.1348,10.1348 10.134861,10.134861 0 0 1 -10.1349,-10.1348 10.134861,10.134861 0 0 1 10.1349,-10.1349 10.134861,10.134861 0 0 1 10.1348,10.1349 z" /><path
       id="path50"
       style="fill:#181c30;fill-opacity:1;stroke-width:0.133699;stroke-linecap:square;paint-order:stroke fill markers"
       d="m 1635.6829,1274.4697 h 12.8019 c 1.7474,0 3.1542,1.4068 3.1542,3.1542 v 12.802 c 0,1.7474 -1.4068,3.1542 -3.1542,3.1542 h -12.8019 c -1.7474,0 -3.1542,-1.4068 -3.1542,-3.1542 v -12.802 c 0,-1.7474 1.4068,-3.1542 3.1542,-3.1542 z" /></g></svg>
