<?xml version="1.0" encoding="UTF-8" standalone="no"?>
<!-- Created with Inkscape (http://www.inkscape.org/) -->

<svg
   width="35.999981mm"
   height="28.352863mm"
   viewBox="0 0 35.999981 28.352863"
   version="1.1"
   id="svg1"
   xml:space="preserve"
   xmlns="http://www.w3.org/2000/svg"
   xmlns:svg="http://www.w3.org/2000/svg"><defs
     id="defs1" /><g
     id="layer9"
     transform="translate(-98.868024,-61.238493)"><path
       style="fill:#000000;stroke-width:0.0903765"
       d="m 114.27642,88.489795 -0.1939,-1.10151 0.40509,-0.776525 c 0.22278,-0.42708 0.40508,-0.780899 0.40508,-0.786253 0,-0.0053 -0.56329,-0.0097 -1.25174,-0.0097 h -1.25174 l -0.87419,1.183542 c -0.4808,0.650946 -0.87486,1.184423 -0.87568,1.185506 -8.8e-4,7.57e-4 -0.32006,-0.0039 -0.70943,-0.01028 -0.38934,-0.0069 -1.41472,-0.02248 -2.27859,-0.03491 -0.86387,-0.0125 -1.97551,-0.02969 -2.47031,-0.03828 -1.81382,-0.0313 -4.62415,-0.07327 -4.90747,-0.07335 -0.1602,-2.2e-5 -0.291683,-0.0015 -0.292193,-0.0038 -4.5e-4,-0.0015 -0.2512,-3.235751 -0.55712,-7.186052 l -0.556204,-7.182368 0.11099,-0.0039 c 0.0611,-0.0024 0.618704,0.01558 1.239227,0.03959 0.62052,0.02394 1.13217,0.03905 1.13696,0.03345 0.004,-0.0053 0.0404,-0.146116 0.0791,-0.312404 2.03181,-8.734029 11.13531,-14.045843 19.81374,-11.561175 5.56693,1.593827 10.01913,6.338428 11.12389,11.854452 l 0.0189,0.09418 0.53127,-0.01105 c 0.29218,-0.0061 0.84879,-0.01857 1.23691,-0.02785 0.3881,-0.0092 0.70714,-0.0135 0.70898,-0.0094 0.005,0.01197 -1.20972,14.260718 -1.21662,14.266304 -0.004,0.0031 -0.86906,0.02309 -1.92356,0.04512 -1.05449,0.02202 -2.3387,0.04948 -2.85377,0.06115 -0.51509,0.01159 -1.2783,0.02808 -1.69605,0.03652 -0.41773,0.0085 -1.17764,0.02509 -1.68866,0.0369 -0.51102,0.01181 -1.17138,0.02547 -1.46744,0.03038 l -0.53831,0.0089 -0.81852,-1.218642 -0.81853,-1.218642 -1.32257,0.0046 c -0.72741,0.0023 -1.32722,0.0091 -1.3329,0.01481 -0.005,0.0053 0.15644,0.34933 0.36026,0.763659 0.20381,0.414337 0.37057,0.768952 0.37057,0.788033 0,0.03383 -0.30168,2.099486 -0.31839,2.180043 l -0.009,0.04051 h -2.5621 -2.56234 z m 2.82112,-1.015313 2.24173,-0.0086 0.0514,-0.05079 0.0514,-0.05079 -0.0514,-0.05018 -0.0514,-0.05017 -2.34497,0.0145 -2.34496,0.0145 -0.0516,0.05117 -0.0516,0.05117 0.056,0.05171 c 0.0549,0.05079 0.0578,0.05156 0.15486,0.04396 0.0544,-0.0038 1.10763,-0.01174 2.34058,-0.01642 z m 10.83986,-0.56442 0.13267,-0.116127 0.46705,-5.697901 0.46703,-5.697892 -0.12609,-0.148466 c -0.15086,-0.177641 -0.11822,-0.174848 -0.29715,-0.02547 l -0.14733,0.123039 -0.009,0.09082 c -0.0176,0.175885 -0.92211,11.239689 -0.92211,11.279032 0,0.02861 0.0356,0.08176 0.12636,0.188651 0.14608,0.17201 0.11748,0.171611 0.30866,0.0038 z m -22.30288,-0.189879 0.12903,-0.139948 -8.7e-4,-0.1057 c -4.7e-4,-0.05816 -0.0753,-2.259305 -0.16655,-4.891493 l -0.1658,-4.785786 -0.10998,-0.105699 c -0.0605,-0.05816 -0.1276,-0.119494 -0.1491,-0.136351 l -0.0391,-0.03069 -0.10347,0.106851 c -0.15991,0.165136 -0.16485,0.173238 -0.16534,0.271404 -2.8e-4,0.04741 0.0733,2.246407 0.16355,4.886706 l 0.16398,4.800531 0.14246,0.135744 c 0.17187,0.163739 0.14441,0.164254 0.30103,-0.0053 z m 4.63584,-7.57e-4 0.13303,-0.1438 -0.21008,-7.624815 c -0.11553,-4.19364 -0.21046,-7.668878 -0.21092,-7.722737 l -8.8e-4,-0.09793 -0.14966,-0.137984 -0.14966,-0.137984 -0.13792,0.146953 -0.13794,0.146945 8.8e-4,0.08159 c 3.7e-4,0.04488 0.0952,3.519944 0.21082,7.722375 l 0.21014,7.640783 0.13945,0.134654 c 0.16997,0.164123 0.14297,0.164837 0.30291,-0.0081 z m 7.79181,0.09133 c 0.35625,-0.06468 0.31191,-0.03415 0.41531,-0.286548 l 0.0875,-0.213648 v -1.612279 -1.612278 l 0.11128,-0.887741 c 0.076,-0.605842 0.11795,-1.000131 0.13227,-1.241698 0.0115,-0.194674 0.0249,-0.398753 0.0297,-0.453502 0.0109,-0.123591 0.0476,-0.127481 -0.38349,0.04051 -0.42498,0.165665 -0.33628,0.158201 -0.6833,0.05746 l -0.28469,-0.08262 -0.43512,0.05325 -0.43512,0.05325 -0.30336,-0.13342 c -0.16685,-0.07335 -0.31558,-0.128072 -0.31736,-0.125724 -0.0236,0.03115 0.1421,2.803217 0.19424,3.282321 l 0.0602,0.553065 -0.0432,0.910159 -0.0432,0.910159 -0.22382,0.306074 c -0.19993,0.273414 -0.22289,0.310846 -0.2152,0.350811 0.012,0.06199 0.0773,0.112819 0.1339,0.104127 0.0243,-0.0039 0.22546,-0.01818 0.44693,-0.03214 l 0.40268,-0.02539 0.0706,-0.05202 0.0706,-0.05201 0.01,-0.651975 c 0.0111,-0.743934 0.0426,-1.664794 0.0825,-2.416661 l 0.0275,-0.516185 0.13311,-0.604675 c 0.17308,-0.78623 0.22069,-0.972281 0.22255,-0.869489 0.004,0.25553 0.19465,2.055471 0.38299,3.627393 l 0.14489,1.209351 -0.14315,0.154864 c -0.10851,0.117384 -0.14554,0.167905 -0.15306,0.20879 l -0.01,0.05394 0.0926,0.02179 c 0.12616,0.02969 0.10049,0.0313 0.42305,-0.02724 z m -0.089,-0.461551 -0.0497,-0.04488 0.0453,-0.04581 c 0.0906,-0.09153 0.43403,-0.09023 0.43403,0.0015 0,0.04765 -0.078,0.09823 -0.1656,0.107434 -0.0508,0.0053 -0.11989,0.0135 -0.15338,0.0181 -0.0532,0.0077 -0.0671,0.0031 -0.11061,-0.03652 z m -1.50981,-0.163717 c -0.13057,-0.03514 -0.15127,-0.04535 -0.18066,-0.08874 -0.042,-0.06207 -0.0419,-0.0626 0.011,-0.09395 0.033,-0.01949 0.0443,-0.02118 0.0445,-0.0069 1.7e-4,0.01466 0.003,0.01427 0.0135,-0.0015 0.0167,-0.02647 0.32178,0.0468 0.35129,0.08429 0.0102,0.01289 0.0187,0.01719 0.019,0.0095 3.6e-4,-0.0077 0.0129,0.0092 0.0279,0.03736 l 0.0273,0.05125 -0.0431,0.02616 c -0.055,0.03345 -0.0907,0.03115 -0.27091,-0.01742 z m 0.2286,0.0069 c 0,-0.0038 -0.003,-0.0077 -0.008,-0.0077 -0.004,0 -0.008,0.0031 -0.008,0.0077 0,0.0039 0.003,0.0077 0.008,0.0077 0.004,0 0.008,-0.0031 0.008,-0.0077 z m -0.3687,-0.08849 c 0,-0.0039 -0.003,-0.0077 -0.008,-0.0077 -0.004,0 -0.008,0.0031 -0.008,0.0077 0,0.0038 0.003,0.0077 0.008,0.0077 0.004,0 0.008,-0.0031 0.008,-0.0077 z m 1.5425,-1.984763 c -0.021,-0.02493 -0.0382,-0.05317 -0.0381,-0.06268 8e-5,-0.0095 0.0232,-0.62124 0.0515,-1.359388 0.0283,-0.738149 0.0515,-1.376928 0.0515,-1.419516 3e-5,-0.02742 -0.006,-0.05919 0.007,-0.07507 0.0296,-0.03485 0.0488,-0.05289 0.0524,-0.05698 l 0.0398,-0.03253 0.0418,0.04366 0.0418,0.04366 -0.0475,1.294075 c -0.0422,1.149325 -0.0538,1.463296 -0.0689,1.549651 -0.001,0.008 -0.003,0.0141 -0.004,0.01869 -0.0142,0.04366 -7.3e-4,0.02324 -0.0327,0.06653 -0.0423,0.04503 -0.0471,0.0445 -0.0931,-0.01012 z m -1.50347,-1.604163 -0.0403,-0.04197 0.0523,-0.625374 c 0.0664,-0.794648 0.0584,-0.738863 0.11295,-0.779233 l 0.045,-0.03323 c 0.0442,0.0428 0.0503,0.05158 0.0799,0.09937 0.005,0.0085 0.003,0.02657 -10e-4,0.06198 -0.004,0.03851 -0.0315,0.341787 -0.0594,0.673901 l -0.0509,0.60384 -0.0396,0.04142 c -0.0488,0.05095 -0.0489,0.05095 -0.0983,-4.6e-4 z m 7.83142,4.196959 0.14057,-0.136749 0.21801,-7.564896 0.218,-7.564897 -0.13459,-0.144298 c -0.16155,-0.173207 -0.12486,-0.172218 -0.29722,-0.0081 l -0.14324,0.136434 -0.21798,7.565141 -0.21797,7.565142 0.13329,0.14446 c 0.16064,0.17409 0.13087,0.17333 0.30113,0.0078 z m 9.01617,-1.367022 c 0.0682,-0.786506 0.12104,-1.432849 0.11735,-1.436309 -0.004,-0.0039 -0.75664,-0.01688 -1.67324,-0.02985 -0.9166,-0.01297 -1.87062,-0.02785 -2.12006,-0.03299 -0.29214,-0.0061 -0.4535,-0.0038 -0.4535,0.0053 0,0.0079 -0.0498,0.66016 -0.11061,1.449383 -0.0608,0.789229 -0.11061,1.443935 -0.11061,1.454891 0,0.01664 0.348,0.01995 2.1133,0.01995 h 2.11332 z m -17.79017,1.123998 0.0627,-0.02578 -8.7e-4,-0.125356 c -4.6e-4,-0.06897 -0.0353,-1.497496 -0.0774,-3.174551 l -0.0763,-3.049195 0.0664,-0.0015 c 0.13749,-0.0038 0.1437,-0.0081 0.20706,-0.150604 l 0.0579,-0.130229 -0.0233,-0.157355 c -0.0277,-0.187594 -0.0101,-0.166341 -0.11988,-0.143417 -0.065,0.01358 -0.0888,0.01435 -0.0816,0.0031 0.005,-0.009 0.0981,-0.135352 0.20562,-0.280564 0.15525,-0.209687 0.19717,-0.276451 0.20374,-0.324456 0.004,-0.03322 0.0547,-0.518379 0.11153,-1.078072 0.0905,-0.891746 0.21457,-1.842407 0.28777,-2.204848 0.004,-0.02049 0.0298,-0.0514 0.0578,-0.06966 l 0.0504,-0.03283 0.0313,0.04388 c 0.014,0.02384 0.0204,0.03609 0.0246,0.07315 0.005,0.04085 -0.0133,0.171458 -0.0779,0.587817 -0.0851,0.54829 -0.22694,1.777146 -0.20728,1.796802 0.004,0.0039 0.1116,-0.0031 0.239,-0.01664 0.27976,-0.029 0.28849,-0.06368 0.26376,0.275715 l -0.0207,0.284086 -0.29028,0.0038 -0.25307,0.0038 -0.009,0.06974 c -0.0216,0.177297 -0.10547,1.578705 -0.095,1.588265 0.003,0.0023 0.15765,0.03767 0.34422,0.0781 l 0.33921,0.0735 0.44346,-0.0303 0.44348,-0.0303 0.26443,0.08311 0.26445,0.08312 0.40557,-0.114761 0.40558,-0.114769 0.004,-0.04864 c 0.004,-0.04427 0.002,-0.04795 -0.0295,-0.04044 -0.0189,0.0046 -0.0956,0.01934 -0.17066,0.03292 l -0.13641,0.0247 -0.10031,-0.08893 -0.10031,-0.08893 -0.0776,-0.495977 -0.0776,-0.495968 0.0718,-0.113264 0.0718,-0.113257 0.25515,-0.04427 0.25514,-0.04427 -0.01,-0.398394 -0.0101,-0.398394 0.0825,-0.551491 c 0.0453,-0.30332 0.0807,-0.553026 0.0785,-0.554906 -0.004,-0.0038 -1.18549,-0.09594 -1.23181,-0.09573 -0.0391,1.77e-4 -0.0405,-0.04588 -0.0231,-0.752012 l 0.01,-0.405574 0.1513,-0.07227 0.1513,-0.07227 0.4913,0.02601 c 0.27022,0.01435 0.49207,0.02693 0.49302,0.02808 0.0612,0.07104 0.18103,0.257309 0.17632,0.273912 -0.004,0.01266 -0.0242,0.109321 -0.0457,0.214768 l -0.0391,0.191727 0.0607,0.376075 0.0607,0.376083 0.0318,0.855387 c 0.0315,0.846488 0.021,1.798475 -0.0274,2.500748 l -0.009,0.126278 0.11133,0.03238 0.11133,0.0323 0.14553,-0.03099 0.14554,-0.03099 0.10552,-0.783929 0.10551,-0.783935 -0.11706,-1.275716 -0.11706,-1.275723 -0.002,-0.55305 c -0.002,-0.712177 0.008,-0.652826 -0.15385,-0.883859 l -0.13274,-0.18911 -0.56831,-0.2378 c -0.60052,-0.251279 -0.59604,-0.249699 -0.61463,-0.216478 -0.0144,0.0257 -0.35824,0.158721 -0.35824,0.138574 0,-0.0078 -0.006,-0.01012 -0.0144,-0.0053 -0.008,0.0046 -0.0345,-0.0015 -0.0591,-0.01427 l -0.0447,-0.02309 0.0289,-0.05662 c 0.0261,-0.05117 0.0419,-0.06145 0.16227,-0.106084 0.0995,-0.03682 0.13172,-0.05516 0.12688,-0.07196 -0.004,-0.01243 -0.0176,-0.07976 -0.0311,-0.149685 -0.0136,-0.06989 -0.0294,-0.134869 -0.0352,-0.144314 -0.008,-0.01189 -0.0854,0.01733 -0.25517,0.09559 l -0.24456,0.112751 -0.22454,-0.05171 -0.22455,-0.05171 0.009,0.111231 c 0.0109,0.129469 0.0141,0.134471 0.11269,0.180665 0.049,0.02294 0.072,0.04189 0.067,0.05509 -0.004,0.01105 -0.003,0.01672 0.004,0.0125 0.007,-0.0038 0.0193,0.01535 0.0279,0.0435 0.0178,0.05808 0.0141,0.06245 -0.0626,0.07196 -0.0431,0.0053 -0.0784,-0.0045 -0.15577,-0.0435 l -0.10003,-0.0504 -0.57015,0.281754 c -0.31358,0.154962 -0.57272,0.28918 -0.57586,0.298264 -0.003,0.009 -0.0459,0.394802 -0.0952,0.857151 l -0.0895,0.840649 -0.19104,0.907021 c -0.21455,1.01869 -0.33795,1.491948 -0.40929,1.569683 -0.0228,0.02486 -0.12251,0.130112 -0.22151,0.233848 -0.2038,0.213563 -0.19574,0.193868 -0.12957,0.316608 0.0542,0.100667 0.0547,0.09864 -0.0232,0.112666 -0.0529,0.0096 -0.0542,0.01128 -0.07,0.1027 -0.0222,0.127473 -0.0215,0.135384 0.023,0.24874 l 0.0392,0.09992 h 0.12914 0.12915 l 0.009,0.10692 c 0.008,0.09158 0.27452,6.138997 0.27417,6.208009 -9e-5,0.02417 0.0292,0.03399 0.1177,0.03936 0.0201,0.0015 0.065,-0.0094 0.0995,-0.02364 z m 2.24412,-8.209153 c 0,-0.281369 8.7e-4,-0.289486 0.03,-0.289486 0.0467,0 0.96569,0.06007 0.96827,0.06337 0.002,0.0015 0.005,0.10705 0.01,0.234262 l 0.008,0.276792 -0.0903,0.008 c -0.0497,0.0045 -0.19985,0.01158 -0.33369,0.01604 -0.13384,0.0046 -0.31468,0.01205 -0.40189,0.01703 l -0.18955,0.009 z m -0.15948,-3.053437 c -0.0311,-0.03314 -0.0315,-0.03598 -0.006,-0.04258 0.022,-0.0053 0.0209,-0.0077 -0.006,-0.0088 l -0.0333,-0.0015 v -0.342195 -0.342195 l 0.0471,-0.04864 0.0471,-0.04864 0.0414,0.03959 0.0414,0.03959 v 0.351194 0.351194 l -0.0332,0.0015 c -0.027,0.0015 -0.0281,0.0031 -0.006,0.0087 0.0265,0.0069 -0.0183,0.07806 -0.0493,0.07806 -0.005,0 -0.0246,-0.01595 -0.043,-0.03552 z m -4.55009,3.799227 -0.0473,-5.151579 -0.14643,-0.147836 -0.14643,-0.147836 -0.14142,0.149071 -0.14141,0.149063 0.006,0.630032 c 0.004,0.346514 0.0246,2.665417 0.0469,5.1531 l 0.0405,4.523066 0.14614,0.140056 0.14615,0.140056 0.14213,-0.142803 0.14213,-0.142809 z m 8.85783,-0.0155 0.0315,-5.166365 -0.14587,-0.146415 -0.14586,-0.146423 -0.14245,0.143891 -0.14244,0.143892 -0.0308,5.169226 -0.0308,5.169234 0.14336,0.143899 0.14335,0.143892 0.14424,-0.144237 0.14424,-0.144229 z m 11.76844,2.151051 c 0.0943,-1.009882 0.16995,-1.837957 0.16805,-1.840158 -0.002,-0.0024 -0.84229,-0.02003 -1.86754,-0.03959 -1.02526,-0.01957 -2.00439,-0.03928 -2.17586,-0.04374 l -0.31175,-0.0081 -0.009,0.06245 c -0.0162,0.118143 -0.30766,3.58159 -0.30187,3.587367 0.006,0.0061 4.15418,0.123208 4.25966,0.11994 l 0.0663,-0.0015 z m -25.82106,1.305644 c 0.62322,-0.02724 1.13686,-0.05333 1.14141,-0.05785 0.0101,-0.01005 -0.0796,-2.589929 -0.0904,-2.600732 -0.019,-0.01902 -2.54922,0.165635 -2.55728,0.186626 -0.009,0.02225 0.12464,2.502866 0.13531,2.520259 0.008,0.01205 -0.0696,0.01473 1.37096,-0.04834 z m 11.39737,-2.690079 c 0.0169,-0.06329 -0.0936,-0.701885 -0.12881,-0.745301 l -0.04,-0.03472 -0.26004,0.04267 c -0.24312,0.04327 -0.24479,0.03611 -0.27151,0.07276 l -0.0217,0.04182 0.0593,0.373173 c 0.069,0.434381 0.0616,0.374638 0.13898,0.376601 0.18519,-0.02486 0.33815,-0.0545 0.48482,-0.08496 0.0226,-0.0047 0.037,-0.0139 0.039,-0.04204 z m -16.72638,-0.04785 c 0.84766,-0.0094 1.54617,-0.02156 1.55227,-0.02693 0.0109,-0.0097 -0.11535,-3.155546 -0.1272,-3.167392 -0.005,-0.0053 -3.75808,0.09963 -3.76604,0.105601 -0.002,0.0015 0.0609,0.700639 0.13958,1.553862 l 0.14297,1.551315 0.25863,3.61e-4 c 0.14224,1.85e-4 0.95214,-0.0077 1.79979,-0.01688 z m 25.15052,-1.233426 c 0.0125,-0.02094 0.22129,-2.540376 0.21138,-2.55028 -0.005,-0.0053 -0.56647,-0.01297 -1.24667,-0.0168 l -1.23676,-0.0069 -0.009,0.175278 c -0.0143,0.273912 -0.06,2.349384 -0.052,2.357409 0.004,0.0039 0.49127,0.01635 1.08296,0.02747 0.59168,0.0112 1.11356,0.02132 1.15972,0.02248 0.0462,0.0015 0.0869,-0.0031 0.0905,-0.0088 z m -8.74157,-2.108194 0.0458,-0.21171 -0.0753,-0.0086 c -0.17865,-0.02041 -0.85388,-0.08207 -0.85718,-0.07827 -0.002,0.0024 -0.006,0.09795 -0.009,0.227729 l -0.005,0.227706 0.37607,0.03161 c 0.20686,0.01741 0.39931,0.03069 0.4277,0.02946 l 0.0516,-0.0023 z m -4.40033,-0.430294 c 0.43593,-0.03069 0.79535,-0.05854 0.7987,-0.06199 0.003,-0.0031 0.0134,-0.265082 0.0222,-0.581429 0.009,-0.316347 0.0201,-0.662554 0.0249,-0.769343 l 0.009,-0.194161 0.29352,-0.195188 c 0.16144,-0.107349 0.2935,-0.202484 0.29347,-0.211414 -9e-5,-0.03307 -0.0856,-0.645054 -0.0906,-0.648699 -0.007,-0.0053 -2.33013,0.10603 -2.33558,0.111761 -0.003,0.0024 0.004,0.502283 0.0158,1.110641 0.011,0.608365 0.0204,1.194053 0.0207,1.301532 l 4.6e-4,0.195411 0.0774,-4.61e-4 c 0.0426,-3.6e-4 0.4341,-0.02578 0.87004,-0.05647 z m 4.486,0.0024 c 0.003,-0.0069 0.0115,-0.04849 0.0161,-0.09217 0.0148,-0.143194 0.0219,-0.115835 -0.45667,-0.141621 l -0.40869,-0.02202 -0.0651,0.03161 c -0.0632,0.03069 -0.0651,0.0089 -0.0651,0.07581 v 0.06897 l 0.18804,0.01796 c 0.10341,0.0099 0.30418,0.02977 0.44612,0.04419 0.31695,0.03223 0.33551,0.03314 0.34536,0.01719 z m -1.08276,-1.707755 c 0,-0.0039 -0.003,-0.0077 -0.008,-0.0077 -0.004,0 -0.008,0.0031 -0.008,0.0077 0,0.0038 0.003,0.0077 0.008,0.0077 0.004,0 0.008,-0.0031 0.008,-0.0077 z m 0.39821,-0.04427 c 0,-0.0039 -0.003,-0.0077 -0.008,-0.0077 -0.004,0 -0.008,0.0031 -0.008,0.0077 0,0.0038 0.003,0.0077 0.008,0.0077 0.004,0 0.008,-0.0031 0.008,-0.0077 z m -12.96367,-0.387878 c 0,-0.04696 -0.0263,-0.881511 -0.0582,-1.854582 -0.0321,-0.973071 -0.0602,-1.837441 -0.0627,-1.920831 l -0.004,-0.15161 1.84352,-0.842275 c 1.01395,-0.463254 1.85017,-0.842291 1.85828,-0.842314 0.008,-1.5e-5 0.77299,0.383333 1.69972,0.851904 l 1.68499,0.851927 8.7e-4,0.04611 c 0.004,0.229805 0.0825,2.0442 0.0879,2.049041 0.004,0.0039 0.25261,0.01051 0.55272,0.01565 l 0.5457,0.0093 0.52355,-0.644854 c 0.28796,-0.35467 0.66851,-0.822766 0.84569,-1.04021 l 0.32213,-0.395356 -0.0159,-0.563644 c -0.009,-0.310003 -0.0177,-0.633685 -0.0198,-0.719283 l -0.004,-0.155645 1.06053,-1.036313 1.06054,-1.036305 0.12669,0.124519 c 0.0696,0.06852 0.53817,0.527501 1.04108,1.020025 l 0.91439,0.895497 0.004,0.09082 c 0.002,0.04995 -0.009,0.379513 -0.0236,0.732363 l -0.0273,0.641549 0.75943,1.024995 c 0.41769,0.563744 0.7701,1.036244 0.78314,1.049985 0.0199,0.02103 1.13619,0.0125 1.16231,-0.0088 0.002,-0.0015 0.0149,-0.511964 0.0295,-1.134708 l 0.0264,-1.132261 0.30971,-0.137279 c 0.17035,-0.07549 0.94733,-0.42009 1.72664,-0.765745 l 1.41691,-0.628467 1.83506,0.780623 1.83506,0.780621 0.004,0.05608 c 0.003,0.03084 -0.0389,0.958562 -0.0911,2.061639 -0.0522,1.103076 -0.0935,2.007035 -0.0918,2.008807 0.005,0.0053 2.68564,-0.058 2.69197,-0.06353 0.0102,-0.0088 -0.11682,-0.518202 -0.21464,-0.861149 -1.71301,-6.005339 -6.96255,-10.35348 -13.17516,-10.912821 -6.98876,-0.629226 -13.48804,3.612617 -15.71487,10.256514 -0.1633,0.48719 -0.42612,1.436969 -0.40366,1.458658 0.003,0.0031 0.64989,0.02992 1.4367,0.05923 0.78681,0.02931 1.46044,0.05531 1.49694,0.05777 0.0366,0.0023 0.10121,0.0053 0.1438,0.0069 l 0.0774,0.0031 z m 12.47993,-0.114116 0.24145,-0.111001 0.12052,-0.2024 0.12053,-0.2024 -0.0375,-0.257817 c -0.0373,-0.256557 -0.0381,-0.258982 -0.14372,-0.493719 l -0.10622,-0.235897 -0.19117,-0.03261 c -0.25277,-0.04311 -0.24274,-0.04366 -0.52002,0.027 l -0.2412,0.06146 -0.10029,0.200352 c -0.0707,0.141345 -0.10322,0.224226 -0.11025,0.281461 -0.005,0.04465 -0.0137,0.100076 -0.0181,0.123246 l -0.008,0.04212 0.12687,-0.0053 c 0.11854,-0.0046 0.12695,-0.0031 0.12793,0.02424 8.7e-4,0.02686 0.002,0.02716 0.0115,0.0031 0.01,-0.02432 0.0132,-0.02356 0.0445,0.0097 0.0736,0.07833 -0.0127,0.14222 -0.19216,0.14222 -0.14664,0 -0.13811,-0.0061 -0.1509,0.111215 l -0.01,0.0891 0.17126,0.220606 0.17128,0.220613 0.18675,0.04641 c 0.25048,0.06223 0.23294,0.06437 0.50681,-0.06153 z m -0.28318,-0.703148 c 0,-0.0077 -0.006,-0.0099 -0.013,-0.0053 -0.007,0.0046 -0.0305,-0.0053 -0.0518,-0.02248 -0.0419,-0.03299 -0.0231,-0.101218 0.0345,-0.12524 0.0672,-0.02808 0.22825,-0.04941 0.23946,-0.03177 0.006,0.01006 0.0117,0.01289 0.0118,0.0061 2.7e-4,-0.0132 0.0887,0.03545 0.0887,0.04879 0,0.04926 -0.0887,0.105354 -0.19541,0.123621 -0.0647,0.01105 -0.1143,0.01366 -0.1143,0.0061 z"
       id="path287" /></g></svg>
