<?xml version="1.0" encoding="UTF-8" standalone="no"?>
<!-- Created with Inkscape (http://www.inkscape.org/) -->

<svg
   width="32.865574mm"
   height="32.376534mm"
   viewBox="0 0 32.865574 32.376534"
   version="1.1"
   id="svg1"
   xml:space="preserve"
   xmlns="http://www.w3.org/2000/svg"
   xmlns:svg="http://www.w3.org/2000/svg"><defs
     id="defs1" /><g
     id="layer9"
     transform="translate(-53.815542,-7.1188541)"><path
       style="display:inline;fill:#000000;stroke-width:0.0800874"
       d="M 72.240274,39.481597 C 67.50004,39.360122 62.523101,38.435532 59.21976,37.062704 c -5.035448,-2.092672 -6.937846,-5.268857 -4.047243,-6.757145 0.139852,-0.07201 0.255826,-0.131888 0.25772,-0.133076 0.002,-9.88e-4 -0.02416,-0.135648 -0.05788,-0.298812 -1.357351,-6.565689 1.573266,-13.247038 7.337574,-16.728517 0.21061,-0.127205 0.342617,-0.21963 0.338591,-0.23708 -0.0035,-0.0157 -0.120431,-0.340668 -0.259574,-0.722096 -0.294269,-0.806683 -0.302087,-0.861288 -0.143751,-1.004129 0.122977,-0.110939 8.034786,-4.0624126 8.135088,-4.0629832 0.159148,-0.00101 0.237862,0.06364 0.341027,0.279687 0.04822,0.1009147 0.448496,0.950573 0.889577,1.8881247 0.441076,0.9375525 0.809795,1.7124775 0.819376,1.7220595 0.0096,0.0096 0.174102,0.04155 0.365603,0.07109 10.003739,1.541852 15.99554,11.956455 12.300059,21.37923 -0.164546,0.419557 -0.160837,0.36535 -0.03101,0.453442 0.579867,0.393413 1.052407,0.981172 1.177012,1.464006 0.425039,1.646939 -2.652547,3.629894 -7.016435,4.520834 -2.26371,0.462162 -4.682565,0.653525 -7.38523,0.584263 z m 1.356741,-3.707356 c 1.714798,-0.115332 3.020542,-0.514775 3.760191,-1.150284 l 0.08377,-0.07197 0.05811,-1.067773 c 0.03195,-0.587271 0.05864,-1.13636 0.05927,-1.22019 l 9.89e-4,-0.152429 -0.153625,0.0635 c -4.418961,1.826589 -10.624127,1.25554 -15.016672,-1.381955 -0.191511,-0.11499 -0.351682,-0.205591 -0.355942,-0.201337 -0.0045,0.0045 -0.0515,0.506778 -0.105009,1.116713 l -0.09727,1.108974 0.0494,0.09317 c 0.362401,0.68313 2.106532,1.618154 4.077714,2.186041 1.397017,0.402476 2.152485,0.508703 4.682937,0.658456 1.032553,0.06111 2.217403,0.06876 2.955973,0.01908 z m 11.324616,-3.638408 c 3.181557,-8.165474 -1.315401,-17.383499 -9.724787,-19.934209 -0.649415,-0.196978 -1.97071,-0.494582 -2.012094,-0.453198 -0.0062,0.0062 0.428353,0.945032 0.965721,2.086251 0.537364,1.141214 1.009785,2.146292 1.049827,2.233505 l 0.07279,0.15856 0.09227,-0.22638 c 0.60393,-1.481749 1.761168,-2.009196 1.82764,-0.833005 l 0.01202,0.212515 0.23552,-0.233582 c 1.064151,-1.055414 1.550269,0.300994 0.796675,2.222948 l -0.131326,0.334919 0.05329,0.09865 c 0.710813,1.315848 0.333452,3.808747 -0.801554,5.295226 l -0.07211,0.09445 0.234579,0.156727 c 0.876795,0.585805 1.154883,1.041055 1.099016,1.799152 -0.01118,0.151508 -0.03051,0.561528 -0.04299,0.911161 -0.02395,0.670022 -0.0887,1.890744 -0.181282,3.417118 -0.06402,1.055657 -0.07279,0.969522 0.100557,0.988817 1.679684,0.186958 4.220579,0.954752 5.791894,1.750164 0.268049,0.135688 0.493982,0.24115 0.502072,0.234362 0.0081,-0.0067 0.06763,-0.148154 0.132305,-0.314144 z m -2.149449,-1.471114 c -1.100108,-0.08254 -2.675777,-0.42631 -3.204948,-0.699248 -0.05641,-0.02912 -0.04875,-0.04702 0.114491,-0.268019 0.17535,-0.237383 0.153526,-0.220679 0.441104,-0.337672 0.122017,-0.04965 0.234352,-0.102752 0.249626,-0.11803 0.01525,-0.01525 0.270885,-1.028352 0.568023,-2.251292 0.297137,-1.222934 0.544811,-2.23832 0.550384,-2.256416 0.02037,-0.06618 -0.04498,-0.105198 -0.286721,-0.171183 -0.313424,-0.08555 -0.29066,-0.05098 -0.308409,-0.468421 -0.01684,-0.395974 -0.0082,-0.431186 0.09941,-0.407539 0.154569,0.03394 0.151499,0.0418 0.219671,-0.561865 0.03161,-0.279911 0.06454,-0.487058 0.07983,-0.502137 0.02445,-0.0241 0.371797,0.006 0.542807,0.04697 l 0.05061,0.01213 -0.01525,0.492802 c -0.01799,0.581801 -0.04374,0.528269 0.284135,0.590129 0.295054,0.05568 0.26938,0.08628 0.351288,-0.418666 0.08131,-0.501202 0.05309,-0.467153 0.34814,-0.420107 0.335857,0.05354 0.314611,0.0056 0.233183,0.526663 -0.08155,0.521886 -0.09851,0.480906 0.215631,0.520938 0.288972,0.03683 0.262114,0.07251 0.393255,-0.522543 0.133254,-0.604642 0.105969,-0.57017 0.400815,-0.506506 0.30069,0.06493 0.282853,0.01173 0.200745,0.598742 -0.08543,0.61074 -0.08711,0.591471 0.0561,0.644724 0.136445,0.05074 0.135888,0.03827 0.01973,0.441012 l -0.08861,0.307241 h -0.273013 c -0.220102,0 -0.27669,0.0062 -0.292008,0.03181 -0.03275,0.05479 -0.651939,4.768832 -0.632876,4.818244 0.0095,0.02465 0.07665,0.111554 0.149213,0.193136 0.180582,0.20303 0.185268,0.211604 0.232583,0.425623 0.07824,0.35392 0.159221,0.323856 -0.698971,0.259475 z M 56.862515,29.685446 c 1.220862,-0.31566 3.19283,-0.538427 4.333193,-0.489509 0.282973,0.01213 0.344366,0.0097 0.344506,-0.01397 8.4e-5,-0.01581 0.0092,-0.10979 0.02037,-0.208855 0.19098,-1.703517 0.383727,-4.273084 0.414064,-5.519933 0.03126,-1.284079 0.493051,-1.743838 1.966834,-1.958081 l 0.257879,-0.03748 -0.01059,-0.114682 c -0.08742,-0.946233 0.143764,-1.866112 0.662323,-2.635337 0.08442,-0.125218 0.166342,-0.248168 0.182057,-0.273222 0.02489,-0.03971 -1.681455,-4.799194 -1.742505,-4.860244 -0.02912,-0.02913 -1.002604,0.602911 -1.506913,0.97837 -4.255285,3.168084 -6.546141,8.377261 -6.006333,13.657787 0.05568,0.544774 0.20165,1.467789 0.265066,1.676237 0.009,0.02962 0.04443,0.02356 0.274693,-0.04722 0.145389,-0.04468 0.390805,-0.113915 0.545364,-0.153878 z m 0.778609,-1.107688 c -0.507385,-0.105711 -0.488391,-0.09619 -0.642891,-0.322305 -0.122691,-0.179568 -0.122582,-0.184697 0.0097,-0.455393 0.122881,-0.251479 0.06791,-0.211342 0.584294,-0.426565 0.28243,-0.117712 0.244798,-0.07625 0.418939,-0.461522 l 0.141465,-0.31298 0.01635,-0.820675 c 0.01863,-0.934206 0.02525,-0.88836 -0.154217,-1.063185 -0.131265,-0.127868 -0.18743,-0.14389 -0.517688,-0.147707 l -0.154664,-0.002 -0.0409,-0.09006 c -0.109786,-0.241867 -0.02166,-0.417245 0.211221,-0.420356 0.285041,-0.004 0.341489,-0.02023 0.418757,-0.121629 0.09995,-0.131211 0.09435,-0.144501 -0.157935,-0.374603 -0.278336,-0.253869 -0.263848,-0.219393 -0.322454,-0.767367 -0.05799,-0.542089 -0.08996,-0.46113 0.282163,-0.714153 l 0.309244,-0.210263 0.355538,-0.02693 c 0.623681,-0.04722 0.600154,-0.04994 0.94523,0.108845 0.165151,0.076 0.313668,0.146598 0.330034,0.156899 0.03634,0.02287 0.05244,0.136049 0.08792,0.617639 l 0.02744,0.372367 -0.183809,0.282187 c -0.21629,0.33206 -0.20717,0.286059 -0.08614,0.434635 0.122617,0.150525 0.163997,0.166334 0.389701,0.148869 0.269584,-0.02087 0.339039,0.0326 0.339039,0.261036 0,0.169459 -0.02808,0.185492 -0.359053,0.205118 -0.265816,0.01575 -0.251343,0.0084 -0.383618,0.191745 -0.141892,0.19653 -0.137239,0.133631 -0.07872,1.065462 l 0.05174,0.82379 0.167501,0.239089 c 0.207156,0.295696 0.188738,0.284558 0.557557,0.337136 0.352436,0.05024 0.33777,0.04139 0.504,0.304815 l 0.119526,0.189434 -0.07152,0.22129 c -0.0868,0.26855 -0.01734,0.214577 -0.621226,0.482814 l -0.504736,0.224198 -0.647621,0.0844 c -0.789388,0.102877 -0.777143,0.103007 -1.34016,-0.01432 z m 16.90943,-1.96486 c 1.800363,-0.185786 2.992926,-0.658862 3.318028,-1.316215 0.263476,-0.532741 0.0323,-0.937025 -0.857542,-1.499715 l -0.156451,-0.09893 -0.08723,0.07451 c -0.75032,0.640936 -1.417597,0.985287 -2.396912,1.236933 -3.599975,0.925064 -8.501151,-0.440046 -9.83926,-2.740491 l -0.09718,-0.167074 -0.188489,0.01336 c -1.147478,0.08144 -1.783136,0.561577 -1.542491,1.165074 0.669155,1.678111 4.358132,3.055472 8.944537,3.339643 0.203953,0.01263 0.408962,0.02649 0.45558,0.03076 0.250817,0.02302 2.140666,-0.0062 2.447415,-0.03787 z m -1.834109,-2.006105 c 1.610155,-0.121158 2.837717,-0.586318 3.652616,-1.384079 1.157978,-1.13363 1.737694,-3.053394 1.388398,-4.597754 l -0.03285,-0.145275 -0.08785,0.08453 c -0.348053,0.334904 -0.82372,-0.07094 -0.503254,-0.429382 0.160518,-0.179543 0.583569,-1.176281 0.689687,-1.624976 0.0563,-0.23804 0.118215,-0.683132 0.116928,-0.840564 l -9.89e-4,-0.09871 -0.107096,0.11485 c -0.134034,0.143734 -0.358426,0.440056 -0.600015,0.792345 -0.291425,0.424968 -0.505361,0.505371 -0.718104,0.269896 -0.118717,-0.131404 -0.120099,-0.159757 -0.03881,-0.79568 0.02385,-0.186467 0.04726,-0.39586 0.05205,-0.465314 l 0.0086,-0.126276 -0.08345,0.09403 c -0.222098,0.250271 -0.37866,0.540728 -0.590965,1.096371 -0.147468,0.385945 -0.168412,0.428283 -0.264484,0.534624 -0.221977,0.245704 -0.53059,0.325422 -0.90884,0.234764 -0.237563,-0.05693 -0.60919,-0.130375 -0.617529,-0.122035 -0.004,0.004 4.97e-4,0.135038 0.0098,0.291565 0.02356,0.40079 -0.05192,0.584642 -0.244306,0.595044 -0.301052,0.01625 -0.383996,-0.08414 -0.411838,-0.498592 -0.105839,-1.575527 -0.747596,-2.377279 -2.039324,-2.547738 -1.873931,-0.24729 -3.099142,0.804814 -3.252529,2.792989 -0.04821,0.625156 -0.636413,0.653321 -0.655976,0.03141 l -0.0071,-0.229332 -0.08814,0.01407 c -1.590882,0.253947 -2.949119,2.429244 -2.442896,3.912464 0.505927,1.482365 3.070832,2.794615 5.914638,3.026018 0.151508,0.01232 0.313607,0.0255 0.360225,0.02923 0.216137,0.01734 1.236488,0.01158 1.503273,-0.0084 z m -3.134886,-5.474677 c -0.925793,-0.213433 -1.29309,-1.188532 -0.583196,-1.548265 0.656483,-0.332667 1.579179,-0.119498 1.783388,0.412005 0.263034,0.684613 -0.407146,1.319089 -1.200192,1.13626 z m 0.46515,-0.656745 c 0.201923,-0.08436 0.159504,-0.289076 -0.07314,-0.352975 -0.183003,-0.05026 -0.678071,-0.0084 -0.678071,0.05714 0,0.188843 0.518547,0.393047 0.751214,0.295831 z m 1.376481,-0.561012 c -0.156368,-0.09535 -0.210059,-0.2527 -0.140147,-0.410738 0.145936,-0.329923 0.618795,-0.232852 0.618795,0.12703 0,0.246773 -0.27344,0.408847 -0.478648,0.283708 z M 69.6327,17.023018 c -0.218722,-0.06628 -0.327423,-0.349583 -0.204264,-0.532343 0.230997,-0.342775 0.757153,-0.116799 0.650479,0.279375 -0.05129,0.190451 -0.260713,0.309184 -0.446215,0.252968 z m -3.600429,0.50262 c 0.429914,-0.289106 0.894811,-0.4786 1.324362,-0.539819 0.128198,-0.01829 0.235017,-0.03459 0.237379,-0.03634 0.0025,-0.0014 0.03664,-0.107654 0.07616,-0.235436 0.0395,-0.127776 0.0918,-0.281158 0.116167,-0.340842 l 0.04428,-0.108508 -0.177671,-0.07917 c -0.518388,-0.230982 -0.517662,-0.224258 -0.234784,-2.171673 0.31083,-2.139822 0.08186,-2.028774 1.973124,-0.956965 1.568475,0.888886 1.562943,0.884787 1.593559,1.181422 l 0.01173,0.11384 h 0.134039 c 1.281042,0 2.327301,0.746827 2.731033,1.949439 l 0.06757,0.201282 0.114647,0.0156 c 0.06305,0.0085 0.241627,0.04055 0.396819,0.07102 0.155191,0.03047 0.286277,0.05128 0.291297,0.04627 0.0095,-0.0095 -4.072655,-8.7017144 -4.100766,-8.7318421 -0.01765,-0.018889 -7.337489,3.6556801 -7.348596,3.6889971 -0.004,0.01143 0.503889,1.416434 1.128212,3.122257 0.624322,1.705817 1.139654,3.114186 1.145176,3.129702 0.0068,0.01938 0.04815,-0.0025 0.131896,-0.07073 0.06702,-0.0544 0.221967,-0.166255 0.344337,-0.248546 z m -0.328442,-3.732286 c -0.116541,-0.06214 -0.381606,-0.201565 -0.589036,-0.309844 -0.510848,-0.266677 -0.479965,-0.171831 -0.355161,-1.09071 0.111222,-0.818916 0.03847,-0.787784 0.745768,-0.319145 0.69322,0.459321 0.638108,0.335326 0.582927,1.311494 -0.03404,0.60251 -0.02937,0.59754 -0.384498,0.408205 z"
       id="path314" /></g></svg>
