<?xml version="1.0" encoding="UTF-8" standalone="no"?>
<!-- Created with Inkscape (http://www.inkscape.org/) -->

<svg
   width="38.143593mm"
   height="33.683781mm"
   viewBox="0 0 38.143593 33.683781"
   version="1.1"
   id="svg1"
   xml:space="preserve"
   xmlns="http://www.w3.org/2000/svg"
   xmlns:svg="http://www.w3.org/2000/svg"><defs
     id="defs1" /><g
     id="layer9"
     transform="translate(-6.0106813,-58.854167)"><path
       style="display:inline;fill:#000000;stroke-width:0.112509;stroke-dasharray:none;paint-order:stroke fill markers"
       d="m 13.602774,92.52673 c -0.04615,-0.01105 -0.115258,-0.05179 -0.153596,-0.09073 -0.06834,-0.06926 -3.5845495,-5.381007 -3.6600709,-5.529037 -0.035634,-0.06979 -0.025678,-0.21845 0.1372215,-2.046544 0.096609,-1.084184 0.1784674,-2.027059 0.1819134,-2.095275 l 0.0062,-0.124027 -1.9799428,-2.862981 C 5.9339689,76.596169 6.0316403,76.749451 6.0151405,76.452052 c -0.019,-0.341591 -0.029715,-0.322355 1.1384829,-2.027947 l 1.0493503,-1.532003 0.068062,-0.471329 C 9.9868643,60.537715 23.781004,54.820031 33.299835,62.0463 c 0.219506,0.166636 0.417332,0.316182 0.439624,0.332319 0.03048,0.02207 1.194713,0.03611 4.716574,0.05671 3.111898,0.01823 4.721685,0.03627 4.812488,0.05394 0.532986,0.103809 0.940437,0.642136 0.879755,1.162359 -0.0071,0.06138 -0.358466,3.672625 -0.780679,8.024943 -0.813094,8.381521 -0.784958,8.116363 -0.882463,8.316171 -0.238928,0.489575 -0.599134,0.593368 -1.498821,0.431906 -1.811405,-0.325097 -2.410081,-0.429638 -2.415871,-0.421819 -0.0041,0.0049 -0.08259,0.198543 -0.175615,0.430483 -1.100325,2.743612 -2.968301,5.123543 -5.405962,6.887564 -0.148738,0.107641 -0.273647,0.192503 -0.277572,0.188598 -0.0076,-0.0073 0.954433,-3.338718 1.083685,-3.752069 0.09311,-0.297823 0.09268,-0.520365 -0.0013,-0.706987 -0.08708,-0.172756 -2.015156,-3.324092 -2.033765,-3.324092 -0.01823,0 -0.250201,0.639092 -0.249847,0.688362 9.6e-5,0.01706 0.38734,0.664408 0.860472,1.438598 1.013698,1.658671 0.984087,1.596626 0.814805,1.707547 -0.05436,0.03564 -5.195364,0.825321 -20.589978,3.162766 -0.995911,0.151208 -1.813973,0.278154 -1.817913,0.282112 -0.0041,0.0042 0.729404,1.12485 1.629683,2.490938 0.900263,1.366078 1.647511,2.52238 1.660538,2.569558 0.0761,0.275608 -0.179393,0.528699 -0.464831,0.4605 z m -0.793289,-7.251427 c 0.0623,-0.04737 3.322303,-5.317957 3.377746,-5.460859 0.114762,-0.295797 0.205191,0.103977 -1.490024,-6.587439 -1.65999,-6.552386 -1.567919,-6.21406 -1.691006,-6.21406 -0.07641,0 -3.5803619,5.047058 -6.2045964,8.937059 -0.2799113,0.414933 -0.2886512,0.475819 -0.1064198,0.742166 1.361915,1.990534 5.8833132,8.519218 5.9280742,8.559859 0.06862,0.06232 0.125585,0.06937 0.186226,0.02327 z m -0.332056,-2.101344 c -0.938066,-0.237111 -1.524472,-1.642628 -1.11757,-2.678614 0.188001,-0.478642 0.814145,-1.186923 1.052427,-1.190478 0.0086,-9.8e-5 0.118729,0.412637 0.244802,0.917259 0.12608,0.504621 0.2373,0.912505 0.247154,0.906414 0.0099,-0.0056 0.234592,-0.373988 0.499403,-0.817536 0.264803,-0.443543 0.487704,-0.806773 0.495331,-0.807184 0.06479,-0.0032 0.41929,0.734437 0.495604,1.031608 0.305757,1.190632 -0.92796,2.888589 -1.917151,2.638531 z M 10.00313,79.696739 C 9.8836139,79.635275 8.0792216,76.896576 8.0221844,76.69 c -0.08882,-0.321695 0.2911017,-0.591794 0.5692383,-0.404689 0.060757,0.04091 0.2958343,0.384382 0.8423858,1.230969 0.416957,0.645848 0.7685975,1.171515 0.7814145,1.168161 0.01281,-0.0032 0.793555,-0.933693 1.734961,-2.067443 0.941413,-1.133744 1.749594,-2.0868 1.795949,-2.117909 0.30227,-0.202817 0.686213,0.133541 0.538089,0.471379 -0.04106,0.09365 -3.817827,4.64379 -3.909258,4.709755 -0.104967,0.0757 -0.244509,0.08194 -0.371834,0.01657 z m 3.199402,-0.90943 c -0.153344,-0.08159 -0.236333,-0.296641 -0.175858,-0.455689 0.04796,-0.126079 1.219162,-1.766232 1.295997,-1.814882 0.169664,-0.107421 0.443007,-0.03444 0.52513,0.140177 0.0675,0.143532 0.513294,1.699628 0.513294,1.791691 0,0.291806 -0.333573,0.465746 -0.590749,0.308042 -0.09478,-0.05817 -0.142322,-0.164964 -0.266716,-0.599323 -0.06542,-0.228527 -0.126018,-0.415512 -0.134598,-0.415512 -0.0086,0 -0.171229,0.222736 -0.361401,0.49496 -0.426062,0.609862 -0.54315,0.68993 -0.805099,0.550536 z m -3.05033,-1.535467 C 9.9309354,77.140674 9.9317154,77.148464 9.9992955,75.730874 c 0.059084,-1.239642 0.010597,-1.172256 0.8531985,-1.184649 0.442165,-0.0062 0.539544,-0.0142 0.539544,-0.04266 0,-0.01907 -0.06693,-0.49554 -0.148786,-1.058751 -0.215171,-1.480867 -0.300769,-1.296957 0.806161,-1.73194 1.02736,-0.403707 1.25299,-0.391834 1.25265,0.06591 -1.95e-4,0.258805 -0.03674,0.285478 -0.793728,0.579455 -0.320622,0.12452 -0.590079,0.234196 -0.598786,0.243716 -0.0087,0.0096 0.05525,0.497329 0.142169,1.084006 0.244878,1.653141 0.274204,1.575344 -0.605266,1.605381 -0.295981,0.01007 -0.566059,0.02143 -0.600157,0.02513 l -0.062,0.0069 -0.03876,0.845678 c -0.03473,0.757148 -0.04398,0.854527 -0.08817,0.930166 -0.106483,0.182323 -0.318617,0.246521 -0.505089,0.152829 z m 19.956173,5.153721 c 0.08967,-0.03412 -0.07656,0.414819 2.310238,-6.238969 2.366676,-6.597676 2.224369,-6.16243 2.080801,-6.363773 -0.06988,-0.09801 -7.187401,-3.930864 -7.398758,-3.984303 -0.06695,-0.0169 -0.172038,0.04579 -0.205831,0.12285 -0.04294,0.09796 -1.590223,12.295743 -1.580675,12.461132 0.01454,0.25119 -0.02762,0.212574 2.354951,2.158737 2.533425,2.069395 2.303849,1.895817 2.439274,1.844326 z m -1.227665,-1.88868 c -0.402489,-0.314436 -0.753127,-0.586972 -0.779202,-0.60563 -0.04481,-0.03211 0.2981,-2.559987 0.355272,-2.618533 0.008,-0.0082 0.347157,0.125706 0.753578,0.297674 l 0.738958,0.312672 -0.01182,0.07441 c -0.0062,0.04086 -0.07645,0.758153 -0.155385,1.593824 -0.07894,0.835672 -0.149378,1.518916 -0.156539,1.518344 -0.0071,-5.07e-4 -0.342335,-0.258336 -0.744818,-0.572764 z m -2.257404,-1.662461 c -0.552195,-0.38369 -0.607256,-0.428342 -0.602302,-0.488393 0.0049,-0.06243 0.754784,-4.525644 0.761889,-4.536229 0.0035,-0.0041 1.261306,0.390437 1.270422,0.398621 0.016,0.01434 -0.778381,5.036637 -0.797436,5.041705 -0.01363,0.004 -0.298296,-0.183442 -0.632573,-0.415704 z m 2.765945,-1.956545 c -0.39567,-0.161913 -0.726954,-0.297797 -0.736196,-0.301978 -0.01538,-0.0069 0.273057,-2.00405 0.29271,-2.026862 0.0099,-0.01141 2.220513,0.763934 2.247089,0.788124 0.02282,0.02074 -1.025382,1.839507 -1.058765,1.836993 -0.01406,-0.0014 -0.349176,-0.134373 -0.744838,-0.296277 z m 1.281165,-2.726383 c -0.700648,-0.216088 -1.303443,-0.414536 -1.339554,-0.440994 -0.277523,-0.203333 -0.135125,-0.677141 0.203501,-0.677141 0.109084,0 2.584609,0.746671 2.703158,0.815329 0.314749,0.182288 0.172323,0.700689 -0.191439,0.696786 -0.05853,-6.11e-4 -0.643283,-0.168113 -1.375666,-0.39398 z m -3.11686,-1.050706 c -0.354727,-0.122892 -0.646832,-0.224615 -0.649107,-0.226055 -0.0083,-0.0049 0.810902,-5.431683 0.821536,-5.44231 0.01066,-0.0106 1.87671,0.984191 1.958153,1.043887 0.03521,0.02582 -1.347669,4.559431 -1.466482,4.807906 -0.01656,0.03467 -0.104746,0.01042 -0.6641,-0.183428 z m 3.45216,-0.251644 c -1.009126,-0.298742 -1.082964,-0.340052 -1.083088,-0.605843 -1.86e-4,-0.432212 0.200283,-0.451796 1.305085,-0.12747 1.142339,0.33534 1.258954,0.41885 1.087995,0.779097 -0.131007,0.276091 -0.235005,0.272451 -1.309992,-0.04579 z m 0.107596,-1.380077 c -1.070438,-0.358383 -1.185374,-0.402099 -1.255383,-0.477543 -0.197877,-0.213229 -0.07904,-0.573937 0.206771,-0.627585 0.157589,-0.02957 2.480959,0.754394 2.584212,0.87199 0.213389,0.243035 0.03062,0.638954 -0.290691,0.629573 -0.03661,-0.0013 -0.596839,-0.179462 -1.244909,-0.396435 z m 2.021738,-0.736083 c -0.204132,-0.04295 -2.192724,-0.840506 -2.264084,-0.908025 -0.243842,-0.230709 -0.08728,-0.635989 0.24586,-0.636464 0.112328,-1.87e-4 2.147505,0.759899 2.298478,0.858391 0.324845,0.211914 0.09858,0.765834 -0.280254,0.686098 z m 8.655041,9.162043 c 0.09758,-0.04079 0.207431,-0.175534 0.226282,-0.277574 0.05818,-0.314734 1.570941,-16.130677 1.550222,-16.207087 -0.04035,-0.149025 -0.137776,-0.265653 -0.278923,-0.334152 l -0.130748,-0.06346 -8.806346,-0.0492 c -4.843495,-0.027 -9.459392,-0.0524 -10.257544,-0.05651 -2.013041,-0.01007 -1.840711,-0.123985 -2.184633,1.443918 -0.118215,0.538926 -0.207257,0.98292 -0.197877,0.986664 0.0095,0.0041 0.914872,-0.07378 2.012198,-0.172252 1.613418,-0.144794 2.087699,-0.179318 2.478873,-0.180445 l 0.483724,-0.0013 0.310086,0.133157 c 0.55207,0.237086 7.677139,4.039734 7.830108,4.178932 0.222894,0.20283 0.351257,0.541185 0.316879,0.835286 -0.01007,0.0856 -0.441546,1.324091 -1.158234,3.32409 -0.628251,1.753205 -1.146945,3.210467 -1.152652,3.238359 -0.0099,0.0483 0.01858,0.05457 0.604437,0.132251 0.762473,0.101135 0.846332,0.141758 0.870334,0.421771 0.03403,0.396946 -0.148982,0.4483 -1.121615,0.314691 -0.341089,-0.04685 -0.627813,-0.07753 -0.637166,-0.0682 -0.02666,0.02666 -0.287691,0.773448 -0.270877,0.774937 0.0083,5.05e-4 2.085734,0.373352 4.616627,0.828044 4.763207,0.855736 4.760076,0.85523 4.896845,0.798083 z M 37.22814,78.426771 c -0.09526,-0.0416 -2.637985,-2.507122 -2.66857,-2.587564 -0.08508,-0.223757 -0.164633,-0.08815 1.134474,-1.933684 1.224707,-1.739851 1.212319,-1.727402 1.52013,-1.528899 0.174536,0.112557 3.282021,2.572904 3.316914,2.62617 0.169268,0.258338 0.195762,0.223715 -1.467254,1.918179 -1.603869,1.634203 -1.582235,1.616455 -1.835694,1.505798 z m 1.462091,-2.218825 c 0.512467,-0.523009 0.931115,-0.958366 0.930327,-0.967469 -0.0021,-0.02025 -2.137539,-1.693657 -2.148151,-1.683052 -0.0041,0.0041 0.04802,0.787485 0.115953,1.740702 0.06791,0.953222 0.123511,1.765557 0.123511,1.805204 0,0.106025 -0.02769,0.131365 0.97836,-0.895385 z m -1.859187,-0.786922 c -0.06277,-0.885322 -0.11697,-1.612456 -0.120364,-1.615846 -0.0072,-0.0071 -1.263937,1.774071 -1.278678,1.812562 -0.0055,0.01447 0.329356,0.357728 0.7442,0.762835 0.528409,0.515986 0.756468,0.723599 0.761644,0.693334 0.0041,-0.02373 -0.04397,-0.767567 -0.106802,-1.652885 z m 3.559942,-2.457882 c -0.993802,-0.07262 -0.95616,-0.06632 -1.069601,-0.179741 -0.210876,-0.210878 -0.103808,-0.584048 0.182233,-0.635121 0.177709,-0.03175 2.026151,0.124645 2.096793,0.177396 0.239987,0.179177 0.231504,0.476945 -0.01843,0.647062 -0.101186,0.0689 -0.119308,0.06868 -1.190977,-0.0097 z m -2.524865,-1.115545 c -0.196742,-0.100362 -0.220186,-0.233001 -0.171432,-0.969683 l 0.02004,-0.302542 -0.106851,-0.02659 c -1.350203,-0.335516 -2.45107,-1.593223 -2.45107,-2.800253 0,-0.118675 0.0084,-0.116566 -0.558145,-0.140993 -0.490114,-0.02108 -0.632567,-0.109113 -0.632567,-0.390715 0,-0.322612 0.153873,-0.399094 0.735013,-0.365349 0.230173,0.01335 0.436784,0.02442 0.459143,0.02463 0.02762,2.78e-4 0.04587,-0.02943 0.05699,-0.09268 0.21828,-1.241338 1.608587,-2.462057 2.80408,-2.462057 0.08773,0 0.111416,-0.06972 0.112807,-0.332155 0.0013,-0.242144 0.160938,-0.412134 0.386895,-0.411953 0.277552,1.87e-4 0.396839,0.180492 0.368606,0.557065 l -0.01727,0.23021 0.118794,0.01781 c 0.473606,0.07102 1.093618,0.386678 1.553835,0.791081 0.259241,0.227795 0.170241,0.232972 0.613323,-0.03569 0.506696,-0.307234 0.708894,-0.316357 0.843611,-0.03807 0.134157,0.277127 0.05554,0.394195 -0.477032,0.710071 -0.348723,0.206847 -0.337837,0.190911 -0.25627,0.375327 0.0856,0.193591 0.158378,0.473139 0.189464,0.727888 0.03291,0.269847 6.61e-4,0.241217 0.290822,0.258845 0.355181,0.02164 0.50257,0.135023 0.50257,0.386811 0,0.27964 -0.18306,0.395642 -0.585543,0.371041 l -0.275464,-0.01683 -0.0167,0.104683 c -0.212199,1.326958 -1.281862,2.38223 -2.607583,2.572493 -0.150073,0.02157 -0.276306,0.04203 -0.28051,0.04545 -0.0041,0.0035 -0.02227,0.224375 -0.04016,0.490975 -0.04558,0.680695 -0.223848,0.902518 -0.579378,0.721142 z m 1.109555,-2.071839 c 0.59271,-0.150639 1.095224,-0.575523 1.389911,-1.175186 0.128277,-0.261031 0.267341,-0.671774 0.237528,-0.701581 -0.01566,-0.01566 -1.926321,-0.110372 -1.940525,-0.09617 -0.0055,0.0055 -0.132106,1.927399 -0.132106,2.010591 0,0.05296 0.133136,0.04168 0.445192,-0.03764 z m -1.20484,-0.12711 c 0.03424,-0.350428 0.119128,-1.858114 0.105436,-1.871796 -0.01727,-0.01727 -1.926684,-0.108835 -1.951376,-0.09358 -0.0899,0.05561 0.177563,0.820457 0.399846,1.143528 0.302619,0.439846 1.059413,0.961895 1.415249,0.976258 0.0086,2.93e-4 0.02255,-0.0691 0.03089,-0.154409 z m 2.942206,-2.579891 c -0.0013,-0.160943 -0.136635,-0.638774 -0.180986,-0.638774 -0.08849,0 -1.060784,0.633081 -0.982285,0.63959 0.08198,0.0068 0.844661,0.04371 1.058272,0.05129 0.09401,0.0035 0.105382,-0.0028 0.104998,-0.05213 z m -2.767628,-0.173645 c 0.01198,-0.09444 0.114402,-1.692668 0.113935,-1.777089 -6.61e-4,-0.165385 -0.893632,0.183673 -1.291139,0.504844 -0.361904,0.292404 -0.894001,1.160301 -0.78097,1.273826 0.01349,0.01356 1.302551,0.08427 1.828545,0.100301 l 0.116303,0.0041 z m 1.446711,-0.679582 c 0.351543,-0.213458 0.649625,-0.3975 0.662408,-0.408982 0.09284,-0.08341 -0.62455,-0.52152 -1.044229,-0.637716 l -0.177543,-0.04914 -0.01447,0.165232 c -0.008,0.09087 -0.02582,0.360575 -0.03981,0.599343 -0.01392,0.238763 -0.03181,0.498305 -0.03987,0.576748 -0.0183,0.179009 -0.08983,0.205893 0.653507,-0.245462 z m -7.609043,-0.171669 c -1.999311,-0.05992 -1.974458,-0.05845 -2.063175,-0.118883 -0.265352,-0.180688 -0.244161,-0.538688 0.03918,-0.661565 0.164151,-0.07119 3.642561,0.02762 3.809686,0.10827 0.257697,0.124291 0.280133,0.468728 0.0421,0.646403 -0.09089,0.06785 -0.316752,0.07104 -1.827765,0.02582 z m 0.328103,-1.540227 c -0.235859,-0.08109 -0.327678,-0.370679 -0.18226,-0.574897 0.104546,-0.146823 0.104399,-0.146809 1.404573,-0.165057 l 1.190725,-0.0167 0.111626,0.05776 c 0.29982,0.155163 0.270078,0.603826 -0.04571,0.689548 -0.138084,0.0375 -2.372599,0.04592 -2.478955,0.0095 z m -6.963874,-0.03355 c -1.826632,-0.01441 -2.042165,-0.02019 -2.112807,-0.0572 -0.251456,-0.131509 -0.271303,-0.497832 -0.03548,-0.655359 l 0.08428,-0.05631 1.342093,0.0013 c 3.448867,0.0035 6.129284,0.03995 6.224813,0.08525 0.251949,0.119551 0.273995,0.512373 0.03689,0.656943 -0.0926,0.05651 -1.044917,0.06075 -5.539767,0.0254 z M 20.755095,78.99261 c 4.029171,-0.473526 3.738001,-0.416025 3.867029,-0.763474 0.01837,-0.04956 1.529692,-12.222319 1.53629,-12.374042 0.01377,-0.315813 0.04113,-0.313385 -1.756096,-0.155531 -0.845467,0.07427 -3.518646,0.308626 -5.94039,0.520816 -4.721766,0.413695 -4.470631,0.384015 -4.565513,0.539621 -0.07175,0.117694 -0.154973,-0.239561 1.463156,6.281501 1.586075,6.391882 1.538961,6.2184 1.712809,6.306521 0.13967,0.0708 -0.3277,0.115893 3.682715,-0.355412 z M 18.08788,78.602652 c -0.0013,-0.0024 -0.104841,-0.680394 -0.230613,-1.505834 l -0.228669,-1.500799 0.273349,-0.02004 c 0.150338,-0.011 0.278227,-0.02491 0.284183,-0.03083 0.01476,-0.01476 -0.07591,-0.920862 -0.09526,-0.952165 -0.01007,-0.01636 -0.252153,-0.0028 -0.70348,0.03973 -0.378446,0.03555 -0.6944,0.05838 -0.702131,0.05059 -0.01664,-0.01657 -0.607361,-2.752082 -0.59665,-2.762791 0.0099,-0.0099 2.606029,-0.156082 2.614867,-0.147244 0.0041,0.0041 0.04106,0.268277 0.08269,0.587639 0.04162,0.319369 0.08339,0.587143 0.0928,0.595086 0.0095,0.0079 0.489736,-0.02359 1.067423,-0.07012 0.577685,-0.04648 1.055474,-0.07937 1.061758,-0.07309 0.01594,0.01593 0.118131,3.463488 0.103072,3.478547 -0.0069,0.0068 -0.171501,0.02826 -0.366121,0.04782 -0.194619,0.01948 -0.357791,0.03946 -0.362599,0.04426 -0.0041,0.0041 6.11e-4,0.449136 0.01161,0.987388 0.0112,0.538253 0.01615,0.98355 0.011,0.989527 -0.0049,0.0056 -0.475227,0.05809 -1.044548,0.115733 -0.569328,0.05768 -1.088162,0.110849 -1.152972,0.118185 -0.06479,0.0071 -0.118709,0.01102 -0.119775,0.0083 z m 3.301724,-1.003536 c -0.282855,-0.142109 -0.263788,-0.579434 0.02986,-0.684475 0.139365,-0.04983 2.055437,-0.19222 2.16816,-0.16109 0.256348,0.07079 0.360019,0.391124 0.191405,0.5915 -0.115529,0.137302 -0.138904,0.141671 -1.18776,0.221928 -1.16149,0.08887 -1.092379,0.08703 -1.201638,0.03214 z m 0.67215,-1.52162 c -0.313921,-0.06597 -0.373763,-0.530579 -0.08961,-0.69561 0.07557,-0.04384 0.945199,-0.120888 1.362839,-0.120665 0.348542,1.89e-4 0.527169,0.256612 0.379741,0.54516 -0.09002,0.176205 -0.147313,0.193326 -0.789135,0.23577 -0.306148,0.02025 -0.606858,0.04043 -0.668252,0.04489 -0.06138,0.0041 -0.149407,1.81e-4 -0.195588,-0.0097 z m 0.08654,-1.492761 c -0.261624,-0.149983 -0.248824,-0.530244 0.02221,-0.66052 0.08183,-0.03932 0.219087,-0.05512 0.782703,-0.0902 l 0.683466,-0.04252 0.103799,0.05296 c 0.321082,0.163806 0.233328,0.660607 -0.125103,0.708256 -0.111515,0.01489 -1.2123,0.08853 -1.311864,0.08784 -0.03222,-1.94e-4 -0.102072,-0.02533 -0.155231,-0.05581 z m 0.06382,-1.37469 c -0.253092,-0.124714 -0.27312,-0.509758 -0.03424,-0.657417 0.08816,-0.0545 1.144051,-0.164954 1.605025,-0.167925 0.269855,-0.0021 0.419233,0.147298 0.402887,0.401989 -0.01948,0.304177 -0.08194,0.329161 -1.010651,0.404576 -0.869401,0.07059 -0.858343,0.07039 -0.963063,0.01879 z m -1.9021,-1.246775 c -0.279222,-0.113914 -0.300496,-0.547456 -0.03361,-0.685455 0.07342,-0.03792 2.769536,-0.239659 3.53136,-0.264177 0.487594,-0.01566 0.676062,0.546349 0.241978,0.721616 -0.138118,0.05575 -3.638733,0.269208 -3.739712,0.228016 z m -4.353563,-1.048554 c -0.323782,-0.08801 -0.367917,-0.55491 -0.06598,-0.698185 0.06396,-0.03034 0.35079,-0.05775 1.209808,-0.115669 0.619288,-0.04176 1.522273,-0.102788 2.006625,-0.135667 0.484349,-0.03284 1.857397,-0.14059 3.051212,-0.23936 1.193817,-0.09877 2.200415,-0.171899 2.23689,-0.162511 0.310252,0.07988 0.372515,0.532083 0.09569,0.695032 -0.06535,0.03848 -0.389713,0.07151 -2.128881,0.21698 -2.019618,0.168905 -2.728831,0.2216 -4.966576,0.369009 -0.620785,0.04091 -1.178937,0.07877 -1.240331,0.08415 -0.06138,0.0049 -0.1507,-6.62e-4 -0.198455,-0.01378 z M 15.559543,69.64007 c 0,-0.0094 -0.100617,-0.508303 -0.223619,-1.108788 -0.122998,-0.600471 -0.220683,-1.094654 -0.217063,-1.09817 0.0079,-0.0078 2.608646,-0.154637 2.617547,-0.147819 0.0098,0.0073 0.206478,2.127839 0.198246,2.136072 -0.0041,0.0041 -0.503733,0.05261 -1.110556,0.108076 -0.606818,0.05546 -1.13959,0.106879 -1.183935,0.114248 -0.04434,0.0073 -0.08062,0.0055 -0.08062,-0.0041 z m 2.951996,-0.30591 c 0,-0.02797 -0.05115,-0.52079 -0.113595,-1.095185 -0.06242,-0.574388 -0.109912,-1.047992 -0.105424,-1.052446 0.01525,-0.01509 2.255024,-0.167597 2.26824,-0.154388 0.01253,0.01253 0.06396,2.130204 0.05206,2.142125 -0.0035,0.0035 -0.429777,0.04545 -0.94806,0.09385 -0.518289,0.04851 -0.989787,0.0946 -1.04777,0.102504 -0.09442,0.01287 -0.105425,0.009 -0.105425,-0.03648 z m 2.695066,-0.481852 c -0.01496,-0.278408 -0.02324,-1.873893 -0.0098,-1.87889 0.02499,-0.0093 2.290383,-0.21327 2.297433,-0.206922 0.0126,0.01141 -0.05909,2.165487 -0.07253,2.177909 -0.0055,0.0055 -0.474176,0.05052 -1.040387,0.09989 -0.566203,0.04941 -1.058571,0.09316 -1.094138,0.09727 l -0.06465,0.0074 z m 1.931367,21.401586 c -2.127017,-0.113998 -4.123904,-0.605255 -5.965994,-1.467708 -0.242317,-0.113451 -0.255289,-0.123083 -0.186052,-0.138177 0.114298,-0.02506 15.253396,-2.445833 15.258158,-2.439939 0.0069,0.0084 -0.551347,1.918061 -0.569461,1.947376 -0.05735,0.09284 -1.304716,0.703403 -2.024913,0.991209 -2.011064,0.803633 -4.447137,1.217859 -6.511738,1.107239 z m -7.51641,-2.297803 c -0.799844,-0.500478 -1.300819,-0.869821 -1.21202,-0.893547 0.03897,-0.01063 1.471868,-0.231376 3.184148,-0.491015 1.712278,-0.259628 5.824492,-0.884599 9.138254,-1.388815 3.313763,-0.504225 6.035955,-0.916767 6.049302,-0.916767 0.02978,0 0.02548,0.0179 -0.146509,0.610529 l -0.137619,0.474079 -0.313608,0.0519 c -0.172482,0.02863 -3.913668,0.62756 -8.313748,1.331141 -4.400071,0.703592 -8.02804,1.283932 -8.062154,1.28968 -0.04016,0.0073 -0.10571,-0.01684 -0.186046,-0.06716 z"
       id="path171" /></g></svg>
