<?xml version="1.0" encoding="UTF-8" standalone="no"?>
<!-- Created with Inkscape (http://www.inkscape.org/) -->

<svg
   width="34.66375mm"
   height="31.630062mm"
   viewBox="0 0 34.66375 31.630062"
   version="1.1"
   id="svg1"
   xml:space="preserve"
   xmlns="http://www.w3.org/2000/svg"
   xmlns:svg="http://www.w3.org/2000/svg"><defs
     id="defs1" /><g
     id="layer9"
     transform="translate(-99.743771,-8.2457667)"><path
       style="display:inline;fill:#000000;stroke-width:0.0849495"
       d="m 118.04086,39.86041 c -7.1085,-0.321711 -13.01818,-5.089422 -14.7614,-11.908942 l -0.0745,-0.291231 -0.75219,-0.591985 c -1.44684,-1.138717 -1.95497,-1.771393 -2.34548,-2.920326 -0.262704,-0.772909 -0.276214,-0.916069 -0.315814,-3.344842 -0.0181,-1.112575 -0.0378,-2.242419 -0.0437,-2.51077 -0.012,-0.546528 -0.003,-0.605319 0.11079,-0.715561 l 0.0801,-0.07768 1.027074,-0.01588 c 0.56488,-0.0088 1.23024,-0.02243 1.47859,-0.03042 l 0.45155,-0.01459 0.0151,-0.844709 c 0.009,-0.464592 0.008,-0.851923 -0.002,-0.860739 -0.01,-0.0089 -0.60279,-0.27043 -1.31857,-0.581369 -1.51071,-0.656296 -1.40688,-0.606708 -1.53157,-0.731404 -0.259724,-0.259717 -0.258544,-0.249441 -0.259194,-2.255043 l -5e-4,-1.696407 0.0629,-0.101361 c 0.094,-0.151399 0.160574,-0.175113 0.704584,-0.251184 0.26519,-0.03707 2.26735,-0.3155762 4.44924,-0.6188716 2.18188,-0.3032965 4.28862,-0.5966906 4.68164,-0.6519796 1.14123,-0.1605564 1.19844,-0.1563794 2.46918,0.1801839 l 0.88243,0.2337145 0.42804,-0.1464626 C 124.6293,5.2966598 135.9023,14.631669 134.2445,26.30973 c -1.12819,7.947301 -8.25859,13.910233 -16.20372,13.550658 z m 6.03661,-2.374908 c 0.23239,-0.156609 0.23802,-0.441846 0.012,-0.610554 -0.0621,-0.04631 -0.0639,-0.04636 -3.83272,-0.05215 l -3.77065,-0.0057 -0.77913,-1.984974 c -0.42853,-1.091732 -0.77914,-1.995436 -0.77914,-2.008225 0,-0.01889 5.2813,-2.457724 5.29814,-2.446638 0.003,0.002 0.16548,0.414179 0.36162,0.916374 0.39592,1.013676 0.39659,1.01503 0.52857,1.07495 0.15421,0.07001 7.63904,0.06715 7.78393,-0.003 0.24092,-0.116626 0.26716,-0.452517 0.0475,-0.60911 l -0.0733,-0.05235 -3.67792,-0.0058 -3.67793,-0.0057 -0.10709,-0.275134 c -0.0589,-0.151329 -0.20037,-0.512822 -0.31435,-0.803328 -0.11399,-0.290503 -0.20096,-0.535038 -0.19327,-0.543406 0.008,-0.0085 0.86865,-0.406156 1.91323,-0.883976 1.04458,-0.47782 1.94125,-0.893103 1.99261,-0.922847 0.18352,-0.106317 0.18196,-0.09605 0.20012,-1.319008 l 0.0159,-1.073241 h 3.55048 c 3.24475,0 3.55715,-0.003 3.62817,-0.03686 0.25172,-0.11945 0.27517,-0.452218 0.0441,-0.624782 -0.062,-0.04631 -0.0658,-0.04636 -3.64472,-0.05217 l -3.58264,-0.0058 0.0114,-0.724654 c 0.0124,-0.792236 0.0548,-4.991792 0.0548,-5.416232 l -4e-5,-0.263771 2.95399,-0.0059 2.95396,-0.0059 0.0633,-0.04701 c 0.22183,-0.164373 0.22277,-0.481452 0.002,-0.61615 -0.0721,-0.04397 -0.11926,-0.04467 -3.02405,-0.04475 l -2.95081,-8.6e-5 0.0117,-0.196665 c 0.0336,-0.567021 0.0374,-3.62175 0.005,-3.685253 -0.0878,-0.169733 0.66339,-0.279565 -6.16881,0.901986 -6.29878,1.089304 -5.90587,1.011593 -6.03233,1.193077 -0.11311,0.162304 -0.10992,-0.04541 -0.10312,6.742855 0.004,3.523146 0.0115,5.988809 0.0177,5.47925 l 0.0113,-0.926466 1.01971,2.597448 c 0.56083,1.428595 1.02408,2.614188 1.02943,2.634655 0.009,0.03308 -0.58841,0.336669 -0.61326,0.31182 -0.004,-0.0035 -0.33052,-0.830635 -0.72625,-1.837623 l -0.71953,-1.830893 -5e-4,2.092424 c -5e-4,2.063258 -5e-5,2.092984 0.0442,2.133041 0.0753,0.06821 0.14759,0.04586 0.75359,-0.233045 0.32173,-0.148081 0.59798,-0.272528 0.61392,-0.276544 0.0196,-0.005 0.30051,0.683528 0.85941,2.105459 0.45675,1.162017 0.84835,2.137022 0.87023,2.166672 0.10957,0.148437 -0.22988,0.137136 4.11974,0.137136 h 3.92473 z m -8.11994,-6.57999 c -1.34776,-0.160296 -1.42815,-1.97266 -0.16645,-3.752905 1.30884,-1.84677 3.34668,-1.306762 3.00492,0.796273 -0.30008,1.846555 -1.51672,3.113836 -2.83847,2.956632 z m 4.25054,-0.623094 c -0.0128,-0.03402 -0.17934,-0.462863 -0.3703,-0.953038 -0.36881,-0.946667 -0.36886,-0.946902 -0.30442,-1.088824 0.10382,-0.228589 0.46277,-0.258494 0.59407,-0.04951 0.0418,0.06654 0.74033,1.862328 0.72886,1.873794 -0.0114,0.01135 -0.60098,0.279376 -0.61463,0.279376 -0.006,0 -0.0209,-0.02783 -0.0335,-0.06181 z m 3.15524,-4.477394 c -0.10554,-0.06435 -0.10012,-0.05299 -0.60641,-1.270892 -0.37861,-0.910764 -0.46725,-1.143738 -0.46762,-1.228927 -0.002,-0.337432 0.47066,-0.453645 0.63502,-0.156329 0.0248,0.04491 0.21443,0.491264 0.42135,0.99192 0.20693,0.500655 0.39036,0.938101 0.40763,0.972097 l 0.0314,0.06181 h 0.62082 0.6208 l -0.0145,0.171962 c -0.008,0.09457 -0.0145,0.246294 -0.0145,0.337144 v 0.165182 l -0.78105,-8.6e-5 c -0.73454,-8.1e-5 -0.78533,-0.0025 -0.85287,-0.04386 z m -6.74971,-1.837383 c -1.31193,-0.477686 -2.05287,-0.789175 -2.10167,-0.883531 -0.0568,-0.109953 -0.0401,-5.290075 0.0173,-5.377811 0.0741,-0.11309 0.14074,-0.132934 1.08002,-0.32172 0.50911,-0.102325 1.65895,-0.33433 2.55518,-0.51557 1.10076,-0.222598 1.65696,-0.325856 1.71406,-0.318214 0.0466,0.0062 0.64675,0.149976 1.33391,0.319454 1.38623,0.341899 1.37348,0.337143 1.42597,0.532064 0.0391,0.145229 -0.0136,4.6986 -0.0553,4.778778 -0.0769,0.147887 -0.0166,0.127758 -2.81443,0.939399 -3.25023,0.942901 -3.04408,0.887548 -3.15503,0.847151 z m -0.17101,-1.293414 c 0.031,-1.269121 0.0594,-3.823449 0.0428,-3.839207 -0.01,-0.0093 -0.31621,-0.105202 -0.68089,-0.213161 -0.36468,-0.107966 -0.67569,-0.201023 -0.69116,-0.206798 -0.0223,-0.0084 -0.0281,0.432029 -0.0281,2.155243 v 2.165747 l 0.6462,0.250312 c 0.3554,0.137674 0.65769,0.251453 0.67175,0.252848 0.0181,0.002 0.0296,-0.161785 0.0393,-0.564984 z m 2.46911,-4.797495 c 1.12179,-0.23243 2.03966,-0.428182 2.03972,-0.435001 6e-5,-0.0068 -0.25414,-0.07524 -0.56486,-0.152033 l -0.56498,-0.139639 -2.03006,0.409603 c -1.11655,0.225282 -2.02689,0.41279 -2.02299,0.416687 0.0113,0.01129 1.03249,0.316755 1.06984,0.320026 0.0186,0.0016 0.95155,-0.187213 2.07333,-0.419643 z m 4.98581,0.807933 c -0.12743,-0.06497 -0.13896,-0.09373 -0.70054,-1.747488 -0.58457,-1.721514 -0.584,-1.719271 -0.47909,-1.860208 0.13424,-0.180318 0.42634,-0.188377 0.54967,-0.01514 0.0249,0.03502 0.26636,0.714074 0.53645,1.508969 l 0.49108,1.44526 0.39603,0.0061 0.39602,0.0061 -1.7e-4,0.229861 c -8e-5,0.126425 -0.007,0.282964 -0.0144,0.347865 l -0.0142,0.117996 -0.54191,-3.4e-5 c -0.47152,-3e-5 -0.55193,-0.0051 -0.61898,-0.03933 z m -4.31976,17.414877 c 0.84512,-0.13103 1.19188,-0.247293 1.17571,-0.394196 -0.0427,-0.386831 -1.34451,-1.944614 -1.52895,-1.829429 -0.31245,0.195131 -1.03512,2.159059 -0.83254,2.262557 0.0826,0.04221 0.81796,0.01809 1.18578,-0.03892 z m 3.00309,-0.01399 c 0.26983,-0.294599 0.84497,-1.664926 0.85191,-2.029818 0.004,-0.173323 -0.0275,-0.186247 -0.44293,-0.18556 -0.89365,0.0016 -1.97087,0.215112 -1.97087,0.390834 0,0.31186 1.21733,1.904556 1.45568,1.904556 0.0181,0 0.0659,-0.03602 0.10621,-0.08001 z m -10.46829,-2.45138 0.0504,-0.05538 -0.0135,-3.904234 c -0.008,-2.147329 -0.0203,-6.038344 -0.0284,-8.646707 l -0.0148,-4.742477 -0.0529,-0.10722 c -0.0984,-0.199714 -0.18768,-0.253958 -0.78066,-0.474264 -0.29518,-0.109669 -2.80698,-1.043551 -5.5818,-2.075299 -5.50535,-2.047033 -5.13131,-1.920163 -5.21891,-1.770189 -0.0561,0.09611 -0.0339,2.00988 0.0242,2.080916 0.0196,0.02404 0.70269,0.334134 1.51788,0.689152 1.34688,0.586549 1.48599,0.65201 1.52396,0.71702 0.0455,0.07793 -0.003,4.027776 -0.0506,4.153965 -0.0668,0.175748 -0.15544,0.162749 -0.76471,-0.112182 -2.38844,-1.077747 -2.31534,-1.065193 -2.31363,-0.397411 0.003,0.903774 0.068,3.855694 0.0895,4.015895 0.13701,1.027325 0.59476,1.956204 1.32448,2.687682 0.23845,0.239019 9.98192,7.950923 10.11196,8.003569 0.0555,0.02247 0.12097,-5e-4 0.17746,-0.06283 z m -0.55052,-7.419936 c -0.63523,-1.617333 -0.63401,-1.611468 -0.37105,-1.765044 0.29362,-0.171477 0.39765,-0.06566 0.70357,0.715546 l 0.22431,0.572827 -0.006,0.932289 -0.006,0.932285 z m -4.27987,0.976693 c -0.13884,-0.06265 -2.59603,-1.665667 -2.63705,-1.720367 -0.0623,-0.08299 -0.07,-0.400695 -0.0894,-3.633569 l -0.0159,-2.652191 0.0526,-0.07657 c 0.11574,-0.168374 0.18635,-0.202496 0.53838,-0.260187 0.17787,-0.02912 0.85947,-0.141007 1.51464,-0.248582 0.97835,-0.160636 1.2053,-0.191565 1.26991,-0.173061 0.29736,0.08516 2.53581,0.994714 2.59827,1.055748 0.12741,0.124531 0.1239,0.01394 0.10765,3.395643 -0.0161,3.344878 -0.0103,3.197425 -0.12724,3.272813 -0.0881,0.05674 -3.00937,1.069485 -3.08202,1.06843 -0.0385,-4.99e-4 -0.0968,-0.01319 -0.12983,-0.02808 z m 1.63337,-1.113769 1.07886,-0.378982 0.0194,-2.78029 c 0.0106,-1.529156 0.0157,-2.78398 0.0112,-2.788497 -0.005,-0.0044 -0.51389,0.08469 -1.13196,0.198244 l -1.12375,0.206458 -0.006,2.973657 c -0.006,2.825716 -0.004,2.973028 0.0337,2.961028 0.0216,-0.0069 0.52488,-0.183172 1.11826,-0.391618 z m -0.51278,-6.274316 c 0.47205,-0.08651 0.87105,-0.157283 0.88669,-0.157283 0.0731,0 -0.0639,-0.06031 -0.73548,-0.323839 -0.43439,-0.170468 -0.75171,-0.282779 -0.79792,-0.282414 -0.0836,5e-4 -1.79254,0.2805 -1.80811,0.296077 -0.006,0.0052 0.10403,0.05631 0.24282,0.11347 0.13882,0.05715 0.48333,0.199489 0.76558,0.316301 0.28225,0.116806 0.53005,0.208461 0.55066,0.203675 0.0207,-0.005 0.42371,-0.07949 0.89576,-0.165987 z m 18.97208,11.283471 c 0.42649,-0.126704 1.02031,-0.375561 1.12095,-0.469783 0.11198,-0.104808 0.0741,-1.450705 -0.0449,-1.596569 -0.0951,-0.116448 -1.14096,-0.428117 -1.43862,-0.428671 -0.14717,-2.55e-4 -0.25598,0.117321 -0.60777,0.656856 -0.42628,0.653783 -0.42598,0.649306 -0.0783,1.119473 0.56417,0.762872 0.66569,0.832454 1.04863,0.718694 z m 1.41294,-6.693112 c 0.30897,-0.616123 0.53471,-1.587856 0.39242,-1.689175 -0.31597,-0.224998 -1.66712,-0.607643 -1.78135,-0.504484 -0.20108,0.181588 -0.6627,1.691175 -0.55665,1.820357 0.13145,0.160121 1.39855,0.576448 1.71752,0.564314 l 0.13486,-0.0051 z m 2.2776,0.08576 c 0.50629,-0.128418 1.00706,-0.306145 1.15062,-0.408364 l 0.0696,-0.04956 -0.0132,-0.170512 c -0.0344,-0.445813 -0.40221,-1.563322 -0.54548,-1.657194 -0.13309,-0.08721 -1.45414,0.268556 -1.76765,0.476043 -0.13735,0.09089 -0.0832,0.451676 0.19516,1.301371 0.21701,0.662295 0.24403,0.677378 0.91089,0.508234 z m -28.1847,-6.095624 v -0.340696 l -0.42143,0.01475 c -0.23178,0.0081 -0.56809,0.01533 -0.74734,0.01609 -0.22444,0.0011 -0.3154,0.0084 -0.29218,0.02378 0.0535,0.03552 1.40165,0.624053 1.43284,0.625482 0.0213,0.0011 0.028,-0.08114 0.028,-0.339406 z m 27.14561,-1.067963 c 0.17306,-0.236587 -0.45697,-2.428148 -0.70512,-2.452758 -0.25954,-0.02573 -1.78412,1.496963 -1.78412,1.781935 0,0.274146 2.32173,0.899827 2.48924,0.670823 z M 118.86981,14.35278 c 6.38441,-1.067203 6.14003,-1.023929 6.16129,-1.090952 0.0464,-0.146277 0.67686,0.03771 -5.50682,-1.607365 -2.9545,-0.786014 -6.01912,-1.601457 -6.81029,-1.8121052 -1.99786,-0.5319358 -1.83068,-0.5113772 -2.91065,-0.3578913 -0.35232,0.05007 -2.53195,0.3544033 -4.84362,0.6762995 -4.0343,0.561765 -4.20523,0.587444 -4.25738,0.639569 -0.072,0.07206 -0.072,0.177567 0,0.246794 0.0607,0.05828 11.22784,4.208375 11.48346,4.267641 0.40775,0.09453 0.0896,0.140312 6.68401,-0.96199 z m -6.3902,-0.49603 c -0.20489,-0.0444 -4.47375,-1.689057 -4.53832,-1.748438 -0.23328,-0.214529 -0.10892,-0.562483 0.21799,-0.609864 0.0575,-0.0084 0.82255,-0.1316 1.70024,-0.273952 1.90668,-0.309226 1.53416,-0.32307 3.04552,0.113167 0.66136,0.190894 1.93071,0.556078 2.82076,0.81152 0.89006,0.255442 1.64356,0.482372 1.67448,0.504284 0.15042,0.106666 0.19879,0.295453 0.11577,0.451871 -0.0785,0.147847 -0.13738,0.164064 -1.04853,0.288694 -0.4574,0.06257 -1.456,0.200123 -2.21914,0.30569 -1.44978,0.200546 -1.53373,0.208 -1.76877,0.157028 z m 1.68957,-0.845862 c 0.73854,-0.101695 1.33528,-0.19132 1.32609,-0.199158 -0.0169,-0.01444 -3.55324,-1.033371 -3.58518,-1.033027 -0.01,8.5e-5 -0.0145,0.255578 -0.0113,0.56771 l 0.006,0.567526 0.19105,0.0759 c 0.62874,0.24978 0.427,0.247733 2.07327,0.02103 z"
       id="path215" /></g></svg>
