<?xml version="1.0" encoding="UTF-8" standalone="no"?>
<!-- Created with Inkscape (http://www.inkscape.org/) -->

<svg
   width="32.219227mm"
   height="35.182732mm"
   viewBox="0 0 32.219227 35.182732"
   version="1.1"
   id="svg1"
   xml:space="preserve"
   xmlns="http://www.w3.org/2000/svg"
   xmlns:svg="http://www.w3.org/2000/svg"><defs
     id="defs1" /><g
     id="layer9"
     transform="translate(-53.785471,-59.339115)"><path
       style="display:inline;fill:#000000;stroke-width:0.0976349"
       d="m 67.539053,94.50286 c -2.869455,-0.113397 -5.046696,-0.692115 -6.677956,-1.775003 -2.128018,-1.412658 -2.681778,-2.958307 -2.026479,-5.65635 l 0.07016,-0.28886 -0.48926,-0.506916 C 57.2654,85.084089 56.615434,84.23461 55.900912,82.989256 c -0.255055,-0.444535 -0.271737,-0.366537 0.135054,-0.631376 1.115698,-0.726368 1.992459,-1.534693 2.405236,-2.217513 0.265822,-0.439716 0.332905,-0.776278 0.375892,-1.885972 0.09939,-2.565423 0.154772,-2.689348 1.524518,-3.411111 0.305465,-0.160964 0.630957,-0.334515 0.723309,-0.385671 l 0.167912,-0.09301 0.08135,-0.412325 c 0.04474,-0.226778 0.08865,-0.45705 0.09757,-0.511714 l 0.0162,-0.09939 -0.588397,0.30329 c -1.946767,1.00346 -2.103037,1.118158 -2.441973,1.792331 l -0.122794,0.24425 0.01272,-0.19224 c 0.115143,-1.738113 0.25209,-2.07209 1.030235,-2.512492 0.352836,-0.199693 0.313587,-0.190512 0.461361,-0.107925 0.3001,0.167731 0.896104,0.219023 1.376175,0.118436 0.36371,-0.07621 0.359725,-0.07348 0.396069,-0.270707 0.01724,-0.09357 0.03776,-0.20223 0.04565,-0.241464 l 0.01427,-0.07133 h -0.240886 c -0.835167,0 -1.274524,-1.048345 -0.681071,-1.625108 0.286166,-0.278126 0.757219,-0.301957 1.100055,-0.05566 l 0.123315,0.08859 0.08341,-0.438158 c 0.09853,-0.5175 0.118119,-0.4804 -0.233089,-0.441348 -1.229854,0.136754 -2.412357,1.064301 -2.502405,1.962872 l -0.01692,0.168551 -0.339374,0.195955 c -0.529664,0.305837 -0.693888,0.45083 -0.936005,0.826401 -0.127448,0.197703 -0.123167,0.228597 -0.06763,-0.488364 0.07545,-0.973807 0.187682,-1.380791 0.456643,-1.655819 0.522509,-0.534296 2.012783,-1.524718 3.572953,-2.374547 0.241534,-0.131565 0.443251,-0.242655 0.448255,-0.246863 0.01304,-0.01098 0.203836,-1.018444 0.192885,-1.018444 -0.06672,0 -1.496219,0.7794 -2.18331,1.190397 -1.735294,1.037998 -2.697795,1.803096 -2.970887,2.361578 l -0.07579,0.154996 0.01381,-0.129163 c 0.0076,-0.07104 0.02073,-0.227972 0.02912,-0.348739 0.05029,-0.723071 0.222559,-1.304719 0.466391,-1.574612 0.396036,-0.43836 2.238453,-1.570733 4.402439,-2.705795 l 0.581232,-0.30487 0.09546,-0.477903 c 0.05249,-0.262846 0.0961,-0.493422 0.09687,-0.512388 0.0039,-0.08932 -2.798778,1.416379 -3.925143,2.108917 -2.235445,1.37445 -2.42281,1.657828 -2.582502,3.905805 -0.128974,1.815498 -0.253396,2.199468 -0.996134,3.074072 -0.374736,0.441268 -1.150646,1.151272 -1.630539,1.492039 l -0.08141,0.05781 -0.01776,-0.290561 c -0.03699,-0.605647 0.06217,-1.925695 0.20709,-2.757311 0.993697,-5.701665 5.099891,-10.564159 10.404987,-12.321441 0.182045,-0.0603 0.335139,-0.105486 0.340214,-0.10042 0.0051,0.005 -1.199167,6.35624 -2.676088,14.113711 -1.476921,7.757468 -2.680621,14.131332 -2.674888,14.16413 0.0058,0.03284 -0.0058,0.143243 -0.02499,0.24542 -0.454427,2.382805 2.446744,4.50813 6.810136,4.988913 9.369047,1.032352 20.593419,-4.760586 18.865377,-9.736481 -0.28246,-0.813319 0.118966,-0.281336 -9.71544,-12.875339 -4.86335,-6.228011 -8.838765,-11.327325 -8.834277,-11.331811 0.06558,-0.06558 1.275719,-0.257138 2.048011,-0.324185 0.704614,-0.06117 2.454392,-0.01967 2.881326,0.06833 0.07535,0.01553 0.870686,2.074142 0.814198,2.107394 -0.01495,0.0089 -0.07388,0.02412 -0.130626,0.03395 -0.559748,0.09697 -2.597029,0.576576 -2.644144,0.622472 -0.0059,0.005 0.113445,0.164655 0.263372,0.354918 l 0.272608,0.345934 0.692437,-0.163762 c 0.736279,-0.174137 1.86336,-0.410189 1.877208,-0.393159 0.03235,0.03981 0.458716,1.242725 0.445239,1.256205 -0.0088,0.0094 -0.182364,0.05537 -0.384392,0.102182 -0.971397,0.225054 -1.6735,0.403483 -1.6666,0.423536 0.04378,0.127153 0.531945,0.693617 0.588882,0.683358 0.03548,-0.0065 0.411453,-0.09399 0.835416,-0.194636 0.423963,-0.100642 0.812645,-0.185426 0.863719,-0.188406 l 0.09294,-0.0055 0.147015,0.387487 c 0.08082,0.213119 0.145549,0.388759 0.143751,0.39031 -0.002,0.0016 -0.102089,-0.0089 -0.222844,-0.02307 -0.365021,-0.04303 -1.047685,0.04719 -1.40225,0.185343 l -0.07183,0.02801 0.18599,0.239271 c 0.267369,0.343979 0.231434,0.321127 0.359285,0.228521 0.878993,-0.636743 1.959682,0.780378 1.142356,1.497998 l -0.08835,0.07755 0.146634,0.19145 0.146654,0.191451 0.10719,-0.06845 c 0.479044,-0.3058 0.827461,-0.731146 0.925709,-1.130109 0.01749,-0.07103 0.03313,-0.131898 0.03469,-0.135241 0.0088,-0.01836 1.228906,-0.245395 1.243028,-0.231272 0.0029,0.0026 -0.0068,0.06302 -0.01974,0.13404 -0.07291,0.381616 0.123785,0.757424 0.574017,1.096683 0.163678,0.123335 0.194375,0.156175 0.14597,0.156175 -0.159203,0 -1.908756,0.333079 -2.545877,0.484681 l -0.188639,0.04489 0.272755,0.348741 c 0.330288,0.422261 0.16447,0.39415 1.153586,0.195572 0.807445,-0.162104 1.643887,-0.298579 1.831265,-0.298799 l 0.0905,-9.7e-5 v 0.316448 c 0,0.625426 0.521751,1.158707 1.333438,1.362907 l 0.119309,0.03 -0.04838,0.155241 c -0.09955,0.319983 -0.08933,0.634251 0.02864,0.878508 l 0.05111,0.105742 -0.142607,0.154037 c -0.90026,0.972392 -0.322969,1.982114 1.13834,1.991039 1.136492,0.0069 2.318175,-0.652369 2.54529,-1.420122 0.03039,-0.102592 0.0387,-0.109266 0.18986,-0.151368 0.08688,-0.02422 0.59027,-0.193018 1.118491,-0.375097 1.201044,-0.414005 1.067095,-0.400439 1.139083,-0.115354 0.76935,3.047008 0.614243,6.137004 -0.458628,9.136554 l -0.237308,0.66347 0.36123,0.474176 c 1.310569,1.720361 1.652517,2.915004 1.254814,4.384091 -0.398142,1.47072 -1.612037,2.992924 -3.413074,4.27994 -4.015493,2.869452 -9.532177,4.432438 -14.896304,4.220442 z m 0.526491,-2.60044 c -7.364942,-0.230594 -9.458075,-4.630058 -3.876058,-8.146912 l 0.328928,-0.207227 0.01794,-0.685361 0.01794,-0.685351 0.158807,-0.318825 0.158814,-0.318825 0.24708,-0.06665 c 0.135895,-0.03665 0.386423,-0.124899 0.55673,-0.196134 0.380294,-0.159095 0.334326,-0.161147 0.626233,0.02795 0.297679,0.192841 0.283642,0.216345 0.155424,-0.260275 l -0.10716,-0.398318 0.08272,-0.316186 c 0.07956,-0.304075 0.10276,-0.352576 0.60581,-1.266585 l 0.523087,-0.950403 0.25832,-0.04415 c 0.173988,-0.02974 0.323691,-0.03923 0.458529,-0.02909 l 0.2002,0.01505 v -0.235654 c 0,-0.267256 -0.0344,-0.232057 0.292076,-0.298534 0.09675,-0.0197 0.181983,-0.04196 0.189518,-0.04948 0.0078,-0.0075 -0.184817,-0.377892 -0.427432,-0.823032 l -0.441124,-0.80937 -0.48608,-0.327082 -0.486085,-0.327084 -0.417361,-0.696084 -0.417369,-0.696083 -0.407812,-0.240691 c -0.224302,-0.132382 -0.422377,-0.253637 -0.440178,-0.269456 -0.02558,-0.02275 -0.01075,-0.09319 0.07104,-0.336552 0.05688,-0.169281 0.103402,-0.315312 0.103402,-0.324512 0,-0.0092 -0.09591,-0.04847 -0.213118,-0.08724 l -0.21312,-0.07051 -0.27124,0.116849 c -0.205404,0.08849 -0.367396,0.186981 -0.667405,0.405798 -0.334183,0.243744 -0.401543,0.283379 -0.430565,0.253341 -0.01892,-0.01958 -0.09171,-0.119397 -0.16177,-0.221805 l -0.127374,-0.186193 0.051,-0.303375 0.05101,-0.303374 0.351957,-0.418513 c 0.321897,-0.382765 0.934352,-0.888531 1.07596,-0.888531 0.0068,0 0.274752,0.231178 0.595274,0.513729 l 0.58278,0.513728 0.223063,-0.04874 c 0.122684,-0.02681 0.2305,-0.04002 0.239591,-0.02937 0.0091,0.01064 0.213099,0.245264 0.453362,0.521349 0.366238,0.420854 0.472314,0.562477 0.656408,0.876384 l 0.21958,0.374413 0.610256,0.447256 0.610255,0.447256 1.157964,1.369898 c 0.757604,0.896259 1.164385,1.358448 1.176514,1.336782 0.01,-0.01822 0.158371,-0.590952 0.329301,-1.272748 l 0.310772,-1.239633 0.183185,-1.349302 0.183185,-1.349301 0.113435,-0.191865 0.113426,-0.191864 -0.07858,-0.294875 -0.07858,-0.294878 0.144875,-0.271294 0.144875,-0.271292 0.289173,-0.04385 c 0.233878,-0.03546 0.294979,-0.03756 0.319538,-0.01098 0.02258,0.0245 0.548452,0.696718 0.814326,1.041002 0.01124,0.01454 0.08639,0.320197 0.166855,0.679226 l 0.146438,0.652779 -0.188277,0.211997 c -0.103535,0.116598 -0.196251,0.221544 -0.206005,0.233215 -0.01,0.01167 -0.124469,-0.008 -0.254909,-0.04377 -0.171301,-0.04693 -0.239654,-0.05642 -0.246094,-0.03413 -0.0049,0.01698 -0.06773,1.048011 -0.139607,2.291203 l -0.130705,2.260348 -0.338761,1.136314 c -0.186313,0.624972 -0.340834,1.138045 -0.343384,1.140156 -0.0029,0.0022 -0.156818,0.07989 -0.342837,0.172838 l -0.338234,0.168995 -0.172308,0.302894 c -0.196086,0.344684 -0.194786,0.330435 -0.02678,0.295702 0.06958,-0.01437 0.341537,-0.05473 0.604372,-0.08972 6.940709,-0.922755 11.776127,1.257737 10.522964,4.745213 -1.24252,3.457845 -8.480025,6.484036 -15.017822,6.27935 z m 2.518679,-0.767767 c 4.52923,-0.420914 8.708625,-2.014353 10.811267,-4.121921 3.628159,-3.636661 -1.557983,-6.592007 -9.402518,-5.358078 -0.644735,0.101415 -0.651674,0.103584 -0.699043,0.217948 -0.02717,0.06558 -0.211351,0.199702 -0.959338,0.698643 -0.509164,0.339641 -0.925757,0.624006 -0.925757,0.631922 0,0.0078 0.04183,0.283925 0.09275,0.613334 l 0.09275,0.598958 -0.04153,0.585374 -0.04153,0.585373 0.153348,0.654586 c 0.148383,0.633428 0.153592,0.667877 0.161352,1.065639 l 0.0078,0.411033 -0.516093,0.328627 -0.516093,0.328627 -0.16792,-0.08942 c -0.138923,-0.07408 -0.182598,-0.114325 -0.252954,-0.23338 l -0.08503,-0.143907 0.07154,-0.08004 c 0.03938,-0.04398 0.158675,-0.17008 0.265151,-0.280124 l 0.193584,-0.200073 -0.09814,-0.381166 c -0.11111,-0.431566 -0.09675,-0.403879 -0.423035,-0.813573 l -0.242585,-0.304556 -0.05053,-0.47703 c -0.04476,-0.422096 -0.06235,-0.509047 -0.153123,-0.755219 -0.09968,-0.270282 -0.102626,-0.287756 -0.103643,-0.614028 l -9.77e-4,-0.33582 -0.07027,0.07789 c -0.0387,0.04281 -0.111246,0.12615 -0.161303,0.185101 -0.08665,0.101981 -0.100919,0.108519 -0.297079,0.135268 -0.16121,0.02209 -0.216418,0.04066 -0.253672,0.0861 -0.02622,0.03196 -0.09785,0.111373 -0.15924,0.176539 l -0.111625,0.118518 -0.677689,0.01691 -0.677696,0.01701 -0.251588,-0.192851 -0.251592,-0.19285 -0.293514,0.183556 c -5.255913,3.286837 -2.854454,6.963167 4.51133,6.906298 0.722577,-0.0059 1.231672,-0.02199 1.524139,-0.04926 z m -3.952421,-7.771385 c 0.497621,-0.24023 0.483881,-0.205829 0.157524,-0.394428 -0.297963,-0.172201 -0.298215,-0.172601 -0.29968,-0.47791 -0.0014,-0.221036 0.0039,-0.218466 -0.418698,-0.227271 l -0.369081,-0.0078 -0.186604,0.227271 -0.186601,0.227271 -0.0012,0.18083 c -4.84e-4,0.09944 -0.0079,0.222492 -0.01627,0.273419 -0.01479,0.08942 -0.0089,0.09799 0.174659,0.253023 l 0.189967,0.160443 0.271433,-0.0078 0.271434,-0.0078 z m 1.012746,-2.023997 c 0.156742,-0.0552 0.09624,0.07066 0.105023,-0.312338 0.04212,-0.244823 0.05883,-0.289378 0.171389,-0.457366 0.15457,-0.230682 0.163976,-0.184771 -0.0946,-0.463567 l -0.219218,-0.236359 -0.270384,0.149755 -0.390374,0.235462 0.01717,0.220479 c 0.02047,0.262719 0.03422,0.318502 0.07498,0.302875 0.06017,-0.02306 0.330657,-0.07379 0.340595,-0.06391 0.0092,0.0088 -0.02309,0.375012 -0.05178,0.585207 l -0.01188,0.08708 0.09576,-0.01476 c 0.05264,-0.0081 0.157684,-0.02277 0.233376,-0.03254 z m 4.264054,-1.239535 c -0.0078,-0.008 -0.286066,-0.205562 -0.61783,-0.438952 l -0.603219,-0.424346 -0.52312,-0.58305 c -0.287707,-0.320678 -0.5231,-0.578032 -0.5231,-0.571896 0,0.106229 0.656489,1.11552 0.8962,1.394681 l 0.280036,0.326121 0.408052,0.105852 c 0.224427,0.05822 0.455846,0.143026 0.533982,0.163773 0.07818,0.02073 0.128726,0.03677 0.134658,0.03804 0.0059,0.0011 0.02306,-0.0023 0.01525,-0.01022 z m -16.685327,1.571347 c -0.07115,-0.157072 -0.383994,-0.909984 -0.383994,-0.924126 0,-0.0029 0.150098,-0.10032 0.333556,-0.215915 1.277588,-0.804919 2.27946,-1.729437 2.720632,-2.510563 l 0.112413,-0.199044 -0.0076,0.248769 c -0.02583,0.834174 -0.08646,1.302061 -0.196702,1.517824 -0.301087,0.589329 -1.341091,1.545246 -2.369867,2.178253 l -0.129206,0.07955 z M 54.479239,79.68302 c -0.06876,-0.224998 -0.116667,-0.306672 -0.09221,-0.376415 0.03479,-0.09913 0.195713,-0.183222 0.633075,-0.487026 0.804242,-0.558644 0.634594,-0.440019 0.512922,-0.930407 0,0 -0.06579,-0.168967 -0.03841,-0.262547 0.02524,-0.08635 0.163934,-0.206984 0.163934,-0.206984 0.794796,-0.75289 1.346593,-1.432016 1.703374,-2.096425 0.06127,-0.114111 0.111605,-0.189503 0.111837,-0.167536 0.0046,0.435679 -0.111876,1.912355 -0.167989,2.127797 -0.174419,0.669647 -1.326526,1.796812 -2.652599,2.595177 l -0.0957,0.05761 z m -0.489111,-2.158862 c -0.03925,-0.228463 -0.10665,-0.789786 -0.10665,-0.888045 0,-0.07611 0.0224,-0.09828 0.277696,-0.274925 1.225846,-0.848145 2.292534,-1.967865 2.735049,-2.871025 0.100554,-0.205239 0.112935,-0.220874 0.11249,-0.142077 -0.0076,1.349621 -0.88751,2.713037 -2.628027,4.072513 -0.386926,0.30222 -0.357762,0.294487 -0.390554,0.103558 z m 3.019085,-4.307111 c 0,-0.01894 0.0077,-0.02669 0.01724,-0.01721 0.0096,0.0094 0.0096,0.02497 0,0.03444 -0.0096,0.0094 -0.01724,0.0017 -0.01724,-0.01722 z m 23.26461,-0.29645 c -0.407006,-0.167331 -0.621876,-0.506906 -0.605164,-0.956428 0.03948,-1.062489 1.469058,-1.143553 1.744139,-0.0989 0.185247,0.703514 -0.484731,1.324296 -1.138975,1.055331 z m 2.013297,-1.932352 c -0.04613,-0.110574 -0.472954,-1.262319 -0.483402,-1.304484 -0.0088,-0.03469 1.103939,-0.475784 1.869732,-0.741288 l 0.405462,-0.140572 0.179169,0.457417 c 0.258594,0.660174 0.377707,1.012 0.350694,1.035842 -0.0215,0.01906 -1.882817,0.655079 -2.162599,0.738999 l -0.124322,0.0373 z M 79.635294,70.79781 c -0.03851,-0.04632 -5.57e-4,-0.262153 0.08463,-0.485461 l 0.05326,-0.139105 0.158714,-0.01772 c 0.224554,-0.02506 0.623195,-0.106206 0.863073,-0.175694 l 0.204383,-0.0592 0.111148,0.298454 c 0.06108,0.164148 0.11542,0.310076 0.120658,0.324284 0.0059,0.01623 -0.103418,0.02653 -0.294275,0.02773 -0.415724,0.0025 -0.834028,0.08291 -1.174099,0.225469 -0.08473,0.03549 -0.09899,0.03562 -0.127479,0.0012 z M 78.91521,69.258112 c -0.521967,-0.180377 -0.701653,-0.39459 -0.616091,-0.734422 l 0.02971,-0.118043 0.149283,0.01561 c 0.528925,0.0553 0.860532,0.416801 0.749931,0.817584 -0.02385,0.08667 -0.103642,0.09157 -0.312843,0.01928 z m 1.162156,-0.180729 c -5.57e-4,-0.456935 -0.236995,-0.90572 -0.605516,-1.149816 l -0.113132,-0.07495 0.353011,-0.09715 c 0.19417,-0.05343 0.371618,-0.102804 0.39435,-0.109699 0.04701,-0.01429 0.61093,1.454876 0.572952,1.492853 -0.01788,0.01791 -0.530889,0.151751 -0.581982,0.151841 -0.01104,1.6e-5 -0.01955,-0.09587 -0.01964,-0.213086 z m 1.407762,-0.232544 c -0.0068,-0.01773 -0.133479,-0.357195 -0.282371,-0.754362 -0.148872,-0.397167 -0.268201,-0.723528 -0.265191,-0.725244 0.02815,-0.01599 1.278075,-0.461377 1.56458,-0.557517 0.203933,-0.06843 0.385164,-0.136347 0.402736,-0.150925 0.04271,-0.03543 0.850437,1.341265 0.810436,1.381275 -0.0059,0.0057 -0.17525,0.06849 -0.37675,0.139525 -0.307937,0.108557 -1.192658,0.443536 -1.705301,0.645683 -0.102655,0.04046 -0.139353,0.04581 -0.148139,0.02156 z m -3.758208,-1.76525 c -0.357663,-0.09412 -0.77497,-0.396513 -0.77497,-0.561549 0,-0.183749 0.07467,-0.304256 0.178054,-0.287063 0.518527,0.0863 0.82707,0.379128 0.79908,0.758419 -0.01,0.135145 -0.01788,0.138687 -0.202164,0.09019 z m 1.036173,-0.171726 c 0,-0.36196 -0.179237,-0.739956 -0.489804,-1.032918 l -0.180145,-0.169938 0.275413,-0.06897 c 0.151481,-0.03793 0.419349,-0.115787 0.595273,-0.172999 0.243241,-0.0791 0.32462,-0.09631 0.339759,-0.07181 0.0776,0.125554 0.543134,1.454107 0.515516,1.471174 -0.04945,0.03057 -0.77195,0.205603 -0.921829,0.223329 l -0.134183,0.01587 z m 1.872361,-0.351765 c -0.02492,-0.04031 -0.558058,-1.484632 -0.550729,-1.491964 0.01,-0.0097 0.772752,-0.302945 1.069528,-0.41103 0.225004,-0.08197 0.238726,-0.08398 0.271231,-0.03989 0.01886,0.02553 0.155566,0.190363 0.303852,0.366294 0.272149,0.322864 0.724971,0.914971 0.724903,0.947879 -2e-5,0.0098 -0.124997,0.06031 -0.27771,0.11226 -0.152703,0.05194 -0.553435,0.19435 -0.890506,0.316448 -0.671894,0.243381 -0.631444,0.230947 -0.650569,0.200011 z m -5.959118,-0.95146 c -0.117452,-0.302867 -0.509721,-1.364688 -0.505665,-1.368747 0.01104,-0.01053 0.769057,-0.111899 0.837165,-0.111863 l 0.07125,3.9e-5 v 0.277662 c 0,0.419716 0.154658,0.678048 0.571731,0.954959 l 0.143702,0.09542 -0.492217,0.09591 c -0.270722,0.05276 -0.515956,0.103447 -0.544982,0.112654 -0.04144,0.01316 -0.05883,0.0011 -0.08102,-0.05603 z m 1.953916,-0.695182 c -0.359842,-0.09461 -0.737451,-0.360818 -0.737451,-0.519881 0,-0.192619 0.04935,-0.290245 0.139304,-0.275425 0.633633,0.104421 0.866533,0.298203 0.790265,0.657546 -0.03929,0.184888 -0.03215,0.179818 -0.192118,0.13776 z m 1.03371,-0.142639 c 0.0687,-0.678971 -0.629303,-1.443637 -1.31787,-1.443637 -0.08258,0 -0.09548,-0.02634 -0.06431,-0.131942 0.390138,-1.320463 -1.055719,-2.157686 -3.091015,-1.789863 l -0.07994,0.01444 -0.33756,-0.899808 c -0.260157,-0.693474 -0.328891,-0.901785 -0.299699,-0.908424 0.0476,-0.01075 0.442336,0.07238 0.973215,0.205028 1.994299,0.498328 3.994891,1.451319 5.636306,2.684868 0.67076,0.504095 1.691248,1.383356 1.647533,1.41954 -0.03127,0.02593 -0.938843,0.369009 -0.948128,0.358437 -0.0049,-0.0051 -0.06137,-0.153284 -0.126404,-0.329144 -0.182442,-0.493829 -0.389454,-0.633541 -0.689143,-0.465102 -0.231659,0.130198 -0.253307,0.308604 -0.0906,0.746098 0.06392,0.171833 0.11625,0.321608 0.11625,0.332837 0,0.04468 -0.93424,0.316065 -1.221664,0.354871 l -0.123785,0.0167 z m -3.79729,-1.337513 c -0.02932,-0.04748 -0.452461,-1.20103 -0.443734,-1.209758 0.03157,-0.0316 0.59932,-0.06275 0.932833,-0.05121 0.948119,0.03281 1.293252,0.325114 1.088801,0.922109 l -0.05746,0.167668 -0.360693,0.02981 c -0.338634,0.02798 -0.74482,0.08125 -1.02637,0.134595 -0.06773,0.01283 -0.127772,0.01589 -0.133411,0.0067 z"
       id="path120" /></g></svg>
