<?xml version="1.0" encoding="UTF-8" standalone="no"?>
<!-- Created with Inkscape (http://www.inkscape.org/) -->

<svg
   width="210mm"
   height="297mm"
   viewBox="0 0 210 297"
   version="1.1"
   id="svg1"
   xml:space="preserve"
   sodipodi:docname="card-background.svg"
   inkscape:version="1.4 (86a8ad7, 2024-10-11)"
   xmlns:inkscape="http://www.inkscape.org/namespaces/inkscape"
   xmlns:sodipodi="http://sodipodi.sourceforge.net/DTD/sodipodi-0.dtd"
   xmlns="http://www.w3.org/2000/svg"
   xmlns:svg="http://www.w3.org/2000/svg"><sodipodi:namedview
     id="namedview1"
     pagecolor="#ffffff"
     bordercolor="#000000"
     borderopacity="0.25"
     inkscape:showpageshadow="2"
     inkscape:pageopacity="0.0"
     inkscape:pagecheckerboard="0"
     inkscape:deskcolor="#d1d1d1"
     inkscape:document-units="mm"
     inkscape:zoom="1.8654461"
     inkscape:cx="474.41735"
     inkscape:cy="579.21801"
     inkscape:window-width="2400"
     inkscape:window-height="1261"
     inkscape:window-x="-9"
     inkscape:window-y="-9"
     inkscape:window-maximized="1"
     inkscape:current-layer="layer1"
     showguides="true"><sodipodi:guide
       position="68.931231,256.32226"
       orientation="0,-1"
       id="guide1"
       inkscape:locked="false" /><sodipodi:guide
       position="9.5028651,78.4341"
       orientation="1,0"
       id="guide2"
       inkscape:locked="false" /></sodipodi:namedview><defs
     id="defs1"><rect
       x="990.89966"
       y="30.646381"
       width="831.53848"
       height="171.61973"
       id="rect5" /><rect
       x="3031.3102"
       y="1231.2184"
       width="3.5754111"
       height="13.024712"
       id="rect18" /><rect
       x="3024.7978"
       y="1231.4334"
       width="10.2317"
       height="110.87814"
       id="rect17" /><rect
       x="2558.3623"
       y="1231.4333"
       width="111.41421"
       height="56.502715"
       id="rect16" /></defs><g
     id="layer1"><path
       id="rect1"
       style="font-variation-settings:'wght' 700;fill:#c5c8e2;stroke-width:0.499999;stroke-linecap:round;stroke-linejoin:round;paint-order:stroke fill markers"
       d="M 0,0 H 210 V 297 H 0 Z" /><path
       style="font-variation-settings:'wght' 700;fill:#fde5cb;fill-opacity:1;stroke-width:0.132292;-inkscape-stroke:none;paint-order:stroke fill markers"
       d="m 228.1969,40.726565 h -89.47029 c -6.69203,0 -12.11699,5.42496 -12.11699,12.116988 v 19.514363 c 0,6.692028 -5.42496,12.116988 -12.11699,12.116988 H 36.521766 c -6.692028,0 -12.116988,5.42496 -12.116988,12.116988 v 19.723548 c 0,6.69203 -5.42496,12.11699 -12.116988,12.11699 h -51.939375 v 68.42085 h 51.3538 c 6.692028,0 12.116988,-5.42496 12.116988,-12.11699 v -13.71172 c 0,-6.69203 5.42496,-12.11699 12.116988,-12.11699 h 91.413389 46.21338 c 6.69203,0 12.11699,-5.42496 12.11699,-12.11699 v -31.46897 c 0,-6.69203 5.42496,-12.11699 12.11699,-12.11699 h 30.39996 z"
       id="path1"
       sodipodi:nodetypes="cssssssssccsssscsssscc" /><path
       id="path6"
       style="font-variation-settings:'wght' 700;fill:#f69d5a;fill-opacity:1;stroke-width:0.500634;stroke-linecap:round;stroke-linejoin:round;paint-order:stroke fill markers"
       d="m 40.494933,184.6192 h 95.036107 a 11.773766,11.773766 45 0 1 11.77377,11.77377 v 61.98648 a 11.773766,11.773766 45 0 0 11.77377,11.77377 h 39.06646 a 11.934266,11.934266 44.808996 0 1 11.934,11.8547 l 0.18406,27.60597 H 30.092769 V 195.02136 A 10.402164,10.402164 135 0 1 40.494933,184.6192 Z"
       transform="matrix(-1.0245488,0,0,1.1183442,240.83151,-70.182531)" /><path
       id="rect2"
       style="font-variation-settings:'wght' 700;display:inline;fill:#4e5580;fill-opacity:1;stroke-width:0.500634;stroke-linecap:round;stroke-linejoin:round;paint-order:stroke fill markers"
       d="M -9.9382238,209.79196 H 135.53104 c 6.50247,0 11.77377,5.2713 11.77377,11.77377 v 24.11367 c 0,6.50247 5.2713,11.77377 11.77377,11.77377 h 39.06646 c 6.54731,0 11.85497,-5.30765 11.85496,-11.85496 l -1e-5,-5.59826 c -1e-5,-6.54731 5.30765,-11.85496 11.85496,-11.85496 h 29.15875 v 73.00218 H -9.9382238 Z"
       sodipodi:nodetypes="csssssssscccc" /><path
       id="rect3"
       style="font-variation-settings:'wght' 700;fill:#272d48;stroke-width:0.499999;stroke-linecap:round;stroke-linejoin:round;paint-order:stroke fill markers"
       d="m -21.35244,-25.965795 h 126.46827 l -0.0737,16.5179506 A 9.4901784,9.4901784 135.12779 0 1 95.552062,0 H 70.261842 A 9.4479384,9.4479384 135 0 0 60.813904,9.4479384 V 31.229808 a 9.4479384,9.4479384 135 0 1 -9.447938,9.447938 H -21.35244 Z" /><path
       id="rect7"
       style="font-variation-settings:'wght' 700;display:inline;fill:#ffffff;fill-opacity:1;stroke-width:0.143777;paint-order:stroke fill markers"
       d="M 42.565884,58.127834 H 167.49859 V 184.08559 H 42.565884 Z" /><rect
       style="font-variation-settings:'wght' 700;display:inline;fill:#ffffff;fill-opacity:1;stroke:none;stroke-width:30.4302;stroke-linecap:round;stroke-linejoin:round;stroke-dasharray:none;stroke-opacity:1;paint-order:stroke fill markers"
       id="rect15"
       width="9.0347433"
       height="1.2370414"
       x="234.65114"
       y="-54.960152"
       ry="0.61852068"
       transform="rotate(90)" /><path
       style="font-size:9.17222px;line-height:0;font-family:'Noto Sans TC';-inkscape-font-specification:'Noto Sans TC, @wght=700';font-variation-settings:'wght' 700;letter-spacing:1.32292px;direction:rtl;fill:#ffffff;stroke-width:0.499999;stroke-linecap:round;stroke-linejoin:round;paint-order:stroke fill markers"
       d="m 10.307199,235.77911 h 2.797527 v 0.9906 h -2.797527 z m 1.201561,3.10938 1.073149,-1.28411 v 5.24651 H 11.50876 Z m 1.027288,-0.95391 q 0.110067,0.0825 0.302684,0.26599 0.201788,0.17428 0.421922,0.38524 0.220133,0.20179 0.403577,0.38523 0.183445,0.18344 0.265995,0.26599 l -0.678745,0.90805 q -0.110066,-0.17427 -0.284338,-0.3944 -0.174273,-0.22931 -0.366889,-0.46778 -0.192617,-0.23848 -0.376061,-0.44944 -0.174272,-0.21096 -0.311856,-0.34855 z m 0.24765,-2.15547 h 0.220134 l 0.192616,-0.0367 0.57785,0.41275 q -0.3302,0.85301 -0.862189,1.64183 -0.522816,0.78881 -1.164872,1.43086 -0.632883,0.63288 -1.293283,1.05481 -0.03669,-0.1651 -0.110066,-0.38524 -0.07338,-0.22013 -0.155928,-0.43109 -0.08255,-0.21096 -0.155928,-0.32103 0.587022,-0.32103 1.128183,-0.8255 0.541161,-0.50447 0.963083,-1.10984 0.431095,-0.61454 0.6604,-1.23825 z m -1.605138,-1.12819 0.862188,-0.45861 q 0.24765,0.25683 0.476956,0.58702 0.229305,0.3302 0.357716,0.58703 l -0.908049,0.53199 q -0.110067,-0.266 -0.339373,-0.61454 -0.220133,-0.34855 -0.449438,-0.63289 z m 2.283883,6.83331 h 5.310715 v 1.08232 h -5.310715 z m 0.403577,-4.49439 h 4.687005 v 1.06398 H 13.86602 Z m 1.806928,-2.69663 h 1.137355 v 7.71383 h -1.137355 z m 6.743702,1.5501 h 5.072237 v 0.60537 H 22.41665 Z m -0.128411,3.82482 h 5.319887 v 0.59619 h -5.319887 z m 0.853016,0.87136 0.697089,-0.3302 q 0.183444,0.17427 0.366889,0.40358 0.192616,0.22013 0.293511,0.3944 l -0.733778,0.36689 q -0.08255,-0.17427 -0.265994,-0.41275 -0.174273,-0.23848 -0.357717,-0.42192 z m 0.366889,-2.67829 v 0.27517 h 2.861733 v -0.27517 z m 0,-0.69709 v 0.266 h 2.861733 v -0.266 z M 22.6643,236.7055 h 4.58611 v 1.88948 H 22.6643 Z m 2.85256,2.69663 h 0.90805 v 1.44004 q 0,0.266 -0.07338,0.38524 -0.0642,0.11006 -0.256822,0.1651 -0.183444,0.055 -0.467783,0.0734 -0.275167,0.009 -0.6604,0.009 -0.03669,-0.14676 -0.100895,-0.29352 -0.05503,-0.14675 -0.119238,-0.26599 0.192616,0.009 0.385233,0.009 0.201789,0 0.265994,0 0.07338,0 0.09172,-0.0275 0.02752,-0.0275 0.02752,-0.0917 z m -3.072694,-0.51364 q 0.559506,0 1.284111,0.009 0.733778,0 1.550105,-0.009 0.816328,-0.009 1.632656,-0.0183 l -0.01835,0.48612 q -0.797983,0.0275 -1.595966,0.055 -0.788811,0.0183 -1.513417,0.0367 -0.715433,0.0183 -1.311627,0.0275 z m 3.577166,-0.0825 0.559506,-0.36689 q 0.265994,0.17427 0.541161,0.4311 0.275166,0.24765 0.421922,0.44026 l -0.568678,0.42192 q -0.155928,-0.20178 -0.431094,-0.46778 -0.275167,-0.27517 -0.522817,-0.45861 z m -1.531761,-3.29283 h 0.898878 v 3.57717 l -0.898878,0.0367 z m -3.375377,-0.96308 h 7.750526 v 8.29169 h -1.045633 v -7.46619 h -5.705121 v 7.48453 h -0.999772 z m 0.4953,7.02592 h 6.622343 v 0.83467 h -6.622343 z m 10.119079,-4.93465 h 0.999772 v 6.20959 h -0.999772 z m 1.999544,2.82504 h 0.9906 v 2.89842 h -0.9906 z m 0.431095,0 h 3.045177 v 2.58657 h -3.045177 v -0.61454 h 2.072921 v -1.36666 h -2.072921 z m -1.889478,-2.82504 h 2.898422 v 2.4765 h -2.898422 v -0.63289 h 1.907822 v -1.21073 h -1.907822 z m 0.0092,0.93556 h 2.182988 v 0.5962 h -2.182988 z m 1.898649,2.88008 h 2.513188 v 0.59619 h -2.513188 z m 2.137127,-2.88008 h 2.247194 v 0.5962 h -2.247194 z m 2.118783,-0.93556 v 0.63288 h -1.733549 v 1.21073 h 1.733549 v 0.63289 h -2.724149 v -2.4765 z m -0.24765,0 h 1.027289 v 5.10892 q 0,0.37606 -0.09172,0.5962 -0.09172,0.22013 -0.339372,0.3302 -0.24765,0.12841 -0.614539,0.15592 -0.366889,0.0275 -0.880533,0.0183 -0.02752,-0.21096 -0.119239,-0.4953 -0.08255,-0.27517 -0.183445,-0.46778 0.302684,0.0183 0.614539,0.0183 0.311856,0 0.403578,0 0.183444,0 0.183444,-0.1651 z m -5.705121,-1.86197 h 2.880078 v 0.84385 h -2.880078 z m 3.7973,0.009 h 3.43041 v 0.83467 h -3.43041 z m -3.751439,-0.63289 0.972256,0.29352 q -0.284339,0.63288 -0.733778,1.23824 -0.440266,0.5962 -0.898877,0.99978 -0.07338,-0.1009 -0.210961,-0.23848 -0.128412,-0.14676 -0.265995,-0.28434 -0.137583,-0.14676 -0.24765,-0.22931 0.41275,-0.32102 0.788811,-0.79798 0.376061,-0.47695 0.596194,-0.98143 z m 3.7973,0 1.008944,0.25683 q -0.229306,0.64205 -0.605367,1.24742 -0.376061,0.60536 -0.779638,0.99977 -0.09172,-0.0917 -0.24765,-0.21096 -0.146756,-0.11924 -0.302684,-0.23848 -0.155927,-0.12841 -0.275166,-0.19262 0.385233,-0.33937 0.706261,-0.83467 0.321027,-0.4953 0.4953,-1.02729 z m -3.320344,1.77024 0.651228,-0.56868 q 0.247649,0.18345 0.513644,0.4311 0.275166,0.24765 0.421922,0.44027 l -0.687917,0.63288 q -0.137583,-0.19262 -0.403577,-0.45861 -0.265995,-0.266 -0.4953,-0.47696 z m 3.999088,0.0275 0.697089,-0.58702 q 0.256822,0.17427 0.541161,0.41275 0.293511,0.23847 0.458611,0.42192 l -0.74295,0.64205 q -0.137583,-0.18344 -0.421922,-0.44026 -0.275167,-0.25682 -0.531989,-0.44944 z m 10.174112,2.06375 h 1.174044 v 4.84293 h -1.174044 z m -3.457927,0.0183 h 1.164872 v 1.04564 q 0,0.45861 -0.06421,0.96308 -0.06421,0.4953 -0.265995,0.99977 -0.201789,0.50447 -0.605366,0.97226 -0.403578,0.46778 -1.091494,0.85301 -0.100895,-0.12841 -0.265995,-0.29351 -0.155928,-0.15593 -0.339372,-0.30268 -0.174272,-0.13758 -0.321028,-0.22931 0.605367,-0.3302 0.963083,-0.69709 0.357717,-0.36688 0.531989,-0.76129 0.183445,-0.39441 0.238478,-0.77964 0.05503,-0.3944 0.05503,-0.75212 z m 2.192161,-3.91653 0.898877,0.63288 q -0.495299,0.73378 -1.238249,1.42169 -0.733778,0.68792 -1.605139,1.24742 -0.871361,0.55034 -1.770238,0.89888 -0.100895,-0.23848 -0.293511,-0.54116 -0.192617,-0.30268 -0.376061,-0.51364 0.660399,-0.20179 1.302455,-0.52282 0.651228,-0.3302 1.229077,-0.74295 0.587023,-0.42192 1.063978,-0.89888 0.476955,-0.47695 0.788811,-0.98142 z m 0.568678,0.68791 q 0.293511,0.39441 0.715433,0.75212 0.421922,0.35772 0.935566,0.6604 0.522817,0.30269 1.109839,0.54116 0.587022,0.23848 1.210733,0.38524 -0.128411,0.11924 -0.284339,0.31185 -0.146755,0.18345 -0.284339,0.37606 -0.137583,0.19262 -0.220133,0.35772 -0.651228,-0.20179 -1.247422,-0.4953 -0.596194,-0.30268 -1.128183,-0.67874 -0.531989,-0.38524 -0.9906,-0.84385 -0.449439,-0.45861 -0.797983,-0.97225 z"
       id="text14"
       aria-label="社團簡介" /><rect
       style="font-variation-settings:'wght' 700;fill:#ffffff;fill-opacity:1;stroke:none;stroke-width:58.9317;stroke-linecap:round;stroke-linejoin:round;stroke-dasharray:none;stroke-opacity:1;paint-order:stroke fill markers"
       id="rect14"
       width="33.884857"
       height="1.2370414"
       x="76.516808"
       y="221.88472"
       ry="0.61852068" /><path
       d="m 10.307202,219.53602 h 2.797528 v 0.9906 h -2.797528 z m 1.201561,3.10938 1.07315,-1.28411 v 5.24651 h -1.07315 z m 1.027289,-0.95391 q 0.110067,0.0826 0.302683,0.266 0.201789,0.17427 0.421922,0.38523 0.220134,0.20179 0.403578,0.38523 0.183444,0.18345 0.265994,0.266 l -0.678744,0.90805 q -0.110067,-0.17428 -0.284339,-0.39441 -0.174272,-0.2293 -0.366889,-0.46778 -0.192616,-0.23848 -0.376061,-0.44944 -0.174272,-0.21096 -0.311855,-0.34855 z m 0.24765,-2.15547 h 0.220133 l 0.192617,-0.0367 0.57785,0.41275 q -0.3302,0.85302 -0.862189,1.64183 -0.522817,0.78881 -1.164872,1.43086 -0.632883,0.63289 -1.293283,1.05481 -0.03669,-0.1651 -0.110067,-0.38523 -0.07338,-0.22014 -0.155927,-0.4311 -0.08255,-0.21096 -0.155928,-0.32103 0.587022,-0.32102 1.128183,-0.8255 0.541161,-0.50447 0.963083,-1.10983 0.431094,-0.61454 0.6604,-1.23825 z m -1.605139,-1.12818 0.862189,-0.45861 q 0.24765,0.25682 0.476955,0.58702 0.229306,0.3302 0.357717,0.58702 l -0.90805,0.53199 q -0.110066,-0.266 -0.339372,-0.61454 -0.220133,-0.34855 -0.449439,-0.63288 z m 2.283883,6.8333 h 5.310716 v 1.08232 h -5.310716 z m 0.403578,-4.49439 h 4.687004 v 1.06398 h -4.687004 z m 1.806927,-2.69663 h 1.137356 v 7.71384 h -1.137356 z m 6.743702,1.5501 h 5.072238 v 0.60537 h -5.072238 z m -0.128411,3.82482 h 5.319888 v 0.59619 h -5.319888 z m 0.853017,0.87136 0.697088,-0.3302 q 0.183445,0.17427 0.366889,0.40358 0.192617,0.22013 0.293511,0.3944 l -0.733777,0.36689 q -0.08255,-0.17427 -0.265995,-0.41275 -0.174272,-0.23847 -0.357716,-0.42192 z m 0.366888,-2.67829 v 0.27517 h 2.861733 v -0.27517 z m 0,-0.69709 v 0.266 h 2.861733 v -0.266 z m -0.843844,-0.45861 h 4.58611 v 1.88948 h -4.58611 z m 2.852561,2.69664 h 0.908049 v 1.44003 q 0,0.266 -0.07338,0.38524 -0.06421,0.11006 -0.256822,0.1651 -0.183445,0.055 -0.467784,0.0734 -0.275166,0.009 -0.6604,0.009 -0.03669,-0.14676 -0.100894,-0.29351 -0.05503,-0.14676 -0.119239,-0.266 0.192617,0.009 0.385233,0.009 0.201789,0 0.265995,0 0.07338,0 0.09172,-0.0275 0.02752,-0.0275 0.02752,-0.0917 z M 22.44417,222.6454 q 0.559505,0 1.284111,0.009 0.733777,0 1.550105,-0.009 0.816328,-0.009 1.632655,-0.0183 l -0.01834,0.48613 q -0.797983,0.0275 -1.595967,0.055 -0.788811,0.0183 -1.513416,0.0367 -0.715433,0.0183 -1.311627,0.0275 z m 3.577166,-0.0825 0.559505,-0.36689 q 0.265995,0.17428 0.541161,0.4311 0.275167,0.24765 0.421922,0.44026 l -0.568677,0.42193 q -0.155928,-0.20179 -0.431095,-0.46779 -0.275166,-0.27516 -0.522816,-0.45861 z m -1.531761,-3.29283 h 0.898878 v 3.57717 l -0.898878,0.0367 z m -3.375377,-0.96308 h 7.750526 v 8.29169 h -1.045633 v -7.46619 H 22.11397 v 7.48453 h -0.999772 z m 0.4953,7.02592 h 6.622343 v 0.83467 h -6.622343 z m 11.779251,-6.63151 h 3.457927 v 0.7246 h -3.457927 z m 0.192616,4.39349 h 3.008489 v 0.72461 h -3.008489 z m -0.229305,1.05481 h 3.320344 v 0.75212 H 33.35206 Z m 0.550333,-6.16374 h 0.797983 v 1.84362 h 0.880533 v -1.84362 h 0.834672 v 2.48568 h -2.513188 z m 0.376061,3.49462 v 0.65123 h 1.623483 v -0.65123 z m -0.6604,-0.65123 h 2.980972 v 1.95369 h -2.980972 z m 1.07315,-0.44944 h 0.797983 v 2.96263 q 0,0.70626 -0.128411,1.32997 -0.119239,0.61454 -0.513644,1.10984 -0.385234,0.4953 -1.192389,0.85302 -0.06421,-0.14676 -0.210961,-0.35772 -0.146755,-0.20179 -0.265994,-0.30268 0.669572,-0.29351 0.990599,-0.69709 0.321028,-0.40358 0.421923,-0.88971 0.100894,-0.4953 0.100894,-1.06397 z m 0.04586,4.98969 0.504472,-0.60537 q 0.256822,0.14676 0.541161,0.33938 0.293511,0.18344 0.541161,0.37606 0.24765,0.19261 0.403578,0.35771 l -0.522817,0.67875 q -0.155927,-0.17427 -0.403577,-0.37606 -0.238478,-0.20179 -0.522817,-0.40358 -0.284339,-0.21096 -0.541161,-0.36689 z m 2.659944,-7.37446 0.8255,0.17427 q -0.137584,0.6604 -0.348545,1.29328 -0.201788,0.63288 -0.458611,1.19239 -0.256822,0.55951 -0.559505,0.9906 -0.06421,-0.0825 -0.174272,-0.20179 -0.110067,-0.11924 -0.229306,-0.23848 -0.119239,-0.11924 -0.210961,-0.18344 0.41275,-0.55033 0.706261,-1.35749 0.293511,-0.80716 0.449439,-1.66934 z m 0.394405,1.90782 h 1.880306 v 0.91722 h -1.880306 v 5.7785 h -0.834672 v -6.2738 l 0.348545,-0.42192 z m 0.4953,0.35771 h 0.788811 v 5.42996 h -0.788811 z m -0.999772,1.39418 h 2.357261 v 0.8255 h -2.357261 z m 0,1.78859 h 2.366433 v 0.79798 h -2.366433 z m 0.0092,1.86196 h 2.52236 v 0.79798 h -2.52236 z m -6.218766,-2.76084 q 0.440267,-0.13759 1.045633,-0.34855 0.614539,-0.22013 1.247422,-0.44944 l 0.201789,0.96309 q -0.559505,0.22013 -1.137355,0.44944 -0.57785,0.22013 -1.082322,0.42192 z m 0.155928,-2.77919 h 2.173816 v 0.9906 h -2.173816 z m 0.779639,-1.76106 h 0.944738 v 7.53039 q 0,0.33937 -0.07338,0.54116 -0.06421,0.20179 -0.24765,0.3302 -0.192617,0.11924 -0.467784,0.15593 -0.265994,0.0367 -0.651227,0.0367 -0.01835,-0.19262 -0.100895,-0.46778 -0.07338,-0.27517 -0.1651,-0.46779 0.210961,0.009 0.385234,0.009 0.183444,0 0.24765,0 0.128411,0 0.128411,-0.14675 z m 5.998632,0.30268 0.770466,-0.23848 q 0.192617,0.36689 0.357717,0.81633 0.174272,0.44027 0.238478,0.77047 l -0.807156,0.28434 q -0.05503,-0.33938 -0.220133,-0.79799 -0.155928,-0.45861 -0.339372,-0.83467 z m 6.697841,1.23825 h 5.127271 v 1.06398 h -5.127271 z m 0.531988,1.5868 0.999772,-0.22931 q 0.100895,0.44944 0.201789,0.96308 0.100895,0.50448 0.183445,1.00895 0.08255,0.4953 0.146755,0.94474 0.06421,0.44943 0.100895,0.80715 l -1.082322,0.30268 q -0.02752,-0.35771 -0.08255,-0.81632 -0.05503,-0.46779 -0.128411,-0.98143 -0.07338,-0.51364 -0.1651,-1.02729 -0.08255,-0.51364 -0.174273,-0.97225 z m 3.081866,-0.266 1.1557,0.18345 q -0.09172,0.57785 -0.210961,1.19238 -0.119239,0.61454 -0.256822,1.21991 -0.128411,0.59619 -0.265994,1.13735 -0.137584,0.54117 -0.275167,0.97226 l -0.944739,-0.19262 q 0.119239,-0.44944 0.238478,-1.00894 0.128411,-0.55951 0.229305,-1.16487 0.110067,-0.61454 0.192617,-1.21074 0.09172,-0.59619 0.137583,-1.12818 z m -3.953227,4.32012 h 5.778499 v 1.06397 h -5.778499 z m 2.082094,-7.06261 1.045634,-0.25682 q 0.128411,0.3302 0.256822,0.7246 0.137583,0.38523 0.210961,0.67874 l -1.091494,0.31186 q -0.05503,-0.29351 -0.183445,-0.70626 -0.119239,-0.41275 -0.238478,-0.75212 z m -2.696632,-0.0917 1.036461,0.3302 q -0.302684,0.77046 -0.706261,1.55927 -0.394406,0.77964 -0.871361,1.4859 -0.467784,0.69709 -0.972256,1.21991 -0.04586,-0.13759 -0.155927,-0.34855 -0.100895,-0.22013 -0.220134,-0.44026 -0.119239,-0.22014 -0.210961,-0.35772 0.421922,-0.42192 0.807156,-0.97226 0.394405,-0.55033 0.724605,-1.18321 0.3302,-0.63289 0.568678,-1.29328 z m -0.926395,2.5407 1.100667,-1.10984 0.0092,0.009 v 7.12682 h -1.109839 z m 11.449051,1.19239 0.715434,-0.266 q 0.137583,0.266 0.256822,0.58703 0.128411,0.31185 0.220133,0.61454 0.09172,0.29351 0.128411,0.52281 l -0.770466,0.31186 q -0.03669,-0.23848 -0.119239,-0.54116 -0.07338,-0.30269 -0.192617,-0.62371 -0.110066,-0.32103 -0.238478,-0.60537 z m -0.87136,2.41229 0.742949,-0.18344 q 0.08255,0.44944 0.146756,0.98143 0.07338,0.52281 0.09172,0.91722 l -0.779639,0.21096 q -0.01834,-0.40358 -0.07338,-0.93557 -0.05503,-0.54116 -0.128411,-0.9906 z m -0.9906,-0.11924 0.8255,0.12841 q -0.05503,0.61454 -0.155928,1.21991 -0.100895,0.60537 -0.238478,1.02729 -0.137583,-0.0734 -0.385233,-0.15593 -0.238478,-0.0825 -0.394406,-0.11924 0.146756,-0.41275 0.229306,-0.97225 0.08255,-0.56868 0.119239,-1.12819 z m -0.01834,-2.41229 q -0.02752,-0.10089 -0.08255,-0.25682 -0.04586,-0.1651 -0.110066,-0.3302 -0.05503,-0.17427 -0.110067,-0.29351 0.119239,-0.0367 0.238478,-0.1651 0.128411,-0.12841 0.256822,-0.3302 0.100894,-0.12841 0.293511,-0.47696 0.192617,-0.35772 0.403578,-0.8255 0.210961,-0.46778 0.366888,-0.94474 l 0.898878,0.36689 q -0.311855,0.74295 -0.74295,1.4859 -0.421922,0.73378 -0.862188,1.27494 v 0.0183 q 0,0 -0.08255,0.0459 -0.08255,0.0459 -0.192617,0.11923 -0.110067,0.0734 -0.192617,0.15593 -0.08255,0.0825 -0.08255,0.15593 z m 0,-0.0275 -0.01834,-0.69709 0.41275,-0.27516 1.568449,-0.11007 q -0.03669,0.18345 -0.06421,0.41275 -0.02752,0.22931 -0.03669,0.38523 -0.697089,0.0642 -1.07315,0.11924 -0.366889,0.0459 -0.531989,0.0917 -0.165099,0.0367 -0.256822,0.0734 z m 0.06421,2.15547 q -0.01835,-0.0917 -0.07338,-0.25682 -0.05503,-0.1651 -0.119239,-0.33937 -0.05503,-0.17427 -0.110066,-0.29351 0.174272,-0.0459 0.3302,-0.20179 0.155927,-0.1651 0.366888,-0.42192 0.119239,-0.12841 0.321028,-0.42192 0.210961,-0.30269 0.467783,-0.70626 0.265995,-0.41275 0.522817,-0.88971 0.265994,-0.47696 0.476955,-0.95391 l 0.816328,0.51364 q -0.321028,0.62371 -0.724606,1.2566 -0.394405,0.62371 -0.834672,1.19239 -0.431094,0.5595 -0.87136,1.02729 v 0.0275 q 0,0 -0.09172,0.0459 -0.08255,0.0459 -0.201789,0.11924 -0.110066,0.0734 -0.192616,0.15593 -0.08255,0.0825 -0.08255,0.14675 z m 0,0 -0.03669,-0.7246 0.41275,-0.27517 2.35726,-0.32102 q -0.02752,0.17427 -0.04586,0.40357 -0.0092,0.22931 0,0.37606 -0.797983,0.12842 -1.302455,0.22014 -0.4953,0.0825 -0.770466,0.13758 -0.265995,0.055 -0.403578,0.10089 -0.128411,0.0367 -0.210961,0.0825 z m 1.907822,0.18345 0.697088,-0.22931 q 0.128411,0.35772 0.256823,0.77964 0.128411,0.41275 0.183444,0.72461 l -0.733778,0.26599 q -0.04586,-0.32103 -0.1651,-0.74295 -0.119238,-0.43109 -0.238477,-0.79798 z m 1.339144,-5.33823 h 0.981427 v 1.99037 q 0,0.60537 -0.03669,1.36666 -0.02752,0.76129 -0.110066,1.57762 -0.07338,0.80716 -0.229306,1.5868 -0.146755,0.77046 -0.394405,1.41252 -0.09172,-0.0825 -0.256822,-0.18345 -0.155928,-0.0917 -0.321028,-0.18344 -0.1651,-0.0917 -0.293511,-0.12841 0.238478,-0.60537 0.366889,-1.31163 0.128411,-0.71543 0.192616,-1.44921 0.06421,-0.73378 0.08255,-1.42169 0.01835,-0.69709 0.01835,-1.2566 z m 1.981199,4.13667 h 0.596195 v 3.74226 H 57.6902 Z m 0.963084,0 h 0.596194 v 3.6964 h -0.596194 z m -2.320572,-3.09104 h 3.92571 v 2.29306 h -3.92571 v -0.84385 h 2.971799 v -0.61454 h -2.971799 z m 0.174272,2.71498 h 3.503788 v 0.88053 h -2.714977 v 3.35703 h -0.788811 z m 3.136899,0 h 0.834672 v 3.37537 q 0,0.25683 -0.04586,0.41275 -0.04586,0.15593 -0.201789,0.25683 -0.146755,0.10089 -0.3302,0.11924 -0.174272,0.0183 -0.403577,0.0183 -0.01834,-0.1651 -0.08255,-0.37606 -0.05503,-0.20179 -0.128411,-0.35772 0.100894,0.009 0.174272,0.009 0.08255,0 0.119239,0 0.06421,0 0.06421,-0.0917 z m -2.696632,1.57762 h 2.980971 v 0.85302 h -2.980971 z m 2.559049,-5.95277 0.788811,0.73378 q -0.605367,0.17427 -1.339144,0.31185 -0.724606,0.12841 -1.495072,0.22013 -0.761294,0.0825 -1.4859,0.13759 -0.02752,-0.17427 -0.110066,-0.40358 -0.07338,-0.23848 -0.155928,-0.38523 0.678744,-0.0642 1.385005,-0.14676 0.706261,-0.0917 1.329972,-0.21096 0.632883,-0.11924 1.082322,-0.25682 z m 4.349753,1.10984 v 1.08232 h 1.210733 v -1.08232 z m -0.779639,-0.77047 h 2.815871 v 2.62326 h -2.815871 z m -0.431095,3.1369 h 3.430411 v 0.94474 h -3.430411 z m 0.788811,0.41275 h 0.926395 q -0.09172,0.51364 -0.201789,1.06398 -0.110067,0.55033 -0.210961,0.93556 h -0.944739 q 0.119239,-0.41275 0.238478,-0.96308 0.119239,-0.55033 0.192616,-1.03646 z m 0.256823,1.1557 h 1.53176 v 0.84384 h -1.724377 z m 1.146527,0 h 0.926394 q 0,0 -0.0092,0.13758 0,0.13759 -0.0092,0.23848 -0.04586,0.86219 -0.110067,1.42169 -0.05503,0.55034 -0.137583,0.86219 -0.08255,0.31186 -0.210961,0.44944 -0.128411,0.15593 -0.275167,0.22014 -0.146755,0.0642 -0.348544,0.10089 -0.1651,0.0183 -0.431094,0.0183 -0.256823,0 -0.550334,-0.009 -0.0092,-0.20179 -0.08255,-0.45861 -0.06421,-0.24765 -0.174272,-0.43109 0.24765,0.0183 0.458611,0.0275 0.220133,0.009 0.3302,0.009 0.100895,0 0.1651,-0.0183 0.06421,-0.0183 0.128411,-0.0825 0.07338,-0.0825 0.128411,-0.3302 0.06421,-0.25682 0.110067,-0.74295 0.05503,-0.4953 0.09172,-1.28411 z m 3.797299,-4.54942 h 2.320572 v 0.86219 h -2.320572 z m -1.761066,1.26576 h 3.788127 v 0.87137 h -3.788127 z m -0.513644,0 h 0.953911 v 2.38478 q 0,0.4953 -0.03669,1.08232 -0.02752,0.57785 -0.119239,1.18322 -0.09172,0.59619 -0.275167,1.16487 -0.174272,0.56868 -0.458611,1.02729 -0.08255,-0.0825 -0.238478,-0.20179 -0.146755,-0.11006 -0.302683,-0.22013 -0.155928,-0.1009 -0.275166,-0.14676 0.348544,-0.5595 0.504472,-1.23825 0.1651,-0.68791 0.201789,-1.37583 0.04586,-0.69709 0.04586,-1.28411 z m 1.100666,1.47673 2.513188,-0.2293 0.08255,0.7246 -2.504016,0.23848 z m 2.925938,-1.47673 h 0.137584 l 0.146755,-0.0275 0.678744,0.14675 q -0.07338,0.44944 -0.1651,0.94474 -0.09172,0.48613 -0.192616,0.83467 l -0.797983,-0.19261 q 0.05503,-0.31186 0.110066,-0.75212 0.05503,-0.44027 0.08255,-0.83468 z m -2.614082,3.52214 h 0.908049 q -0.01834,0.76129 -0.128411,1.39417 -0.110066,0.62372 -0.376061,1.11902 -0.265994,0.4953 -0.779638,0.84384 -0.08255,-0.17427 -0.256823,-0.39441 -0.174272,-0.21096 -0.3302,-0.3302 0.41275,-0.26599 0.605367,-0.65122 0.192617,-0.38524 0.265994,-0.88054 0.07338,-0.4953 0.09172,-1.10066 z m 1.385005,0 h 0.898877 v 2.03623 q 0,0.0367 0.0092,0.0734 0.0092,0.0367 0.02752,0.055 0.03669,0.0459 0.128411,0.0459 0.02752,0 0.07338,0 0.05503,0 0.09172,0 0.03669,0 0.08255,-0.009 0.04586,-0.009 0.06421,-0.0275 0.05503,-0.0642 0.06421,-0.17427 0.01834,-0.11007 0.02752,-0.33937 0.0092,-0.22931 0.0092,-0.52282 0.119239,0.11924 0.339372,0.23848 0.229306,0.11924 0.403578,0.18344 -0.0092,0.3302 -0.04586,0.63289 -0.02752,0.29351 -0.06421,0.43109 -0.05503,0.14676 -0.128411,0.24765 -0.07338,0.1009 -0.183444,0.17427 -0.08255,0.055 -0.229306,0.0917 -0.137583,0.0367 -0.265994,0.0367 -0.110067,0 -0.265994,0 -0.146756,0 -0.238478,0 -0.1651,0 -0.3302,-0.055 -0.1651,-0.0459 -0.275167,-0.15593 -0.119238,-0.11923 -0.155927,-0.28433 -0.03669,-0.1651 -0.03669,-0.55951 z m -0.999772,-5.29237 h 1.036461 v 2.16464 h -1.036461 z m 0.03669,2.55905 h 0.917222 v 1.3208 q 0,0.17427 0.02752,0.25682 0.03669,0.0734 0.183445,0.0734 0.05503,0 0.146755,0 0.100895,0 0.220134,0 0.119238,0 0.220133,0 0.100894,0 0.155928,0 0.137583,0 0.339372,-0.009 0.201789,-0.0183 0.302683,-0.055 0.01834,0.20179 0.02752,0.40358 0.01834,0.19261 0.04586,0.37606 -0.100895,0.0367 -0.302683,0.055 -0.192617,0.009 -0.366889,0.009 -0.07338,0 -0.210961,0 -0.128411,0 -0.284339,0 -0.146756,0 -0.284339,0 -0.128411,0 -0.192617,0 -0.394405,0 -0.596194,-0.11923 -0.201789,-0.12842 -0.275167,-0.37607 -0.07338,-0.24765 -0.07338,-0.62371 z"
       id="text7"
       style="font-size:9.17222px;line-height:0;font-family:'Noto Sans TC';-inkscape-font-specification:'Noto Sans TC, @wght=700';font-variation-settings:'wght' 700;letter-spacing:1.32292px;direction:rtl;fill:#ffffff;stroke-width:0.499999;stroke-linecap:round;stroke-linejoin:round;paint-order:stroke fill markers"
       aria-label="社團攤位編號" /><rect
       style="font-variation-settings:'wght' 700;fill:#ffffff;fill-opacity:1;stroke:none;stroke-width:64.4844;stroke-linecap:round;stroke-linejoin:round;stroke-dasharray:none;stroke-opacity:1;paint-order:stroke fill markers"
       id="rect14-5"
       width="40.570999"
       height="1.2370414"
       x="144.27805"
       y="198.08096"
       ry="0.61852068" /><path
       d="m 100.91666,197.23 h 2.84339 v 1.06398 h -2.84339 z m 6.07201,-2.4765 h 1.10984 v 5.41161 q 0,0.38524 -0.0917,0.6604 -0.0917,0.266 -0.34854,0.40358 -0.266,0.14676 -0.62372,0.19262 -0.34854,0.0367 -0.81632,0.0367 -0.0183,-0.1651 -0.0825,-0.37606 -0.0642,-0.22014 -0.15593,-0.4311 -0.0825,-0.21096 -0.17427,-0.35772 0.32102,0.009 0.61454,0.0183 0.29351,0 0.3944,0 0.1009,-0.009 0.13758,-0.0459 0.0367,-0.0367 0.0367,-0.13759 z m -2.74249,0 h 3.31117 v 1.0915 h -2.19216 v 6.86999 h -1.11901 z m -1.17404,-0.41275 0.83467,0.88971 q -0.46779,0.18344 -1.00895,0.34854 -0.54116,0.15593 -1.09149,0.28434 -0.55033,0.12841 -1.07315,0.22014 -0.0367,-0.17428 -0.14676,-0.4311 -0.10089,-0.26599 -0.19261,-0.44027 0.47695,-0.11923 0.97225,-0.25682 0.4953,-0.13758 0.93557,-0.29351 0.44027,-0.1651 0.77047,-0.32103 z m -3.081871,6.36552 q 0.467781,-0.11923 1.091491,-0.29351 0.62371,-0.18344 1.3208,-0.3944 0.69709,-0.21096 1.38501,-0.42192 l 0.1651,0.95391 q -0.64206,0.22013 -1.30246,0.44944 -0.65122,0.22013 -1.27494,0.43109 -0.62371,0.20179 -1.14652,0.37606 z m 0.403581,-5.49416 h 1.09149 v 5.74181 h -1.09149 z m 10.0457,5.70513 h 8.37424 v 0.88053 h -8.37424 z m 3.57716,-0.7613 h 1.16488 v 2.5774 h -1.16488 z m -1.52258,-0.81633 v 0.4311 h 4.21004 v -0.4311 z m 0,-1.11901 v 0.4311 h 4.21004 v -0.4311 z m -1.07315,-0.73377 h 6.41138 v 3.01766 h -6.41138 z m -0.36689,-2.75167 h 7.18185 v 0.86219 h -7.18185 z m -0.57785,1.55928 h 8.29168 v 0.87136 h -8.29168 z m 5.38409,-0.77047 1.17404,0.19262 q -0.13758,0.29351 -0.25682,0.53199 -0.11924,0.23847 -0.22013,0.41275 l -1.07315,-0.18345 q 0.0642,-0.14675 0.13758,-0.31185 0.0734,-0.1651 0.13759,-0.3302 0.0642,-0.17428 0.10089,-0.31186 z m -3.57717,0.22013 1.06398,-0.22013 q 0.12841,0.21096 0.22931,0.46778 0.11006,0.25683 0.17427,0.44944 l -1.11901,0.266 q -0.0367,-0.19262 -0.14676,-0.46779 -0.10089,-0.27516 -0.20179,-0.4953 z m 1.55928,-1.51341 1.10067,-0.22014 q 0.12841,0.22014 0.23848,0.50448 0.11923,0.27516 0.18344,0.47695 l -1.14653,0.27517 q -0.0459,-0.22014 -0.15592,-0.50447 -0.11007,-0.29352 -0.22014,-0.53199 z m 9.75219,4.73286 0.5962,-0.40358 q 0.17427,0.14676 0.36689,0.34855 0.19261,0.19262 0.29351,0.34854 l -0.62371,0.44944 q -0.0917,-0.1651 -0.27517,-0.36689 -0.18345,-0.21096 -0.35772,-0.37606 z m -2.67829,0.51365 h 4.0633 v 0.90805 h -4.0633 z m -0.009,-3.4029 h 4.03578 v 0.87136 h -4.03578 z m 3.09104,-1.57762 0.90805,0.22931 q -0.17427,0.3302 -0.3302,0.64205 -0.15593,0.31186 -0.29351,0.54116 l -0.70626,-0.22013 q 0.11006,-0.26599 0.2293,-0.59619 0.12841,-0.33938 0.19262,-0.5962 z m -1.50424,-0.31185 h 0.95391 v 4.36597 h -0.95391 z m -1.45839,0.54116 0.73378,-0.27517 q 0.1651,0.25682 0.31186,0.56868 0.14675,0.31185 0.19261,0.54116 l -0.78881,0.30268 q -0.0367,-0.2293 -0.1651,-0.54116 -0.12841,-0.32103 -0.28434,-0.59619 z m 1.50425,6.47558 0.56867,-0.66957 q 0.27517,0.14676 0.5962,0.34855 0.3302,0.19261 0.63288,0.38523 0.30269,0.19262 0.4953,0.34854 l -0.59619,0.75213 q -0.18345,-0.1651 -0.47696,-0.37606 -0.29351,-0.20179 -0.61454,-0.40358 -0.32102,-0.21096 -0.60536,-0.38524 z m 1.37583,-4.04494 q 0.0917,0.0459 0.25682,0.1651 0.17427,0.11923 0.35772,0.25682 0.19262,0.12841 0.34854,0.24765 0.1651,0.11924 0.23848,0.17427 l -0.58702,0.69709 q -0.0917,-0.11007 -0.24765,-0.266 -0.14676,-0.15592 -0.32103,-0.32102 -0.1651,-0.1651 -0.32103,-0.31186 -0.14675,-0.14675 -0.26599,-0.23848 z m -2.1463,-0.0275 0.66957,0.2293 q -0.17427,0.44027 -0.47695,0.88971 -0.29351,0.44944 -0.63289,0.71543 -0.11006,-0.1651 -0.29351,-0.36689 -0.18344,-0.21096 -0.33937,-0.32102 0.21096,-0.12842 0.41275,-0.31186 0.21096,-0.18344 0.38523,-0.40358 0.17428,-0.22013 0.27517,-0.43109 z m 3.22862,-2.6416 h 4.34763 v 0.93557 h -4.34763 z m 1.26577,3.68723 v 0.56868 h 1.77024 v -0.56868 z m 0,1.3208 v 0.57785 h 1.77024 v -0.57785 z m 0,-2.6416 v 0.55951 h 1.77024 v -0.55951 z m -0.9906,-0.8255 h 3.7973 v 4.86128 h -3.7973 z m 1.30245,-1.02729 1.20156,0.14676 q -0.14675,0.42192 -0.31185,0.8255 -0.15593,0.3944 -0.28434,0.68792 l -0.91722,-0.17428 q 0.0642,-0.21096 0.12841,-0.46778 0.0642,-0.26599 0.11007,-0.53199 0.0459,-0.26599 0.0734,-0.48613 z m -0.42192,5.93443 0.89888,0.56868 q -0.20179,0.23848 -0.4953,0.47695 -0.28434,0.24765 -0.60537,0.44944 -0.31185,0.21096 -0.61454,0.35772 -0.12841,-0.15593 -0.3302,-0.35772 -0.20178,-0.19261 -0.37606,-0.33937 0.28434,-0.12841 0.56868,-0.32103 0.29351,-0.20179 0.54116,-0.42192 0.25682,-0.22013 0.41275,-0.41275 z m 1.10984,0.55951 0.77047,-0.54117 q 0.25682,0.1651 0.54116,0.38524 0.29351,0.22013 0.5595,0.43109 0.266,0.21096 0.44027,0.38524 l -0.83467,0.59619 q -0.15593,-0.17427 -0.41275,-0.39441 -0.24765,-0.22013 -0.53199,-0.44943 -0.28434,-0.22931 -0.53199,-0.41275 z m -4.84293,-2.76084 h 0.94474 v 0.97225 q 0,0.38524 -0.0734,0.78881 -0.0734,0.40358 -0.28434,0.79799 -0.21096,0.3944 -0.63288,0.74295 -0.41275,0.35771 -1.10067,0.64205 -0.0459,-0.11924 -0.14676,-0.26599 -0.0917,-0.14676 -0.20178,-0.29351 -0.11007,-0.13759 -0.21097,-0.22931 0.57785,-0.22013 0.90805,-0.48613 0.33938,-0.27516 0.51365,-0.56867 0.17427,-0.29352 0.2293,-0.58703 0.055,-0.29351 0.055,-0.56867 z m 9.43116,-4.28343 h 4.1917 v 0.96308 h -4.1917 z m -0.31186,1.92617 h 4.70535 v 0.97225 h -4.70535 z m -0.0917,5.04472 h 8.30086 v 1.01811 h -8.30086 z m 0.93557,-1.73355 h 6.44807 v 0.99977 h -6.44807 z m 1.9812,-4.86128 h 1.02729 v 4.2926 h -1.02729 z m 0.67874,4.13667 h 1.12819 v 3.21028 h -1.12819 z m 1.5868,-4.31094 h 1.00894 v 3.11855 h -1.00894 z m 1.67851,-0.42192 h 1.04564 v 3.93488 q 0,0.37606 -0.0917,0.58702 -0.0825,0.21096 -0.33937,0.33937 -0.25682,0.11007 -0.61454,0.13759 -0.35771,0.0275 -0.84384,0.0275 -0.0275,-0.21096 -0.12841,-0.48612 -0.0917,-0.28434 -0.20179,-0.47696 0.31185,0.009 0.60537,0.009 0.30268,0 0.3944,-0.009 0.11007,0 0.13758,-0.0275 0.0367,-0.0275 0.0367,-0.11924 z m -5.73263,0.60536 h 1.00894 v 1.64183 q 0,0.4953 -0.11924,1.03646 -0.11007,0.54116 -0.44027,1.02729 -0.3302,0.47696 -0.96308,0.8255 -0.0734,-0.11007 -0.21096,-0.25682 -0.12841,-0.14676 -0.27517,-0.29351 -0.13758,-0.14676 -0.2293,-0.22014 0.5595,-0.29351 0.81633,-0.64205 0.25682,-0.35772 0.3302,-0.74295 0.0825,-0.39441 0.0825,-0.7613 z"
       id="text14-8"
       style="font-size:9.17222px;line-height:0;font-family:'Noto Sans TC';-inkscape-font-specification:'Noto Sans TC, @wght=700';font-variation-settings:'wght' 700;letter-spacing:1.32292px;direction:rtl;fill:#ffffff;stroke-width:0.499999;stroke-linecap:round;stroke-linejoin:round;paint-order:stroke fill markers"
       aria-label="印章類型" /></g></svg>
