<?xml version="1.0" encoding="UTF-8" standalone="no"?>
<!-- Created with Inkscape (http://www.inkscape.org/) -->

<svg
   width="512.48523mm"
   height="126.68139mm"
   viewBox="0 0 512.48523 126.68139"
   version="1.1"
   id="svg1"
   xml:space="preserve"
   xmlns="http://www.w3.org/2000/svg"
   xmlns:svg="http://www.w3.org/2000/svg"><defs
     id="defs1" /><g
     id="layer3"
     transform="translate(-2793.3789,-175.22881)"><path
       id="path62"
       style="display:inline;fill:#181c30;fill-opacity:1;stroke:none;stroke-width:0.407008;stroke-linecap:square;paint-order:stroke fill markers"
       d="m 2967.252,199.78367 -0.1091,102.1147 323.8567,-5.2e-4 a 14.818126,14.290618 0 0 0 9.1214,-3.0701 c -3.8739,-2.84169 -9.0925,-5.79237 -9.0087,-15.459 0.1223,-14.18998 12.7893,-16.17409 14.6983,-28.00087 v -6.09782 c -1.9417,-11.49188 -14.9614,-10.97952 -14.9614,-23.71277 0,-10.87077 8.8958,-11.57005 12.5837,-18.63917 a 14.829434,14.301523 0 0 0 -12.4555,-7.03781 z m 333.6406,98.44102 c -0.13,0.1104 -0.2583,0.22155 -0.3933,0.32918 a 14.818126,14.290618 0 0 0 0.3933,-0.32918 z" /><path
       id="path63"
       style="color:#000000;font-style:normal;font-variant:normal;font-weight:normal;font-stretch:normal;font-size:medium;line-height:normal;font-family:sans-serif;font-variant-ligatures:normal;font-variant-position:normal;font-variant-caps:normal;font-variant-numeric:normal;font-variant-alternates:normal;font-variant-east-asian:normal;font-feature-settings:normal;font-variation-settings:normal;text-indent:0;text-align:start;text-decoration-line:none;text-decoration-style:solid;text-decoration-color:#000000;letter-spacing:normal;word-spacing:normal;text-transform:none;writing-mode:lr-tb;direction:ltr;text-orientation:mixed;dominant-baseline:auto;baseline-shift:baseline;text-anchor:start;white-space:normal;shape-padding:0;shape-margin:0;inline-size:0;clip-rule:nonzero;display:inline;overflow:visible;visibility:visible;isolation:auto;mix-blend-mode:normal;color-interpolation:sRGB;color-interpolation-filters:linearRGB;solid-color:#000000;solid-opacity:1;vector-effect:none;fill:#181c30;fill-opacity:1;fill-rule:nonzero;stroke:none;stroke-width:0.848457;stroke-linecap:square;stroke-linejoin:miter;stroke-miterlimit:4;stroke-dasharray:none;stroke-dashoffset:0;stroke-opacity:1;-inkscape-stroke:none;paint-order:stroke fill markers;color-rendering:auto;image-rendering:auto;shape-rendering:auto;text-rendering:auto;enable-background:accumulate;stop-color:#000000;stop-opacity:1"
       d="m 2900.3619,175.4389 -13.9056,7.77059 c -0.5282,0.29533 -0.8485,0.81068 -0.8484,1.36477 v 8.90282 c 1e-4,0.57314 -0.2398,1.12585 -0.673,1.55081 l -12.826,12.58269 c -0.4285,0.42026 -1.0374,0.65998 -1.6759,0.65991 h -15.5458 c -0.5539,-4e-5 -1.0029,-0.39867 -1.0029,-0.89038 l -1.0583,-25.71988 c 0,-0.49172 -0.449,-0.89035 -1.0029,-0.89039 h -23.7461 c -0.554,-1.8e-4 -1.003,0.39867 -1.0024,0.89039 l -1.5719,18.02098 -16.7504,0.0287 c -8.4954,0.0146 -15.3735,6.13226 -15.3731,13.67358 v 74.88056 c 3e-4,7.53705 6.8837,13.64673 15.3743,13.64613 l 167.896,-0.0118 -1.5875,-120.17458 c -0.1669,-0.2996 -0.5088,-0.49098 -0.8852,-0.49558 h -22.6993 c -0.5546,-1.6e-4 -1.0047,0.3981 -1.0064,0.89039 l -1.3313,25.09821 c 0,0.49189 -0.4516,0.88975 -1.0058,0.88987 h -15.9056 c -0.6392,1e-4 -1.2491,-0.23756 -1.6817,-0.65526 l -13.3399,-12.88655 c -0.4365,-0.42166 -0.6788,-0.97347 -0.6788,-1.54616 v -7.99693 c 1e-4,-0.55664 -0.3116,-1.07689 -0.8316,-1.38803 l -13.6576,-8.17159 c -0.5056,-0.30248 -1.1646,-0.3116 -1.6805,-0.0233 z" /><path
       style="font-style:italic;font-size:73.0542px;line-height:0;font-family:Merriweather;-inkscape-font-specification:'Merriweather, @opsz=144,wght=600';font-variation-settings:'opsz' 144, 'wght' 600;letter-spacing:9.00749px;direction:rtl;fill:#edb381;stroke-width:0.739573;stroke-linecap:square;paint-order:stroke fill markers"
       d="m 2871.05,281.72914 q -5.8444,0 -9.7162,-1.93594 -3.8354,-1.97246 -6.1001,-5.2599 -2.2647,-3.28744 -3.2144,-7.34195 -0.9497,-4.05451 -0.9497,-8.21859 0,-6.72099 1.8994,-12.63838 1.936,-5.95392 5.5522,-10.51981 3.6161,-4.56588 8.7665,-7.15931 5.1868,-2.59342 11.6521,-2.59342 4.1276,0 6.9036,0.51138 2.8126,0.47485 4.8216,0.98623 2.0455,0.51138 3.8354,0.58443 l -2.3743,14.86653 h -5.8809 l -0.5479,-12.96712 q -0.694,-0.58443 -1.7167,-0.98623 -1.0228,-0.43832 -2.4108,-0.69401 -1.3881,-0.25569 -3.1414,-0.25569 -4.091,0 -7.1958,2.66647 -3.1048,2.66648 -5.2234,7.23237 -2.1186,4.52936 -3.1778,10.19106 -1.0593,5.62517 -1.0593,11.54256 0,3.32397 0.5114,6.83057 0.5113,3.5066 1.7533,6.50183 1.2784,2.95869 3.5066,4.78505 2.2281,1.82635 5.5886,1.82635 1.5341,0 3.2874,-0.51138 1.7533,-0.51138 3.2144,-1.42456 1.4611,-0.91317 2.0821,-2.11857 0.3287,-0.73054 0.8036,-2.04552 0.5113,-1.3515 1.0227,-2.88564 0.5114,-1.57066 0.9497,-3.03175 0.4749,-1.46108 0.7306,-2.48384 h 5.0042 l -2.3012,13.4785 q -1.1324,0.14611 -2.5934,0.62096 -1.4611,0.47485 -3.4336,1.05929 -1.9725,0.58443 -4.6389,0.98623 -2.6665,0.4018 -6.2096,0.4018 z m 29.2482,-0.73054 0.1826,-1.35151 4.9677,-1.20539 6.7575,-49.16548 -4.5659,-1.24192 0.1826,-1.31497 h 20.09 l -0.1827,1.31497 -5.2599,1.24192 -3.8353,27.65102 25.5689,-27.79713 -5.6617,-1.13234 0.1827,-1.27844 h 15.0857 l -0.2192,1.27844 -4.9677,1.13234 -18.0078,18.70188 q 0.7305,1.42456 1.5706,3.14133 0.8401,1.71677 1.7899,3.65271 0.9862,1.93594 2.0089,4.01798 1.0228,2.04552 2.0456,4.16409 1.3515,2.70301 2.5934,5.33296 1.2419,2.59342 2.3742,4.78505 1.1689,2.1551 2.1551,3.65271 1.0228,1.46108 1.8264,1.97246 l 3.4701,1.05929 -0.2192,1.38803 h -12.8941 q -0.767,-0.0365 -1.4976,-0.8036 -0.7305,-0.8036 -1.4976,-2.1551 -0.7305,-1.3515 -1.5341,-3.03175 -0.8036,-1.71677 -1.7168,-3.54313 -0.8036,-1.60719 -1.7898,-3.83534 -0.9862,-2.26468 -1.9725,-4.67547 -0.9862,-2.41079 -1.8994,-4.56589 -0.9132,-2.1551 -1.5707,-3.65271 l -5.6982,5.99045 -2.4473,17.71564 5.1138,1.20539 -0.2557,1.35151 z"
       id="path64"
       aria-label="CK" /><path
       style="color:#000000;font-style:italic;font-variant:normal;font-weight:normal;font-stretch:normal;font-size:73.0542px;line-height:0;font-family:Merriweather;-inkscape-font-specification:'Merriweather, @opsz=144,wght=500';font-variant-ligatures:normal;font-variant-position:normal;font-variant-caps:normal;font-variant-numeric:normal;font-variant-alternates:normal;font-variant-east-asian:normal;font-feature-settings:normal;font-variation-settings:'opsz' 144, 'wght' 500;text-indent:0;text-align:start;text-decoration-line:none;text-decoration-style:solid;text-decoration-color:#000000;letter-spacing:9.00749px;word-spacing:normal;text-transform:none;writing-mode:lr-tb;direction:rtl;text-orientation:mixed;dominant-baseline:auto;baseline-shift:baseline;text-anchor:start;white-space:normal;shape-padding:0;shape-margin:0;inline-size:0;clip-rule:nonzero;display:inline;overflow:visible;visibility:visible;isolation:auto;mix-blend-mode:normal;color-interpolation:sRGB;color-interpolation-filters:linearRGB;solid-color:#000000;solid-opacity:1;vector-effect:none;fill:#ffffff;fill-opacity:1;fill-rule:nonzero;stroke:none;stroke-linecap:square;stroke-linejoin:miter;stroke-miterlimit:4;stroke-dasharray:none;stroke-dashoffset:0;stroke-opacity:1;-inkscape-stroke:none;paint-order:stroke fill markers;color-rendering:auto;image-rendering:auto;shape-rendering:auto;text-rendering:auto;enable-background:accumulate;stop-color:#000000;stop-opacity:1"
       d="m 2991.5503,281.69261 c -3.8719,0 -7.0984,-0.65749 -9.6797,-1.97246 -2.5813,-1.31498 -4.6268,-3.06828 -6.1366,-5.2599 -1.4854,-2.19163 -2.5568,-4.63894 -3.2143,-7.34195 -0.6331,-2.72736 -0.9497,-5.47907 -0.9497,-8.25513 0,-4.60241 0.6575,-8.88826 1.9724,-12.85754 1.3393,-3.96927 3.2266,-7.43935 5.6617,-10.41022 2.4595,-2.99522 5.3817,-5.33295 8.7665,-7.0132 3.3849,-1.68025 7.1228,-2.52037 11.2138,-2.52037 2.63,0 4.8582,0.17046 6.6845,0.51138 1.8263,0.31657 3.397,0.65749 4.712,1.02276 1.3393,0.34092 2.5569,0.54791 3.6527,0.62096 l -2.3377,14.28209 h -4.8581 l -0.4749,-12.2731 c -0.487,-0.34092 -1.0958,-0.66966 -1.8263,-0.98623 -0.7062,-0.34092 -1.5585,-0.60879 -2.5569,-0.8036 -0.9984,-0.21916 -2.1795,-0.32874 -3.5432,-0.32874 -2.9221,0 -5.4912,0.901 -7.7072,2.703 -2.2159,1.77765 -4.0788,4.16409 -5.5886,7.15931 -1.4855,2.99523 -2.6056,6.34355 -3.3605,10.04496 -0.7305,3.67706 -1.0958,7.415 -1.0958,11.21381 0,2.38644 0.1826,4.79723 0.5479,7.23237 0.3896,2.41079 1.0471,4.61459 1.9724,6.61141 0.9497,1.97246 2.2282,3.56748 3.8354,4.78505 1.6315,1.21757 3.6649,1.82635 6.1,1.82635 1.0471,0 2.1795,-0.18264 3.397,-0.54791 1.2419,-0.36527 2.3865,-0.85229 3.4336,-1.46108 1.0471,-0.63313 1.7898,-1.3515 2.2281,-2.1551 0.2192,-0.53573 0.4749,-1.21757 0.7671,-2.04552 0.2922,-0.85229 0.5844,-1.75329 0.8767,-2.703 0.2922,-0.97406 0.5722,-1.91159 0.8401,-2.81259 0.2922,-0.901 0.5235,-1.68024 0.694,-2.33773 h 4.2737 l -2.0821,12.96712 c -0.7305,0.14611 -1.5828,0.38962 -2.5569,0.73054 -0.9741,0.31657 -2.1064,0.65749 -3.397,1.02276 -1.2906,0.36527 -2.7882,0.68183 -4.4928,0.9497 -1.6803,0.26787 -3.604,0.4018 -5.7713,0.4018 z m 39.4507,-5.95392 c -0.049,0.8036 0.061,1.36368 0.3288,1.68025 0.2922,0.29222 0.6575,0.43833 1.0958,0.43833 0.4627,0 0.974,-0.15829 1.5341,-0.47486 0.5845,-0.31657 1.2176,-0.86447 1.8994,-1.64372 l 0.7671,1.38803 c -0.7305,0.94971 -1.5585,1.77766 -2.4838,2.48385 -0.9254,0.70619 -1.9482,1.24192 -3.0683,1.60719 -1.1202,0.38962 -2.3256,0.58443 -3.6162,0.58443 -0.8767,0 -1.6437,-0.14611 -2.3012,-0.43832 -0.6331,-0.29222 -1.1202,-0.76707 -1.4611,-1.42456 -0.3409,-0.68184 -0.5114,-1.57067 -0.5114,-2.66648 0,-0.24351 0.024,-0.56008 0.073,-0.9497 0.049,-0.41397 0.1095,-0.88883 0.1826,-1.42456 0.073,-0.53573 0.1461,-1.08364 0.2192,-1.64372 l 7.0863,-48.14272 -4.9677,-1.13234 0.1826,-1.05928 12.0539,-1.60719 0.9497,0.80359 z m 25.5904,6.10003 c -1.5098,0 -2.7761,-0.31657 -3.7988,-0.94971 -0.9984,-0.63313 -1.7533,-1.49761 -2.2647,-2.59342 -0.5113,-1.09581 -0.767,-2.36209 -0.767,-3.79882 0,-0.60879 0.061,-1.50979 0.1826,-2.703 0.1461,-1.21757 0.3166,-2.52037 0.5114,-3.9084 0.1948,-1.41238 0.3774,-2.71518 0.5479,-3.9084 0.1948,-1.21757 0.3409,-2.1064 0.4383,-2.66648 l 2.1186,-13.40545 -4.3102,-1.3515 0.1461,-1.05928 11.0677,-2.009 1.2784,0.98624 -2.3742,16.36414 c -0.1218,0.80359 -0.2801,1.81418 -0.4749,3.03175 -0.1705,1.19321 -0.3409,2.42296 -0.5113,3.68923 -0.1461,1.24193 -0.2801,2.37427 -0.4018,3.39702 -0.098,0.99841 -0.1462,1.7046 -0.1462,2.11858 0,0.80359 0.085,1.49761 0.2557,2.08204 0.1705,0.56008 0.4505,0.98623 0.8402,1.27845 0.4139,0.26787 0.9618,0.4018 1.6437,0.4018 1.2906,0 2.6421,-0.63314 4.0545,-1.89941 1.4124,-1.26627 2.7761,-2.97087 4.091,-5.1138 1.315,-2.16727 2.4473,-4.56588 3.397,-7.19583 l 2.8126,-18.33661 h 7.7803 l -4.6024,30.97498 c -0.097,0.8036 -0.049,1.44891 0.1461,1.93594 0.1948,0.46267 0.5479,0.69401 1.0593,0.69401 0.487,0 1.0349,-0.17046 1.6437,-0.51138 0.6331,-0.36527 1.2419,-0.901 1.8264,-1.60719 l 0.7305,1.38803 c -0.5357,0.8036 -1.2541,1.55849 -2.1551,2.26468 -0.8767,0.70619 -1.8751,1.27845 -2.9952,1.71677 -1.1202,0.43833 -2.3134,0.65749 -3.5797,0.65749 -1.7533,0 -2.9587,-0.43832 -3.6162,-1.31497 -0.6575,-0.87665 -0.9862,-1.86289 -0.9862,-2.9587 0,-0.24351 0.049,-0.75489 0.1461,-1.53414 0.097,-0.77924 0.2192,-1.69242 0.3653,-2.73953 l 0.5114,-3.21438 c 0.1705,-1.07147 0.3166,-1.99682 0.4383,-2.77606 h -0.1096 c -0.8036,1.97246 -1.7168,3.83534 -2.7395,5.58864 -1.0228,1.7533 -2.1551,3.31179 -3.397,4.67547 -1.2419,1.33933 -2.5935,2.39861 -4.0546,3.17786 -1.4611,0.75489 -3.0439,1.13234 -4.7485,1.13234 z m 51.0799,-29.80611 c 0.7549,-1.7533 1.7654,-3.28744 3.0317,-4.60242 1.2663,-1.33933 2.6909,-2.38644 4.2737,-3.14133 1.5829,-0.75489 3.1779,-1.13234 4.7851,-1.13234 2.289,0 4.2371,0.51138 5.8443,1.53414 1.6315,1.02276 2.8856,2.54472 3.7623,4.56589 0.8767,2.02117 1.315,4.50501 1.315,7.45152 0,2.45949 -0.3288,4.89463 -0.9863,7.30542 -0.6331,2.41079 -1.5828,4.68765 -2.8491,6.83057 -1.2419,2.11857 -2.7882,4.00581 -4.6389,5.6617 -1.8264,1.63155 -3.9328,2.92217 -6.3192,3.87188 -2.3865,0.92535 -5.0164,1.38803 -7.8899,1.38803 -1.4367,0 -2.8369,-0.15829 -4.2006,-0.47486 -1.3637,-0.29221 -2.5934,-0.66966 -3.6892,-1.13234 l -4.4928,1.38803 8.2551,-56.43437 -4.6755,-1.13234 0.1826,-1.05928 11.7983,-1.60719 0.9497,0.80359 z m -3.7623,25.49591 c 0.2435,0.68184 0.7184,1.27845 1.4246,1.78983 0.7305,0.48703 1.6802,0.73054 2.8491,0.73054 1.8507,0 3.5187,-0.4992 5.0042,-1.49761 1.5098,-1.02276 2.8126,-2.37426 3.9084,-4.05451 1.1201,-1.70459 2.0577,-3.61618 2.8126,-5.73475 0.7549,-2.14293 1.3149,-4.34673 1.6802,-6.61141 0.3653,-2.28903 0.5479,-4.505 0.5479,-6.64793 0,-2.97087 -0.4018,-5.23555 -1.2054,-6.79404 -0.7792,-1.58284 -2.0333,-2.37426 -3.7623,-2.37426 -1.2663,0 -2.6056,0.48703 -4.0179,1.46108 -1.3881,0.97406 -2.6422,2.26469 -3.7623,3.87188 -1.1202,1.58284 -1.9116,3.32396 -2.3743,5.22337 z m 33.8899,3.47008 0.1826,-1.35151 5.1138,-1.16886 6.7575,-49.23853 -4.712,-1.2054 0.1827,-1.31497 h 18.7749 l -0.1826,1.31497 -5.1869,1.2054 -3.1048,22.54412 h 21.8432 l 3.1048,-22.54412 -4.785,-1.2054 0.1826,-1.31497 h 18.5923 l -0.1461,1.31497 -4.9312,1.2054 -6.7575,49.23853 4.7851,1.16886 -0.1827,1.35151 h -18.921 l 0.1826,-1.35151 5.2234,-1.16886 3.2579,-23.6883 h -21.8432 l -3.2579,23.6883 5.1869,1.16886 -0.2192,1.35151 z m 70.8041,0.84012 c -1.5098,0 -2.7761,-0.31657 -3.7988,-0.94971 -0.9985,-0.63313 -1.7534,-1.49761 -2.2647,-2.59342 -0.5114,-1.09581 -0.7671,-2.36209 -0.7671,-3.79882 0,-0.60879 0.061,-1.50979 0.1826,-2.703 0.1461,-1.21757 0.3166,-2.52037 0.5114,-3.9084 0.1948,-1.41238 0.3774,-2.71518 0.5479,-3.9084 0.1948,-1.21757 0.3409,-2.1064 0.4384,-2.66648 l 2.1185,-13.40545 -4.3102,-1.3515 0.1461,-1.05928 11.0677,-2.009 1.2785,0.98624 -2.3743,16.36414 c -0.1217,0.80359 -0.28,1.81418 -0.4748,3.03175 -0.1705,1.19321 -0.3409,2.42296 -0.5114,3.68923 -0.1461,1.24193 -0.2801,2.37427 -0.4018,3.39702 -0.097,0.99841 -0.1461,1.7046 -0.1461,2.11858 0,0.80359 0.085,1.49761 0.2557,2.08204 0.1705,0.56008 0.4505,0.98623 0.8401,1.27845 0.414,0.26787 0.9619,0.4018 1.6437,0.4018 1.2907,0 2.6422,-0.63314 4.0545,-1.89941 1.4124,-1.26627 2.7761,-2.97087 4.0911,-5.1138 1.3149,-2.16727 2.4473,-4.56588 3.397,-7.19583 l 2.8126,-18.33661 h 7.7803 l -4.6025,30.97498 c -0.097,0.8036 -0.049,1.44891 0.1461,1.93594 0.1949,0.46267 0.548,0.69401 1.0593,0.69401 0.4871,0 1.035,-0.17046 1.6437,-0.51138 0.6332,-0.36527 1.242,-0.901 1.8264,-1.60719 l 0.7305,1.38803 c -0.5357,0.8036 -1.254,1.55849 -2.1551,2.26468 -0.8766,0.70619 -1.875,1.27845 -2.9952,1.71677 -1.1201,0.43833 -2.3133,0.65749 -3.5796,0.65749 -1.7533,0 -2.9587,-0.43832 -3.6162,-1.31497 -0.6575,-0.87665 -0.9862,-1.86289 -0.9862,-2.9587 0,-0.24351 0.049,-0.75489 0.1461,-1.53414 0.097,-0.77924 0.2191,-1.69242 0.3652,-2.73953 l 0.5114,-3.21438 c 0.1705,-1.07147 0.3166,-1.99682 0.4383,-2.77606 h -0.1095 c -0.8036,1.97246 -1.7168,3.83534 -2.7396,5.58864 -1.0227,1.7533 -2.1551,3.31179 -3.397,4.67547 -1.2419,1.33933 -2.5934,2.39861 -4.0545,3.17786 -1.4611,0.75489 -3.0439,1.13234 -4.7485,1.13234 z m 51.0799,-29.80611 c 0.7549,-1.7533 1.7654,-3.28744 3.0317,-4.60242 1.2663,-1.33933 2.6908,-2.38644 4.2737,-3.14133 1.5828,-0.75489 3.1778,-1.13234 4.785,-1.13234 2.2891,0 4.2372,0.51138 5.8444,1.53414 1.6315,1.02276 2.8856,2.54472 3.7623,4.56589 0.8766,2.02117 1.3149,4.50501 1.3149,7.45152 0,2.45949 -0.3287,4.89463 -0.9862,7.30542 -0.6331,2.41079 -1.5828,4.68765 -2.8491,6.83057 -1.2419,2.11857 -2.7883,4.00581 -4.639,5.6617 -1.8263,1.63155 -3.9327,2.92217 -6.3191,3.87188 -2.3865,0.92535 -5.0164,1.38803 -7.8899,1.38803 -1.4367,0 -2.8369,-0.15829 -4.2006,-0.47486 -1.3637,-0.29221 -2.5934,-0.66966 -3.6892,-1.13234 l -4.4929,1.38803 8.2551,-56.43437 -4.6754,-1.13234 0.1826,-1.05928 11.7983,-1.60719 0.9497,0.80359 z m -3.7623,25.49591 c 0.2435,0.68184 0.7183,1.27845 1.4245,1.78983 0.7305,0.48703 1.6802,0.73054 2.8491,0.73054 1.8507,0 3.5188,-0.4992 5.0043,-1.49761 1.5097,-1.02276 2.8125,-2.37426 3.9084,-4.05451 1.1201,-1.70459 2.0576,-3.61618 2.8125,-5.73475 0.7549,-2.14293 1.315,-4.34673 1.6803,-6.61141 0.3653,-2.28903 0.5479,-4.505 0.5479,-6.64793 0,-2.97087 -0.4018,-5.23555 -1.2054,-6.79404 -0.7793,-1.58284 -2.0334,-2.37426 -3.7623,-2.37426 -1.2663,0 -2.6056,0.48703 -4.018,1.46108 -1.388,0.97406 -2.6421,2.26469 -3.7623,3.87188 -1.1201,1.58284 -1.9115,3.32396 -2.3742,5.22337 z"
       id="path65"
       aria-label="ClubHub" /><path
       id="path66"
       style="fill:#edb381;stroke-width:0.139617;stroke-linecap:square;paint-order:stroke fill markers"
       d="m 2823.0604,238.6293 a 10.134861,10.134861 0 0 1 -10.1348,10.13487 10.134861,10.134861 0 0 1 -10.1349,-10.13487 10.134861,10.134861 0 0 1 10.1349,-10.13485 10.134861,10.134861 0 0 1 10.1348,10.13485 z" /><path
       id="path67"
       style="color:#000000;font-style:normal;font-variant:normal;font-weight:normal;font-stretch:normal;font-size:medium;line-height:normal;font-family:sans-serif;font-variant-ligatures:normal;font-variant-position:normal;font-variant-caps:normal;font-variant-numeric:normal;font-variant-alternates:normal;font-variant-east-asian:normal;font-feature-settings:normal;font-variation-settings:normal;text-indent:0;text-align:start;text-decoration-line:none;text-decoration-style:solid;text-decoration-color:#000000;letter-spacing:normal;word-spacing:normal;text-transform:none;writing-mode:lr-tb;direction:ltr;text-orientation:mixed;dominant-baseline:auto;baseline-shift:baseline;text-anchor:start;white-space:normal;shape-padding:0;shape-margin:0;inline-size:0;clip-rule:nonzero;display:inline;overflow:visible;visibility:visible;isolation:auto;mix-blend-mode:normal;color-interpolation:sRGB;color-interpolation-filters:linearRGB;solid-color:#000000;solid-opacity:1;vector-effect:none;fill:#edb381;fill-opacity:1;fill-rule:nonzero;stroke:none;stroke-linecap:square;stroke-linejoin:miter;stroke-miterlimit:4;stroke-dasharray:none;stroke-dashoffset:0;stroke-opacity:1;-inkscape-stroke:none;paint-order:stroke fill markers;color-rendering:auto;image-rendering:auto;shape-rendering:auto;text-rendering:auto;enable-background:accumulate;stop-color:#000000;stop-opacity:1"
       d="m 2821.0767,260.42197 h 12.8019 c 1.7474,0 3.1542,1.40676 3.1542,3.15418 v 12.80196 c 0,1.74742 -1.4068,3.15418 -3.1542,3.15418 h -12.8019 c -1.7474,0 -3.1542,-1.40676 -3.1542,-3.15418 v -12.80196 c 0,-1.74742 1.4068,-3.15418 3.1542,-3.15418 z" /><path
       id="path74"
       style="fill:#edb381;fill-opacity:1;stroke:none;stroke-width:0.402;stroke-linecap:square;stroke-linejoin:round;stroke-dasharray:none;stroke-opacity:1;paint-order:stroke fill markers"
       d="m 3290.8478,225.55729 c 0,12.82513 13.214,12.20648 15.0073,23.9572 l -0.01,-35.33583 c 0.01,-3.00687 -0.8517,-5.4386 -2.2429,-7.56433 -3.583,7.36825 -12.7544,7.91178 -12.7544,18.94296 z m 15.0089,29.55169 c -1.7615,12.06223 -14.6211,13.96484 -14.7443,28.25977 -0.084,9.6891 5.16,12.63133 9.0366,15.47916 3.7501,-2.82752 5.6911,-6.67236 5.7154,-11.24376 z" /></g></svg>
